STARTFONT 2.3
FONT -FontForge-Source Code Pro-Book-R-Normal--14-140-72-72-M-80-ISO10646-1
SIZE 14 72 72  4
FONTBOUNDINGBOX 16 24 -4 -6
COMMENT "Generated by fontforge, http://fontforge.sourceforge.net"
COMMENT "Copyright 2010, 2012 Adobe Systems Incorporated (http://www.adobe.com/), with Reserved Font Name `Source'."
STARTPROPERTIES 42
FOUNDRY "FontForge"
FAMILY_NAME "Source Code Pro"
WEIGHT_NAME "Book"
SLANT "R"
SETWIDTH_NAME "Normal"
ADD_STYLE_NAME ""
PIXEL_SIZE 14
POINT_SIZE 140
RESOLUTION_X 72
RESOLUTION_Y 72
SPACING "M"
AVERAGE_WIDTH 80
CHARSET_REGISTRY "ISO10646"
CHARSET_ENCODING "1"
FONTNAME_REGISTRY ""
CHARSET_COLLECTIONS "ASCII ISOLatin1Encoding ISO8859-2 ISO8859-9 ISO8859-4 ISO10646-1"
BITS_PER_PIXEL 4
FONT_NAME "SourceCodePro-It"
FACE_NAME "Source Code Pro Italic"
COPYRIGHT "Copyright 2010, 2012 Adobe Systems Incorporated (http://www.adobe.com/), with Reserved Font Name `Source'."
FONT_VERSION "1.050;PS 1.000;hotconv 16.6.51;makeotf.lib2.5.65220"
FONT_ASCENT 11
FONT_DESCENT 3
UNDERLINE_POSITION -1
UNDERLINE_THICKNESS 1
X_HEIGHT 6
CAP_HEIGHT 8
RAW_ASCENT 750
RAW_DESCENT 250
ITALIC_ANGLE 5056
NORM_SPACE 8
RELATIVE_WEIGHT 40
RELATIVE_SETWIDTH 50
SUPERSCRIPT_X 0
SUPERSCRIPT_Y 4
SUPERSCRIPT_SIZE 8
SUBSCRIPT_X 0
SUBSCRIPT_Y 1
SUBSCRIPT_SIZE 8
FIGURE_WIDTH 8
AVG_LOWERCASE_WIDTH 80
AVG_UPPERCASE_WIDTH 80
ENDPROPERTIES
CHARS 1269
STARTCHAR space
ENCODING 32
SWIDTH 600 0
DWIDTH 8 0
BBX 1 1 0 0
BITMAP
00
ENDCHAR
STARTCHAR exclam
ENCODING 33
SWIDTH 600 0
DWIDTH 8 0
BBX 4 9 2 0
BITMAP
007A
0097
00C3
00E0
02B0
0470
0000
3E50
4E40
ENDCHAR
STARTCHAR quotedbl
ENCODING 34
SWIDTH 600 0
DWIDTH 8 0
BBX 6 5 2 5
BITMAP
2F50E8
4F21F5
6D03F1
7904C0
840570
ENDCHAR
STARTCHAR numbersign
ENCODING 35
SWIDTH 600 0
DWIDTH 8 0
BBX 7 9 1 0
BITMAP
00470920
00A11A00
3FFFFF90
04709200
0920B000
FFFFFB00
28074000
740A0000
A01A0000
ENDCHAR
STARTCHAR dollar
ENCODING 36
SWIDTH 600 0
DWIDTH 8 0
BBX 8 13 0 -2
BITMAP
00002900
00005700
003CFD50
00D603C1
00F20000
009C3000
0007E900
00002C70
010005A0
1D511B70
03CFF900
000B0000
00380000
ENDCHAR
STARTCHAR percent
ENCODING 37
SWIDTH 600 0
DWIDTH 8 0
BBX 10 10 -1 0
BITMAP
02BE600000
0B52D00075
0C00C00780
1D17907600
08EA101000
000104DD30
00491C35A0
0690480390
29005A1A50
00001BE800
ENDCHAR
STARTCHAR ampersand
ENCODING 38
SWIDTH 600 0
DWIDTH 8 0
BBX 8 9 0 0
BITMAP
0009EB00
007A1C20
00A42C00
009AB200
03CD002B
3D2C40A5
A603D8A0
9912BF60
2CED74C3
ENDCHAR
STARTCHAR quotesingle
ENCODING 39
SWIDTH 600 0
DWIDTH 8 0
BBX 2 5 4 5
BITMAP
8E
AB
C7
D3
D0
ENDCHAR
STARTCHAR parenleft
ENCODING 40
SWIDTH 600 0
DWIDTH 8 0
BBX 6 13 2 -3
BITMAP
000058
0008B1
006B00
02D100
097000
0E1000
2D0000
3B0000
3C0000
1E0000
0C4000
05C000
009400
ENDCHAR
STARTCHAR parenright
ENCODING 41
SWIDTH 600 0
DWIDTH 8 0
BBX 6 13 0 -3
BITMAP
001B10
000790
0000D2
000096
000078
000078
000096
0000C3
0003D0
000B50
009900
1A9000
350000
ENDCHAR
STARTCHAR asterisk
ENCODING 42
SWIDTH 600 0
DWIDTH 8 0
BBX 7 6 1 2
BITMAP
00091000
100D0110
4DAEAB20
01DF5000
07886000
3701B000
ENDCHAR
STARTCHAR plus
ENCODING 43
SWIDTH 600 0
DWIDTH 8 0
BBX 7 7 1 1
BITMAP
00370000
004A0000
004A0000
CFFFFF30
004A0000
004A0000
00370000
ENDCHAR
STARTCHAR comma
ENCODING 44
SWIDTH 600 0
DWIDTH 8 0
BBX 4 5 1 -3
BITMAP
02E8
04EB
0098
18D1
8910
ENDCHAR
STARTCHAR hyphen
ENCODING 45
SWIDTH 600 0
DWIDTH 8 0
BBX 7 1 1 4
BITMAP
CFFFFF30
ENDCHAR
STARTCHAR period
ENCODING 46
SWIDTH 600 0
DWIDTH 8 0
BBX 3 2 2 0
BITMAP
4E60
5E50
ENDCHAR
STARTCHAR slash
ENCODING 47
SWIDTH 600 0
DWIDTH 8 0
BBX 8 12 0 -2
BITMAP
0000002D
000000A5
000004B0
00000C20
00007800
0001D100
00096000
003C0000
00C30000
06A00000
1D100000
87000000
ENDCHAR
STARTCHAR zero
ENCODING 48
SWIDTH 600 0
DWIDTH 8 0
BBX 8 9 0 0
BITMAP
001AED60
01D813E3
06A00087
0C35D079
1E06C088
2D0000C4
1E0003D0
0B813E50
02BEC500
ENDCHAR
STARTCHAR one
ENCODING 49
SWIDTH 600 0
DWIDTH 8 0
BBX 7 9 0 0
BITMAP
0017BD00
00159A00
00009700
0000C400
0000F100
0003D000
0006A000
00097000
5FFFFFA0
ENDCHAR
STARTCHAR two
ENCODING 50
SWIDTH 600 0
DWIDTH 8 0
BBX 7 9 0 0
BITMAP
003BED40
02D416D0
001001E0
000006A0
00002D20
0002C300
004C3000
06C20000
6FFFFFD0
ENDCHAR
STARTCHAR three
ENCODING 51
SWIDTH 600 0
DWIDTH 8 0
BBX 8 9 0 0
BITMAP
003BFD60
009414F2
000000E2
00003AA0
001FF800
00013C70
010005B0
5C303C70
06DFD700
ENDCHAR
STARTCHAR four
ENCODING 52
SWIDTH 600 0
DWIDTH 8 0
BBX 8 9 0 0
BITMAP
000006F2
00005BE0
0004C5B0
003C2790
02C20960
2C300C30
9FFFFFF6
00003C00
00006900
ENDCHAR
STARTCHAR five
ENCODING 53
SWIDTH 600 0
DWIDTH 8 0
BBX 8 9 0 0
BITMAP
008FFFF7
00C40000
01E00000
04ECEC30
014119C0
000002E0
000004C0
6B204D40
06DEC500
ENDCHAR
STARTCHAR six
ENCODING 54
SWIDTH 600 0
DWIDTH 8 0
BBX 8 9 0 0
BITMAP
0007DFC2
00AA3157
05B00000
0B6BED40
0FB316E0
1E1000E1
0F1001E0
0A912B70
01AEE700
ENDCHAR
STARTCHAR seven
ENCODING 55
SWIDTH 600 0
DWIDTH 8 0
BBX 7 9 1 0
BITMAP
5FFFFFE0
00001B40
0000B500
00089000
003D1000
00A70000
01E10000
06B00000
0A700000
ENDCHAR
STARTCHAR eight
ENCODING 56
SWIDTH 600 0
DWIDTH 8 0
BBX 8 9 0 0
BITMAP
002BEE70
00B912C4
00A30096
003B23E2
05EADE60
0E401930
1D0002C0
0D612AB0
03CEEA10
ENDCHAR
STARTCHAR nine
ENCODING 57
SWIDTH 600 0
DWIDTH 8 0
BBX 8 9 0 0
BITMAP
003CEC40
01D515E2
087000A6
0A500097
08B117C6
01AEC4D2
000007B0
29217E20
08EEA200
ENDCHAR
STARTCHAR colon
ENCODING 58
SWIDTH 600 0
DWIDTH 8 0
BBX 4 7 2 0
BITMAP
04E6
05E4
0000
0000
0000
4E60
5E50
ENDCHAR
STARTCHAR semicolon
ENCODING 59
SWIDTH 600 0
DWIDTH 8 0
BBX 5 10 1 -3
BITMAP
004E60
005E40
000000
000000
000000
02E800
04EB00
009800
18D100
891000
ENDCHAR
STARTCHAR less
ENCODING 60
SWIDTH 600 0
DWIDTH 8 0
BBX 6 7 1 1
BITMAP
00003A
0019C4
07D600
5E2000
07D600
0019C4
00003A
ENDCHAR
STARTCHAR equal
ENCODING 61
SWIDTH 600 0
DWIDTH 8 0
BBX 7 4 1 3
BITMAP
CFFFFF30
00000000
00000000
CFFFFF30
ENDCHAR
STARTCHAR greater
ENCODING 62
SWIDTH 600 0
DWIDTH 8 0
BBX 6 7 1 1
BITMAP
660000
19C400
003BA2
00009B
003BA2
19C400
660000
ENDCHAR
STARTCHAR question
ENCODING 63
SWIDTH 600 0
DWIDTH 8 0
BBX 6 9 2 0
BITMAP
07EE90
4912E3
0001D1
002B40
03C200
0B3000
000000
6E2000
8D1000
ENDCHAR
STARTCHAR at
ENCODING 64
SWIDTH 600 0
DWIDTH 8 0
BBX 8 11 0 -2
BITMAP
0007DFC3
00BA315C
0890000C
1D10000B
58006BEB
840B8358
931D14D5
840AFBA2
69000000
0D711700
02BFD600
ENDCHAR
STARTCHAR A
ENCODING 65
SWIDTH 600 0
DWIDTH 8 0
BBX 8 9 -1 0
BITMAP
000009E0
00003BC1
0000B3B3
00049095
000C1077
006FFFF9
01D2005B
0890003D
1E20002F
ENDCHAR
STARTCHAR B
ENCODING 66
SWIDTH 600 0
DWIDTH 8 0
BBX 8 9 0 0
BITMAP
00AFFEA1
00D302B8
01F00098
04D458C1
08DBBD50
0B6001E2
0E2000D3
2E0028D0
5FFFD920
ENDCHAR
STARTCHAR C
ENCODING 67
SWIDTH 600 0
DWIDTH 8 0
BBX 7 9 1 0
BITMAP
004BED40
06E513B0
2E300000
89000000
C5000000
D4000000
C6000000
6D414800
07DFC300
ENDCHAR
STARTCHAR D
ENCODING 68
SWIDTH 600 0
DWIDTH 8 0
BBX 8 9 0 0
BITMAP
00EFEB40
02E016E3
06B00089
0980005B
0C50006B
0E1000A8
3D0003F2
6A016E60
9FFEB400
ENDCHAR
STARTCHAR E
ENCODING 69
SWIDTH 600 0
DWIDTH 8 0
BBX 9 9 0 0
BITMAP
006FFFFF40
0097000000
00C4000000
01F1000000
04FFFFB000
07A0000000
0A70000000
0D30000000
1FFFFFB000
ENDCHAR
STARTCHAR F
ENCODING 70
SWIDTH 600 0
DWIDTH 8 0
BBX 8 9 1 0
BITMAP
02FFFFF6
06B00000
09800000
0C500000
0EFFFD00
3E000000
6B000000
98000000
C5000000
ENDCHAR
STARTCHAR G
ENCODING 71
SWIDTH 600 0
DWIDTH 8 0
BBX 8 9 0 0
BITMAP
0006CFC3
009D404A
05D10000
0C600000
1F206FF8
2F0000A5
0F3000D2
09C215E0
019DFB30
ENDCHAR
STARTCHAR H
ENCODING 72
SWIDTH 600 0
DWIDTH 8 0
BBX 9 9 0 0
BITMAP
00F1000E20
03D0002E00
06A0005B00
0970008800
0CFFFFF500
1F2000E200
4D0002E000
7A0005A000
A700097000
ENDCHAR
STARTCHAR I
ENCODING 73
SWIDTH 600 0
DWIDTH 8 0
BBX 8 9 0 0
BITMAP
00CFFFFE
0000A600
0000D300
0002F000
0005C000
00088000
000B5000
000E2000
6FFFFF40
ENDCHAR
STARTCHAR J
ENCODING 74
SWIDTH 600 0
DWIDTH 8 0
BBX 8 9 0 0
BITMAP
007FFFF7
000000C4
000001F1
000004D0
00000790
00000A60
00000E20
7A119A00
19EE9100
ENDCHAR
STARTCHAR K
ENCODING 75
SWIDTH 600 0
DWIDTH 8 0
BBX 9 9 0 0
BITMAP
00A6003D30
00D303D300
01F04C2000
04C4E20000
07CCE30000
0AC17A0000
0E301E2000
2E00099000
5C0003E100
ENDCHAR
STARTCHAR L
ENCODING 76
SWIDTH 600 0
DWIDTH 8 0
BBX 7 9 1 0
BITMAP
00D30000
01F00000
04C00000
07900000
0A600000
0E300000
2E000000
5B000000
8FFFFF20
ENDCHAR
STARTCHAR M
ENCODING 77
SWIDTH 600 0
DWIDTH 8 0
BBX 9 9 0 0
BITMAP
01F6005F20
04D800CD00
07AA07AB00
0A6C1C7800
0D2C86A500
1E0BC0D200
4B0631E000
780004B000
A500078000
ENDCHAR
STARTCHAR N
ENCODING 78
SWIDTH 600 0
DWIDTH 8 0
BBX 9 9 0 0
BITMAP
00E7000E10
02DC002D00
059D206A00
0878609700
0B43B0C400
0E10D1E100
2D0097D000
5A004DA000
87000E7000
ENDCHAR
STARTCHAR O
ENCODING 79
SWIDTH 600 0
DWIDTH 8 0
BBX 8 9 0 0
BITMAP
002AED80
02E812C7
0990005C
1E10003E
5C00005D
6B000099
4C0002E3
1E613D80
03CED600
ENDCHAR
STARTCHAR P
ENCODING 80
SWIDTH 600 0
DWIDTH 8 0
BBX 8 9 0 0
BITMAP
008FFEC4
00B5017D
00E1002E
02D013B9
05FFEC70
08700000
0B400000
0E100000
2E000000
ENDCHAR
STARTCHAR Q
ENCODING 81
SWIDTH 600 0
DWIDTH 8 0
BBX 8 11 0 -2
BITMAP
002AED80
02D712C7
0980005C
1E10003E
5C00005D
6B000099
5C0002E2
1E613D80
04DFE700
000D6110
0003CFC0
ENDCHAR
STARTCHAR R
ENCODING 82
SWIDTH 600 0
DWIDTH 8 0
BBX 8 9 0 0
BITMAP
00CFFEA1
00E202B9
03D00079
06A015E3
09FFFB40
0C40D300
0F108900
3D002E10
6A000C60
ENDCHAR
STARTCHAR S
ENCODING 83
SWIDTH 600 0
DWIDTH 8 0
BBX 8 9 0 0
BITMAP
002AED70
00C812B4
00F20000
009C3000
0007E900
00002C80
020006B0
4D403C70
05CFD700
ENDCHAR
STARTCHAR T
ENCODING 84
SWIDTH 600 0
DWIDTH 8 0
BBX 8 9 1 0
BITMAP
8FFFFFFA
000A6000
000D3000
001F0000
005C0000
00890000
00B60000
00E20000
02E00000
ENDCHAR
STARTCHAR U
ENCODING 85
SWIDTH 600 0
DWIDTH 8 0
BBX 9 9 0 0
BITMAP
00F1000E20
03D0002E00
06A0005B00
0A70008800
0D4000C400
0F1001E100
1F0005C000
0D813D5000
03CED60000
ENDCHAR
STARTCHAR V
ENCODING 86
SWIDTH 600 0
DWIDTH 8 0
BBX 8 9 1 0
BITMAP
4D000099
2E0002E1
1F100A70
0E203D10
0D30B600
0B53C000
0A6B4000
08AB0000
06F30000
ENDCHAR
STARTCHAR W
ENCODING 87
SWIDTH 600 0
DWIDTH 8 0
BBX 9 9 0 0
BITMAP
0B500003C0
0C40000880
0D20710C30
0E14E32D00
0E0B946800
0E3A75B400
1DA467D000
2CC05C9000
3F604F4000
ENDCHAR
STARTCHAR X
ENCODING 88
SWIDTH 600 0
DWIDTH 8 0
BBX 9 9 0 0
BITMAP
01E3003D20
009901D400
002E1B7000
000BBA0000
0009F10000
005CC50000
02D26B0000
1D500E3000
A800089000
ENDCHAR
STARTCHAR Y
ENCODING 89
SWIDTH 600 0
DWIDTH 8 0
BBX 8 9 1 0
BITMAP
5C0000B6
1E2007B0
0A603D10
05B0C500
01E89000
00BD1000
00A60000
00D30000
02E00000
ENDCHAR
STARTCHAR Z
ENCODING 90
SWIDTH 600 0
DWIDTH 8 0
BBX 9 9 0 0
BITMAP
02FFFFFF20
000001C600
00000B8000
00009A0000
0006C10000
004D200000
03E3000000
1D40000000
AFFFFFD000
ENDCHAR
STARTCHAR bracketleft
ENCODING 91
SWIDTH 600 0
DWIDTH 8 0
BBX 7 12 1 -2
BITMAP
000EFFE0
002C0000
00590000
00850000
00B20000
00D00000
02B00000
05800000
08400000
0B100000
0C000000
2FFFA000
ENDCHAR
STARTCHAR backslash
ENCODING 92
SWIDTH 600 0
DWIDTH 8 0
BBX 4 12 2 -2
BITMAP
4A00
1C00
0D00
0B30
0850
0580
03B0
00D0
00C1
00A4
0077
0049
ENDCHAR
STARTCHAR bracketright
ENCODING 93
SWIDTH 600 0
DWIDTH 8 0
BBX 7 12 0 -2
BITMAP
007FFF50
00000A20
00000C00
00001B00
00004800
00008500
0000B200
0000D000
0002B000
00068000
00095000
BFFF2000
ENDCHAR
STARTCHAR asciicircum
ENCODING 94
SWIDTH 600 0
DWIDTH 8 0
BBX 6 5 1 4
BITMAP
007D00
00C950
0582B0
0C20B3
3B0059
ENDCHAR
STARTCHAR underscore
ENCODING 95
SWIDTH 600 0
DWIDTH 8 0
BBX 8 1 -1 -2
BITMAP
4FFFFFF6
ENDCHAR
STARTCHAR grave
ENCODING 96
SWIDTH 600 0
DWIDTH 8 0
BBX 3 3 3 8
BITMAP
2B00
0B70
01B0
ENDCHAR
STARTCHAR a
ENCODING 97
SWIDTH 600 0
DWIDTH 8 0
BBX 8 7 0 0
BITMAP
004CFC6A
04E514E7
0C5000B4
2E0000E1
4D0003D0
1F514DA0
06EE8770
ENDCHAR
STARTCHAR b
ENCODING 98
SWIDTH 600 0
DWIDTH 8 0
BBX 8 10 0 0
BITMAP
00970000
00C40000
00F10000
03C6DE90
06E713E4
097000A7
0C4000B6
0E1002E2
3F613C80
699ED700
ENDCHAR
STARTCHAR c
ENCODING 99
SWIDTH 600 0
DWIDTH 8 0
BBX 7 7 1 0
BITMAP
02AEE910
2E712950
B7000000
F2000000
F2000000
AB216800
19EEA100
ENDCHAR
STARTCHAR d
ENCODING 100
SWIDTH 600 0
DWIDTH 8 0
BBX 9 10 0 0
BITMAP
0000000C50
0000000E20
0000003E00
004CFC7B00
04E514E700
0C5000C400
2E0000F100
4D0003D000
1F514DA000
06EE877000
ENDCHAR
STARTCHAR e
ENCODING 101
SWIDTH 600 0
DWIDTH 8 0
BBX 8 7 0 0
BITMAP
003BFD50
03E613E1
0C6000A4
1FFFFFF4
1F000000
0C811670
02BEE910
ENDCHAR
STARTCHAR f
ENCODING 102
SWIDTH 600 0
DWIDTH 8 0
BBX 8 10 1 0
BITMAP
0002BED6
000C8123
002E0000
4EFFFF90
00880000
00B50000
00E20000
02E00000
05B00000
08800000
ENDCHAR
STARTCHAR g
ENCODING 103
SWIDTH 600 0
DWIDTH 8 0
BBX 8 10 0 -3
BITMAP
004CFC6A
04E514E7
0C5000C4
2F0000E1
3E0003D0
1E726DA0
04CD8970
00000C30
55118C00
3CFE9100
ENDCHAR
STARTCHAR h
ENCODING 104
SWIDTH 600 0
DWIDTH 8 0
BBX 8 10 0 0
BITMAP
00970000
00C40000
00F10000
03D3BEC1
06D921D6
099000B5
0C4000E2
0F1002E0
3D0005B0
6A000880
ENDCHAR
STARTCHAR i
ENCODING 105
SWIDTH 600 0
DWIDTH 8 0
BBX 6 10 1 0
BITMAP
000B90
000C80
000000
7FFF10
002D00
006900
009600
00D300
00E512
007EE6
ENDCHAR
STARTCHAR j
ENCODING 106
SWIDTH 600 0
DWIDTH 8 0
BBX 8 13 -1 -3
BITMAP
000000B9
000000C8
00000000
001FFFF2
000002E0
000005B0
00000880
00000B50
00000E20
00002E00
00006A00
0413D500
1BED7000
ENDCHAR
STARTCHAR k
ENCODING 107
SWIDTH 600 0
DWIDTH 8 0
BBX 8 10 0 0
BITMAP
006A0000
00970000
00C40000
00F100A9
03D01C80
06A2D700
09BDD500
0CD24C00
0F100C50
3D0004D0
ENDCHAR
STARTCHAR l
ENCODING 108
SWIDTH 600 0
DWIDTH 8 0
BBX 5 10 2 0
BITMAP
EFF500
00D200
01E000
05B000
088000
0B4000
0E1000
2D0000
3E2210
0AFD30
ENDCHAR
STARTCHAR m
ENCODING 109
SWIDTH 600 0
DWIDTH 8 0
BBX 8 7 0 0
BITMAP
0B6DB6DB
0E82F74E
2E02D04C
5B05A078
880970A5
B50C40E2
E20E12E0
ENDCHAR
STARTCHAR n
ENCODING 110
SWIDTH 600 0
DWIDTH 8 0
BBX 8 7 0 0
BITMAP
04A3BEC1
07DA21D6
099000B5
0C4000E2
0F1002E0
3D0005B0
6A000880
ENDCHAR
STARTCHAR o
ENCODING 111
SWIDTH 600 0
DWIDTH 8 0
BBX 8 7 0 0
BITMAP
005CFC40
06D415E1
1E3000B5
5C0000C5
4C0002E1
1E614D70
04CFD500
ENDCHAR
STARTCHAR p
ENCODING 112
SWIDTH 600 0
DWIDTH 8 0
BBX 8 10 0 -3
BITMAP
04A6DE90
06E713E4
097000A7
0C4000B6
0F1001E2
3F613C90
6A9EE700
97000000
C4000000
E1000000
ENDCHAR
STARTCHAR q
ENCODING 113
SWIDTH 600 0
DWIDTH 8 0
BBX 8 10 0 -3
BITMAP
004CFC6A
04E514E7
0C5000C4
2E0000E1
4D0003D0
1F514DA0
06EE8970
00000C40
00000E10
00002E00
ENDCHAR
STARTCHAR r
ENCODING 114
SWIDTH 600 0
DWIDTH 8 0
BBX 7 7 1 0
BITMAP
0683CE80
099A3110
0CA00000
0E100000
2D000000
5A000000
88000000
ENDCHAR
STARTCHAR s
ENCODING 115
SWIDTH 600 0
DWIDTH 8 0
BBX 7 7 0 0
BITMAP
006DFC40
02E204B0
01E50000
003BE800
00001A80
1C511980
04BEEA10
ENDCHAR
STARTCHAR t
ENCODING 116
SWIDTH 600 0
DWIDTH 8 0
BBX 7 9 1 0
BITMAP
00590000
00950000
DFFFFF80
01E00000
04B00000
08800000
0B500000
0B912300
03DEC500
ENDCHAR
STARTCHAR u
ENCODING 117
SWIDTH 600 0
DWIDTH 8 0
BBX 8 7 0 0
BITMAP
05B00079
088000A6
0B5000D3
0E2001F0
2E0006C0
3E218C90
0AFC5760
ENDCHAR
STARTCHAR v
ENCODING 118
SWIDTH 600 0
DWIDTH 8 0
BBX 7 7 1 0
BITMAP
A60003C0
79000C40
3C006A00
0E01D200
0C387000
098D0000
05F50000
ENDCHAR
STARTCHAR w
ENCODING 119
SWIDTH 600 0
DWIDTH 8 0
BBX 9 7 0 0
BITMAP
5B01920880
5B06E30D20
5B0CA45A00
4B4A94B400
4BA486D000
3CC08B7000
3F607F1000
ENDCHAR
STARTCHAR x
ENCODING 120
SWIDTH 600 0
DWIDTH 8 0
BBX 8 7 0 0
BITMAP
02E101D5
00880C60
001D9700
000CC000
0098D300
08A06B00
6C100C50
ENDCHAR
STARTCHAR y
ENCODING 121
SWIDTH 600 0
DWIDTH 8 0
BBX 9 10 -1 -3
BITMAP
00A50004D0
0069000C40
003C006A00
000E11D200
000B487000
00079C0000
0003F40000
0006A00000
105D100000
6FC3000000
ENDCHAR
STARTCHAR z
ENCODING 122
SWIDTH 600 0
DWIDTH 8 0
BBX 8 7 0 0
BITMAP
05FFFFF6
000009A0
00009A00
00099000
00A90000
0A900000
6FFFFF90
ENDCHAR
STARTCHAR braceleft
ENCODING 123
SWIDTH 600 0
DWIDTH 8 0
BBX 8 12 1 -2
BITMAP
0001AFF1
0007A100
000A3000
000D1000
000D0000
01890000
6FD10000
02B30000
00A10000
01A00000
04A00000
02DFC000
ENDCHAR
STARTCHAR bar
ENCODING 124
SWIDTH 600 0
DWIDTH 8 0
BBX 2 14 3 -4
BITMAP
4A
4A
4A
4A
4A
4A
4A
4A
4A
4A
4A
4A
4A
4A
ENDCHAR
STARTCHAR braceright
ENCODING 125
SWIDTH 600 0
DWIDTH 8 0
BBX 7 12 0 -2
BITMAP
008FE400
00007900
00005700
00009300
0000C000
0000D300
0000AFA0
0006A200
000A3000
000D1000
006C0000
CFD40000
ENDCHAR
STARTCHAR asciitilde
ENCODING 126
SWIDTH 600 0
DWIDTH 8 0
BBX 7 2 1 4
BITMAP
3DD61A20
A33BE800
ENDCHAR
STARTCHAR uni00A0
ENCODING 160
SWIDTH 600 0
DWIDTH 8 0
BBX 1 1 0 0
BITMAP
00
ENDCHAR
STARTCHAR exclamdown
ENCODING 161
SWIDTH 600 0
DWIDTH 8 0
BBX 4 10 2 -3
BITMAP
03E5
05E3
0000
0650
0930
0D10
1E00
4C00
7900
A700
ENDCHAR
STARTCHAR cent
ENCODING 162
SWIDTH 600 0
DWIDTH 8 0
BBX 7 10 1 -1
BITMAP
0000A000
008DF900
0BA75610
4D092000
880A0000
980A0000
5D485300
08EE9100
00820000
00A00000
ENDCHAR
STARTCHAR sterling
ENCODING 163
SWIDTH 600 0
DWIDTH 8 0
BBX 8 9 0 0
BITMAP
0005DEB1
003E3067
00790000
00690000
0CFFFF30
005A0000
00960000
06A00000
8FFFFF70
ENDCHAR
STARTCHAR currency
ENCODING 164
SWIDTH 600 0
DWIDTH 8 0
BBX 8 7 0 1
BITMAP
03400007
02DBEDB7
01D515D0
069002D0
06B12B80
2BBEDC70
44000180
ENDCHAR
STARTCHAR yen
ENCODING 165
SWIDTH 600 0
DWIDTH 8 0
BBX 9 9 0 0
BITMAP
01E0001D30
009500A400
003A065000
000B260000
0EFFDFF400
0008800000
3FFFFFF000
000D400000
001F100000
ENDCHAR
STARTCHAR brokenbar
ENCODING 166
SWIDTH 600 0
DWIDTH 8 0
BBX 2 14 3 -4
BITMAP
4A
4A
4A
4A
4A
4A
12
12
4A
4A
4A
4A
4A
4A
ENDCHAR
STARTCHAR section
ENCODING 167
SWIDTH 600 0
DWIDTH 8 0
BBX 6 11 1 -1
BITMAP
007ED4
01E239
01E100
2DBC20
6904C3
5A003B
0A913D
006DE7
000780
A31A70
4DEB10
ENDCHAR
STARTCHAR dieresis
ENCODING 168
SWIDTH 600 0
DWIDTH 8 0
BBX 4 1 3 8
BITMAP
A52D
ENDCHAR
STARTCHAR copyright
ENCODING 169
SWIDTH 600 0
DWIDTH 8 0
BBX 9 9 0 0
BITMAP
002AEEA100
04C5117A00
0C17DC1B00
566A131820
81B2000910
90C4231A00
834ED38600
3C303AA000
05DFC60000
ENDCHAR
STARTCHAR ordfeminine
ENCODING 170
SWIDTH 600 0
DWIDTH 8 0
BBX 6 5 2 5
BITMAP
05DDB1
2D32D0
6602A0
791870
2DD630
ENDCHAR
STARTCHAR guillemotleft
ENCODING 171
SWIDTH 600 0
DWIDTH 8 0
BBX 7 6 1 1
BITMAP
01A00920
1B509800
B808A000
D40A7000
5B02D100
09107400
ENDCHAR
STARTCHAR logicalnot
ENCODING 172
SWIDTH 600 0
DWIDTH 8 0
BBX 7 4 1 1
BITMAP
CFFFFF30
00000A30
00000A30
00000A30
ENDCHAR
STARTCHAR uni00AD
ENCODING 173
SWIDTH 600 0
DWIDTH 8 0
BBX 7 1 1 4
BITMAP
CFFFFF30
ENDCHAR
STARTCHAR registered
ENCODING 174
SWIDTH 600 0
DWIDTH 8 0
BBX 6 6 2 4
BITMAP
04DEA0
3B3176
81FF18
844936
9414B1
2CFB20
ENDCHAR
STARTCHAR macron
ENCODING 175
SWIDTH 600 0
DWIDTH 8 0
BBX 4 1 3 8
BITMAP
AFFD
ENDCHAR
STARTCHAR degree
ENCODING 176
SWIDTH 600 0
DWIDTH 8 0
BBX 4 4 3 6
BITMAP
2CE4
A339
B167
7EA1
ENDCHAR
STARTCHAR plusminus
ENCODING 177
SWIDTH 600 0
DWIDTH 8 0
BBX 7 8 1 0
BITMAP
004A0000
004A0000
004A0000
CFFFFF30
004A0000
004A0000
00000000
CFFFFF30
ENDCHAR
STARTCHAR two.sups
ENCODING 178
SWIDTH 600 0
DWIDTH 8 0
BBX 5 6 2 5
BITMAP
02CE50
0435A0
000570
003900
069000
5FFF30
ENDCHAR
STARTCHAR three.sups
ENCODING 179
SWIDTH 600 0
DWIDTH 8 0
BBX 5 6 2 5
BITMAP
03CE60
022690
00DC10
001A40
361A50
0AEA00
ENDCHAR
STARTCHAR acute
ENCODING 180
SWIDTH 600 0
DWIDTH 8 0
BBX 3 3 4 8
BITMAP
02A0
2D60
9400
ENDCHAR
STARTCHAR uni00B5
ENCODING 181
SWIDTH 600 0
DWIDTH 8 0
BBX 9 10 -1 -3
BITMAP
005B000780
0087000A50
00B4000D20
00E1001E00
02E0006B00
04F218C800
07BED65F00
0A40000000
0D20000000
1F00000000
ENDCHAR
STARTCHAR paragraph
ENCODING 182
SWIDTH 600 0
DWIDTH 8 0
BBX 7 10 1 -1
BITMAP
02AEB880
2EFF8B50
9FFF5E20
AFFF5E00
7FFE6A00
08EB9700
0000C400
0000F100
0003D000
0006A000
ENDCHAR
STARTCHAR periodcentered
ENCODING 183
SWIDTH 600 0
DWIDTH 8 0
BBX 2 2 3 4
BITMAP
AD
CB
ENDCHAR
STARTCHAR cedilla
ENCODING 184
SWIDTH 600 0
DWIDTH 8 0
BBX 3 4 1 -4
BITMAP
0370
0AB0
03D0
8C40
ENDCHAR
STARTCHAR one.sups
ENCODING 185
SWIDTH 600 0
DWIDTH 8 0
BBX 5 6 2 5
BITMAP
03AE00
001C00
003900
006600
009400
7FFFA0
ENDCHAR
STARTCHAR ordmasculine
ENCODING 186
SWIDTH 600 0
DWIDTH 8 0
BBX 5 5 2 5
BITMAP
04CE70
1D32E0
5700D0
5916A0
1BEA10
ENDCHAR
STARTCHAR guillemotright
ENCODING 187
SWIDTH 600 0
DWIDTH 8 0
BBX 7 6 0 1
BITMAP
05603800
01D10D30
009906C0
00C709A0
0A807A00
47019000
ENDCHAR
STARTCHAR onequarter
ENCODING 188
SWIDTH 600 0
DWIDTH 8 0
BBX 10 9 -1 0
BITMAP
02BC000075
0039000780
0076007600
00A3001000
0001000000
0049007400
0690083B00
29005FFF60
0000003800
ENDCHAR
STARTCHAR onehalf
ENCODING 189
SWIDTH 600 0
DWIDTH 8 0
BBX 10 9 -1 0
BITMAP
02BC000075
0039000780
0076007600
00A3001000
000103DD20
0049052A40
0690002A00
2900049100
00003FFF30
ENDCHAR
STARTCHAR threequarters
ENCODING 190
SWIDTH 600 0
DWIDTH 8 0
BBX 10 10 -1 0
BITMAP
01BE400000
0238600075
00AC000780
051A407600
07EB101000
0001000000
0049007400
0690083B00
29005FFF60
0000003800
ENDCHAR
STARTCHAR questiondown
ENCODING 191
SWIDTH 600 0
DWIDTH 8 0
BBX 6 10 0 -3
BITMAP
0001D8
0002E7
000000
0002C0
000A60
01A800
0A8000
2E0000
2F3185
07EE80
ENDCHAR
STARTCHAR Agrave
ENCODING 192
SWIDTH 600 0
DWIDTH 8 0
BBX 8 12 -1 0
BITMAP
00001B20
000003B1
00000000
000009E0
00003BC1
0000B3B3
00049095
000C1077
006FFFF9
01D2005B
0890003D
1E20002F
ENDCHAR
STARTCHAR Aacute
ENCODING 193
SWIDTH 600 0
DWIDTH 8 0
BBX 9 12 -1 0
BITMAP
0000002B20
000003B300
0000000000
000009E000
00003BC100
0000B3B300
0004909500
000C107700
006FFFF900
01D2005B00
0890003D00
1E20002F00
ENDCHAR
STARTCHAR Acircumflex
ENCODING 194
SWIDTH 600 0
DWIDTH 8 0
BBX 9 12 -1 0
BITMAP
000008D900
0000760830
0000000000
000009E000
00003BC100
0000B3B300
0004909500
000C107700
006FFFF900
01D2005B00
0890003D00
1E20002F00
ENDCHAR
STARTCHAR Atilde
ENCODING 195
SWIDTH 600 0
DWIDTH 8 0
BBX 9 13 -1 0
BITMAP
0000020010
00007EB2C0
0000B09E50
0000000000
000009E000
00003BC100
0000B3B300
0004909500
000C107700
006FFFF900
01D2005B00
0890003D00
1E20002F00
ENDCHAR
STARTCHAR Adieresis
ENCODING 196
SWIDTH 600 0
DWIDTH 8 0
BBX 9 11 -1 0
BITMAP
0000490A40
0000000000
000009E000
00003BC100
0000B3B300
0004909500
000C107700
006FFFF900
01D2005B00
0890003D00
1E20002F00
ENDCHAR
STARTCHAR Aring
ENCODING 197
SWIDTH 600 0
DWIDTH 8 0
BBX 8 13 -1 0
BITMAP
000005E9
00000B2B
000007E6
00000000
000009E0
00003BC1
0000B3B3
00049095
000C1077
006FFFF9
01D2005B
0890003D
1E20002F
ENDCHAR
STARTCHAR AE
ENCODING 198
SWIDTH 600 0
DWIDTH 8 0
BBX 10 9 -1 0
BITMAP
000009FFFF
00003BD200
0000C4E000
000765B000
002A08FFA0
00BFFF5000
05900E2000
1D202D0000
88005FFF70
ENDCHAR
STARTCHAR Ccedilla
ENCODING 199
SWIDTH 600 0
DWIDTH 8 0
BBX 7 13 1 -4
BITMAP
004BED40
06E513B0
2E300000
89000000
C5000000
D4000000
C6000000
6D414800
07DFC300
00730000
00D70000
007A0000
0BB20000
ENDCHAR
STARTCHAR Egrave
ENCODING 200
SWIDTH 600 0
DWIDTH 8 0
BBX 9 12 0 0
BITMAP
0000780000
0000086000
0000000000
006FFFFF40
0097000000
00C4000000
01F1000000
04FFFFB000
07A0000000
0A70000000
0D30000000
1FFFFFB000
ENDCHAR
STARTCHAR Eacute
ENCODING 201
SWIDTH 600 0
DWIDTH 8 0
BBX 9 12 0 0
BITMAP
0000007900
0000097100
0000000000
006FFFFF40
0097000000
00C4000000
01F1000000
04FFFFB000
07A0000000
0A70000000
0D30000000
1FFFFFB000
ENDCHAR
STARTCHAR Ecircumflex
ENCODING 202
SWIDTH 600 0
DWIDTH 8 0
BBX 9 12 0 0
BITMAP
00003CD200
0001A23900
0000000000
006FFFFF40
0097000000
00C4000000
01F1000000
04FFFFB000
07A0000000
0A70000000
0D30000000
1FFFFFB000
ENDCHAR
STARTCHAR Edieresis
ENCODING 203
SWIDTH 600 0
DWIDTH 8 0
BBX 9 11 0 0
BITMAP
0000B23A00
0000000000
006FFFFF40
0097000000
00C4000000
01F1000000
04FFFFB000
07A0000000
0A70000000
0D30000000
1FFFFFB000
ENDCHAR
STARTCHAR Igrave
ENCODING 204
SWIDTH 600 0
DWIDTH 8 0
BBX 8 12 0 0
BITMAP
0001B200
00003B10
00000000
00CFFFFE
0000A600
0000D300
0002F000
0005C000
00088000
000B5000
000E2000
6FFFFF40
ENDCHAR
STARTCHAR Iacute
ENCODING 205
SWIDTH 600 0
DWIDTH 8 0
BBX 8 12 0 0
BITMAP
000002B2
00003B30
00000000
00CFFFFE
0000A600
0000D300
0002F000
0005C000
00088000
000B5000
000E2000
6FFFFF40
ENDCHAR
STARTCHAR Icircumflex
ENCODING 206
SWIDTH 600 0
DWIDTH 8 0
BBX 8 12 0 0
BITMAP
00008D90
00076083
00000000
00CFFFFE
0000A600
0000D300
0002F000
0005C000
00088000
000B5000
000E2000
6FFFFF40
ENDCHAR
STARTCHAR Idieresis
ENCODING 207
SWIDTH 600 0
DWIDTH 8 0
BBX 8 11 0 0
BITMAP
000490A4
00000000
00CFFFFE
0000A600
0000D300
0002F000
0005C000
00088000
000B5000
000E2000
6FFFFF40
ENDCHAR
STARTCHAR Eth
ENCODING 208
SWIDTH 600 0
DWIDTH 8 0
BBX 8 9 0 0
BITMAP
00BFEC60
00E214E6
02E0005D
05B0002F
8FFF903E
0B60007B
0E2001E5
2D015D90
6FFEC600
ENDCHAR
STARTCHAR Ntilde
ENCODING 209
SWIDTH 600 0
DWIDTH 8 0
BBX 9 13 0 0
BITMAP
0000200100
0007EB2C00
000B09E500
0000000000
00E7000E10
02DC002D00
059D206A00
0878609700
0B43B0C400
0E10D1E100
2D0097D000
5A004DA000
87000E7000
ENDCHAR
STARTCHAR Ograve
ENCODING 210
SWIDTH 600 0
DWIDTH 8 0
BBX 8 12 0 0
BITMAP
0001B200
00003B10
00000000
002AED80
02E812C7
0990005C
1E10003E
5C00005D
6B000099
4C0002E3
1E613D80
03CED600
ENDCHAR
STARTCHAR Oacute
ENCODING 211
SWIDTH 600 0
DWIDTH 8 0
BBX 8 12 0 0
BITMAP
000002B2
00003B30
00000000
002AED80
02E812C7
0990005C
1E10003E
5C00005D
6B000099
4C0002E3
1E613D80
03CED600
ENDCHAR
STARTCHAR Ocircumflex
ENCODING 212
SWIDTH 600 0
DWIDTH 8 0
BBX 8 12 0 0
BITMAP
00008D90
00076083
00000000
002AED80
02E812C7
0990005C
1E10003E
5C00005D
6B000099
4C0002E3
1E613D80
03CED600
ENDCHAR
STARTCHAR Otilde
ENCODING 213
SWIDTH 600 0
DWIDTH 8 0
BBX 8 13 0 0
BITMAP
00002001
0007EB2C
000B09E5
00000000
002AED80
02E812C7
0990005C
1E10003E
5C00005D
6B000099
4C0002E3
1E613D80
03CED600
ENDCHAR
STARTCHAR Odieresis
ENCODING 214
SWIDTH 600 0
DWIDTH 8 0
BBX 8 11 0 0
BITMAP
000490A4
00000000
002AED80
02E812C7
0990005C
1E10003E
5C00005D
6B000099
4C0002E3
1E613D80
03CED600
ENDCHAR
STARTCHAR multiply
ENCODING 215
SWIDTH 600 0
DWIDTH 8 0
BBX 6 6 1 2
BITMAP
450029
1C51C3
01CC40
01CD40
1C52C3
460029
ENDCHAR
STARTCHAR Oslash
ENCODING 216
SWIDTH 600 0
DWIDTH 8 0
BBX 10 11 -1 -1
BITMAP
0000000001
0002AEE8A7
002D712DB0
0098007CC0
01E106B3E0
05C05C14D0
06A4C10990
05DD202E30
03F713D800
1C6CED6000
0200000000
ENDCHAR
STARTCHAR Ugrave
ENCODING 217
SWIDTH 600 0
DWIDTH 8 0
BBX 9 12 0 0
BITMAP
0001B20000
00003B1000
0000000000
00F1000E20
03D0002E00
06A0005B00
0A70008800
0D4000C400
0F1001E100
1F0005C000
0D813D5000
03CED60000
ENDCHAR
STARTCHAR Uacute
ENCODING 218
SWIDTH 600 0
DWIDTH 8 0
BBX 9 12 0 0
BITMAP
000002B200
00003B3000
0000000000
00F1000E20
03D0002E00
06A0005B00
0A70008800
0D4000C400
0F1001E100
1F0005C000
0D813D5000
03CED60000
ENDCHAR
STARTCHAR Ucircumflex
ENCODING 219
SWIDTH 600 0
DWIDTH 8 0
BBX 9 12 0 0
BITMAP
00008D9000
0007608300
0000000000
00F1000E20
03D0002E00
06A0005B00
0A70008800
0D4000C400
0F1001E100
1F0005C000
0D813D5000
03CED60000
ENDCHAR
STARTCHAR Udieresis
ENCODING 220
SWIDTH 600 0
DWIDTH 8 0
BBX 9 11 0 0
BITMAP
000490A400
0000000000
00F1000E20
03D0002E00
06A0005B00
0A70008800
0D4000C400
0F1001E100
1F0005C000
0D813D5000
03CED60000
ENDCHAR
STARTCHAR Yacute
ENCODING 221
SWIDTH 600 0
DWIDTH 8 0
BBX 8 12 1 0
BITMAP
00004B10
0005A200
00000000
5C0000B6
1E2007B0
0A603D10
05B0C500
01E89000
00BD1000
00A60000
00D30000
02E00000
ENDCHAR
STARTCHAR Thorn
ENCODING 222
SWIDTH 600 0
DWIDTH 8 0
BBX 8 9 0 0
BITMAP
00A60000
00DFFEA1
01E002C8
04B0006B
07900089
0A6016E2
0DFFEA30
1F000000
4C000000
ENDCHAR
STARTCHAR germandbls
ENCODING 223
SWIDTH 600 0
DWIDTH 8 0
BBX 8 10 0 0
BITMAP
0008EE70
008B22E1
00E201E1
03D01B50
07A09600
0A70A900
0D401AB0
1F1000B5
4D0612D4
7908EE80
ENDCHAR
STARTCHAR agrave
ENCODING 224
SWIDTH 600 0
DWIDTH 8 0
BBX 8 11 0 0
BITMAP
0001B100
00008A00
00000A20
00000000
004CFC6A
04E514E7
0C5000B4
2E0000E1
4D0003D0
1F514DA0
06EE8770
ENDCHAR
STARTCHAR aacute
ENCODING 225
SWIDTH 600 0
DWIDTH 8 0
BBX 8 11 0 0
BITMAP
000001B1
00001C90
00007600
00000000
004CFC6A
04E514E7
0C5000B4
2E0000E1
4D0003D0
1F514DA0
06EE8770
ENDCHAR
STARTCHAR acircumflex
ENCODING 226
SWIDTH 600 0
DWIDTH 8 0
BBX 8 10 0 0
BITMAP
00009D70
000940A2
00000000
004CFC6A
04E514E7
0C5000B4
2E0000E1
4D0003D0
1F514DA0
06EE8770
ENDCHAR
STARTCHAR atilde
ENCODING 227
SWIDTH 600 0
DWIDTH 8 0
BBX 8 11 0 0
BITMAP
00002001
0008B92C
000B08E4
00000000
004CFC6A
04E514E7
0C5000B4
2E0000E1
4D0003D0
1F514DA0
06EE8770
ENDCHAR
STARTCHAR adieresis
ENCODING 228
SWIDTH 600 0
DWIDTH 8 0
BBX 8 9 0 0
BITMAP
000780C2
00000000
004CFC6A
04E514E7
0C5000B4
2E0000E1
4D0003D0
1F514DA0
06EE8770
ENDCHAR
STARTCHAR aring
ENCODING 229
SWIDTH 600 0
DWIDTH 8 0
BBX 8 12 0 0
BITMAP
00007E70
0000C2C0
0001B2B0
0000AE30
00000000
004CFC6A
04E514E7
0C5000B4
2E0000E1
4D0003D0
1F514DA0
06EE8770
ENDCHAR
STARTCHAR ae
ENCODING 230
SWIDTH 600 0
DWIDTH 8 0
BBX 10 7 -1 0
BITMAP
018ED39EB0
01616E71A5
00016C44A5
03BDDDCCC2
1E40850000
4C14DA1320
1CEA2AEC30
ENDCHAR
STARTCHAR ccedilla
ENCODING 231
SWIDTH 600 0
DWIDTH 8 0
BBX 7 11 1 -4
BITMAP
02AEE910
2E712950
B7000000
F2000000
F2000000
AB216800
19EEA100
00910000
03E40000
01A60000
1E900000
ENDCHAR
STARTCHAR egrave
ENCODING 232
SWIDTH 600 0
DWIDTH 8 0
BBX 8 11 0 0
BITMAP
0001B100
0000A900
00001B10
00000000
003BFD50
03E613E1
0C6000A4
1FFFFFF4
1F000000
0C811670
02BEE910
ENDCHAR
STARTCHAR eacute
ENCODING 233
SWIDTH 600 0
DWIDTH 8 0
BBX 8 11 0 0
BITMAP
000001B1
00002D80
00008500
00000000
003BFD50
03E613E1
0C6000A4
1FFFFFF4
1F000000
0C811670
02BEE910
ENDCHAR
STARTCHAR ecircumflex
ENCODING 234
SWIDTH 600 0
DWIDTH 8 0
BBX 8 10 0 0
BITMAP
0001AD60
000941A1
00000000
003BFD50
03E613E1
0C6000A4
1FFFFFF4
1F000000
0C811670
02BEE910
ENDCHAR
STARTCHAR edieresis
ENCODING 235
SWIDTH 600 0
DWIDTH 8 0
BBX 8 9 0 0
BITMAP
000861D1
00000000
003BFD50
03E613E1
0C6000A4
1FFFFFF4
1F000000
0C811670
02BEE910
ENDCHAR
STARTCHAR igrave
ENCODING 236
SWIDTH 600 0
DWIDTH 8 0
BBX 6 11 1 0
BITMAP
005800
002D40
000390
000000
7FFF10
002D00
006900
009600
00D300
00E512
007EE6
ENDCHAR
STARTCHAR iacute
ENCODING 237
SWIDTH 600 0
DWIDTH 8 0
BBX 6 11 1 0
BITMAP
000058
0005D3
000B20
000000
7FFF10
002D00
006900
009600
00D300
00E512
007EE6
ENDCHAR
STARTCHAR icircumflex
ENCODING 238
SWIDTH 600 0
DWIDTH 8 0
BBX 6 10 1 0
BITMAP
003CD2
029139
000000
7FFF10
002D00
006900
009600
00D300
00E512
007EE6
ENDCHAR
STARTCHAR idieresis
ENCODING 239
SWIDTH 600 0
DWIDTH 8 0
BBX 6 9 1 0
BITMAP
00D25A
000000
7FFF10
002D00
006900
009600
00D300
00E512
007EE6
ENDCHAR
STARTCHAR eth
ENCODING 240
SWIDTH 600 0
DWIDTH 8 0
BBX 9 10 0 0
BITMAP
0004B22810
00009EC400
000A97B000
000000D400
018DEBB700
0BA213D800
4C0000A600
6A0001E200
3E413C8000
05DFD60000
ENDCHAR
STARTCHAR ntilde
ENCODING 241
SWIDTH 600 0
DWIDTH 8 0
BBX 8 11 0 0
BITMAP
00002001
0009B92B
001B08E4
00000000
04A3BEC1
07DA21D6
099000B5
0C4000E2
0F1002E0
3D0005B0
6A000880
ENDCHAR
STARTCHAR ograve
ENCODING 242
SWIDTH 600 0
DWIDTH 8 0
BBX 8 11 0 0
BITMAP
0002B000
0000B700
00001B00
00000000
005CFC40
06D415E1
1E3000B5
5C0000C5
4C0002E1
1E614D70
04CFD500
ENDCHAR
STARTCHAR oacute
ENCODING 243
SWIDTH 600 0
DWIDTH 8 0
BBX 8 11 0 0
BITMAP
000002A0
00002D60
00009400
00000000
005CFC40
06D415E1
1E3000B5
5C0000C5
4C0002E1
1E614D70
04CFD500
ENDCHAR
STARTCHAR ocircumflex
ENCODING 244
SWIDTH 600 0
DWIDTH 8 0
BBX 8 10 0 0
BITMAP
0001BD40
000A31A0
00000000
005CFC40
06D415E1
1E3000B5
5C0000C5
4C0002E1
1E614D70
04CFD500
ENDCHAR
STARTCHAR otilde
ENCODING 245
SWIDTH 600 0
DWIDTH 8 0
BBX 8 11 0 0
BITMAP
00002001
000BC749
00380BD2
00000000
005CFC40
06D415E1
1E3000B5
5C0000C5
4C0002E1
1E614D70
04CFD500
ENDCHAR
STARTCHAR odieresis
ENCODING 246
SWIDTH 600 0
DWIDTH 8 0
BBX 8 9 0 0
BITMAP
000A52D0
00000000
005CFC40
06D415E1
1E3000B5
5C0000C5
4C0002E1
1E614D70
04CFD500
ENDCHAR
STARTCHAR divide
ENCODING 247
SWIDTH 600 0
DWIDTH 8 0
BBX 7 5 1 2
BITMAP
005B0000
00000000
CFFFFF30
00000000
005B0000
ENDCHAR
STARTCHAR oslash
ENCODING 248
SWIDTH 600 0
DWIDTH 8 0
BBX 8 9 0 -1
BITMAP
00000001
005CFC8B
06D419F2
1E308BB5
5C09A0B5
5CA802E1
2FA14D70
B8CFD500
10000000
ENDCHAR
STARTCHAR ugrave
ENCODING 249
SWIDTH 600 0
DWIDTH 8 0
BBX 8 11 0 0
BITMAP
0002B000
0000B700
00001B00
00000000
05B00079
088000A6
0B5000D3
0E2001F0
2E0006C0
3E218C90
0AFC5760
ENDCHAR
STARTCHAR uacute
ENCODING 250
SWIDTH 600 0
DWIDTH 8 0
BBX 8 11 0 0
BITMAP
000002A0
00003D60
00009400
00000000
05B00079
088000A6
0B5000D3
0E2001F0
2E0006C0
3E218C90
0AFC5760
ENDCHAR
STARTCHAR ucircumflex
ENCODING 251
SWIDTH 600 0
DWIDTH 8 0
BBX 8 10 0 0
BITMAP
0001BD40
001A31A0
00000000
05B00079
088000A6
0B5000D3
0E2001F0
2E0006C0
3E218C90
0AFC5760
ENDCHAR
STARTCHAR udieresis
ENCODING 252
SWIDTH 600 0
DWIDTH 8 0
BBX 8 9 0 0
BITMAP
000A52D0
00000000
05B00079
088000A6
0B5000D3
0E2001F0
2E0006C0
3E218C90
0AFC5760
ENDCHAR
STARTCHAR yacute
ENCODING 253
SWIDTH 600 0
DWIDTH 8 0
BBX 9 14 -1 -3
BITMAP
0000003A00
000003E500
00000A3000
0000000000
00A50004D0
0069000C40
003C006A00
000E11D200
000B487000
00079C0000
0003F40000
0006A00000
105D100000
6FC3000000
ENDCHAR
STARTCHAR thorn
ENCODING 254
SWIDTH 600 0
DWIDTH 8 0
BBX 8 13 0 -3
BITMAP
00970000
00C40000
00F10000
03C6DE90
06E713E4
097000A7
0C4000B6
0E1001E2
3F613C90
6A9EE700
97000000
C4000000
E1000000
ENDCHAR
STARTCHAR ydieresis
ENCODING 255
SWIDTH 600 0
DWIDTH 8 0
BBX 9 12 -1 -3
BITMAP
0000B33C00
0000000000
00A50004D0
0069000C40
003C006A00
000E11D200
000B487000
00079C0000
0003F40000
0006A00000
105D100000
6FC3000000
ENDCHAR
STARTCHAR Amacron
ENCODING 256
SWIDTH 600 0
DWIDTH 8 0
BBX 9 11 -1 0
BITMAP
00005FFF40
0000000000
000009E000
00003BC100
0000B3B300
0004909500
000C107700
006FFFF900
01D2005B00
0890003D00
1E20002F00
ENDCHAR
STARTCHAR amacron
ENCODING 257
SWIDTH 600 0
DWIDTH 8 0
BBX 8 9 0 0
BITMAP
0007FFF1
00000000
004CFC6A
04E514E7
0C5000B4
2E0000E1
4D0003D0
1F514DA0
06EE8770
ENDCHAR
STARTCHAR Abreve
ENCODING 258
SWIDTH 600 0
DWIDTH 8 0
BBX 9 12 -1 0
BITMAP
0000670770
00001CEA00
0000000000
000009E000
00003BC100
0000B3B300
0004909500
000C107700
006FFFF900
01D2005B00
0890003D00
1E20002F00
ENDCHAR
STARTCHAR abreve
ENCODING 259
SWIDTH 600 0
DWIDTH 8 0
BBX 8 11 0 0
BITMAP
00000001
00095178
0003DE90
00000000
004CFC6A
04E514E7
0C5000B4
2E0000E1
4D0003D0
1F514DA0
06EE8770
ENDCHAR
STARTCHAR Aogonek
ENCODING 260
SWIDTH 600 0
DWIDTH 8 0
BBX 8 12 -1 -3
BITMAP
000009E0
00003BC1
0000B3B3
00049095
000C1077
006FFFF9
01D2005B
0890003D
1E20002F
00000074
00000491
000004EC
ENDCHAR
STARTCHAR aogonek
ENCODING 261
SWIDTH 600 0
DWIDTH 8 0
BBX 8 10 0 -3
BITMAP
004CFC6A
04E514E7
0C5000B4
2E0000E1
4D0003D0
1F514DA0
06EE8770
00004610
0001B110
0001CE30
ENDCHAR
STARTCHAR Cacute
ENCODING 262
SWIDTH 600 0
DWIDTH 8 0
BBX 7 12 1 0
BITMAP
00000790
00009710
00000000
004BED40
06E513B0
2E300000
89000000
C5000000
D4000000
C6000000
6D414800
07DFC300
ENDCHAR
STARTCHAR cacute
ENCODING 263
SWIDTH 600 0
DWIDTH 8 0
BBX 7 11 1 0
BITMAP
00000A30
0000AA10
00058000
00000000
02AEE910
2E712950
B7000000
F2000000
F2000000
AB216800
19EEA100
ENDCHAR
STARTCHAR Ccircumflex
ENCODING 264
SWIDTH 600 0
DWIDTH 8 0
BBX 7 12 1 0
BITMAP
0003CD20
001A2390
00000000
004BED40
06E513B0
2E300000
89000000
C5000000
D4000000
C6000000
6D414800
07DFC300
ENDCHAR
STARTCHAR ccircumflex
ENCODING 265
SWIDTH 600 0
DWIDTH 8 0
BBX 7 10 1 0
BITMAP
0008C900
00760840
00000000
02AEE910
2E712950
B7000000
F2000000
F2000000
AB216800
19EEA100
ENDCHAR
STARTCHAR Cdotaccent
ENCODING 266
SWIDTH 600 0
DWIDTH 8 0
BBX 7 11 1 0
BITMAP
00008700
00000000
004BED40
06E513B0
2E300000
89000000
C5000000
D4000000
C6000000
6D414800
07DFC300
ENDCHAR
STARTCHAR cdotaccent
ENCODING 267
SWIDTH 600 0
DWIDTH 8 0
BBX 7 10 1 0
BITMAP
0003E300
0004E300
00000000
02AEE910
2E712950
B7000000
F2000000
F2000000
AB216800
19EEA100
ENDCHAR
STARTCHAR Ccaron
ENCODING 268
SWIDTH 600 0
DWIDTH 8 0
BBX 8 12 1 0
BITMAP
000922A1
0002DC20
00000000
004BED40
06E513B0
2E300000
89000000
C5000000
D4000000
C6000000
6D414800
07DFC300
ENDCHAR
STARTCHAR ccaron
ENCODING 269
SWIDTH 600 0
DWIDTH 8 0
BBX 7 10 1 0
BITMAP
00480670
000AD800
00000000
02AEE910
2E712950
B7000000
F2000000
F2000000
AB216800
19EEA100
ENDCHAR
STARTCHAR Dcaron
ENCODING 270
SWIDTH 600 0
DWIDTH 8 0
BBX 8 12 0 0
BITMAP
00057076
0000AD70
00000000
00EFEB40
02E016E3
06B00089
0980005B
0C50006B
0E1000A8
3D0003F2
6A016E60
9FFEB400
ENDCHAR
STARTCHAR dcaron
ENCODING 271
SWIDTH 600 0
DWIDTH 8 0
BBX 11 12 0 0
BITMAP
000000000E10
000000001D00
0000003D4900
0000007A6500
000000A70000
006DE8C40000
06D318F10000
1E3003D00000
5C0007A00000
6B000A700000
4E317F400000
09ED5E100000
ENDCHAR
STARTCHAR Dcroat
ENCODING 272
SWIDTH 600 0
DWIDTH 8 0
BBX 8 9 0 0
BITMAP
00BFEC60
00E214E6
02E0005D
05B0002F
8FFF903E
0B60007B
0E2001E5
2D015D90
6FFEC600
ENDCHAR
STARTCHAR dcroat
ENCODING 273
SWIDTH 600 0
DWIDTH 8 0
BBX 9 10 0 0
BITMAP
0000000D30
00006CCFE0
0000004C00
005DFB8900
05E415F600
0D4000D300
4D0001F100
4C0005C000
2F415D9000
06EE886000
ENDCHAR
STARTCHAR Emacron
ENCODING 274
SWIDTH 600 0
DWIDTH 8 0
BBX 9 11 0 0
BITMAP
0000DFFB00
0000000000
006FFFFF40
0097000000
00C4000000
01F1000000
04FFFFB000
07A0000000
0A70000000
0D30000000
1FFFFFB000
ENDCHAR
STARTCHAR emacron
ENCODING 275
SWIDTH 600 0
DWIDTH 8 0
BBX 8 9 0 0
BITMAP
0009FFF0
00000000
003BFD50
03E613E1
0C6000A4
1FFFFFF4
1F000000
0C811670
02BEE910
ENDCHAR
STARTCHAR Ebreve
ENCODING 276
SWIDTH 600 0
DWIDTH 8 0
BBX 9 12 0 0
BITMAP
0000C12C00
00007ED400
0000000000
006FFFFF40
0097000000
00C4000000
01F1000000
04FFFFB000
07A0000000
0A70000000
0D30000000
1FFFFFB000
ENDCHAR
STARTCHAR ebreve
ENCODING 277
SWIDTH 600 0
DWIDTH 8 0
BBX 8 11 0 0
BITMAP
00010000
000B4186
0004DE80
00000000
003BFD50
03E613E1
0C6000A4
1FFFFFF4
1F000000
0C811670
02BEE910
ENDCHAR
STARTCHAR Edotaccent
ENCODING 278
SWIDTH 600 0
DWIDTH 8 0
BBX 9 11 0 0
BITMAP
0000097000
0000000000
006FFFFF40
0097000000
00C4000000
01F1000000
04FFFFB000
07A0000000
0A70000000
0D30000000
1FFFFFB000
ENDCHAR
STARTCHAR edotaccent
ENCODING 279
SWIDTH 600 0
DWIDTH 8 0
BBX 8 10 0 0
BITMAP
00006D10
00007D00
00000000
003BFD50
03E613E1
0C6000A4
1FFFFFF4
1F000000
0C811670
02BEE910
ENDCHAR
STARTCHAR Eogonek
ENCODING 280
SWIDTH 600 0
DWIDTH 8 0
BBX 9 12 0 -3
BITMAP
006FFFFF40
0097000000
00C4000000
01F1000000
04FFFFB000
07A0000000
0A70000000
0D30000000
1FFFFFB000
0000561000
0001C11000
0001CE3000
ENDCHAR
STARTCHAR eogonek
ENCODING 281
SWIDTH 600 0
DWIDTH 8 0
BBX 8 10 0 -3
BITMAP
003BFD50
03E613E1
0C6000A4
1FFFFFF4
1F000000
0C811670
02BEEB10
00017000
00076100
0005EA00
ENDCHAR
STARTCHAR Ecaron
ENCODING 282
SWIDTH 600 0
DWIDTH 8 0
BBX 9 12 0 0
BITMAP
0000922A10
00002DC200
0000000000
006FFFFF40
0097000000
00C4000000
01F1000000
04FFFFB000
07A0000000
0A70000000
0D30000000
1FFFFFB000
ENDCHAR
STARTCHAR ecaron
ENCODING 283
SWIDTH 600 0
DWIDTH 8 0
BBX 8 10 0 0
BITMAP
00075084
0001CC50
00000000
003BFD50
03E613E1
0C6000A4
1FFFFFF4
1F000000
0C811670
02BEE910
ENDCHAR
STARTCHAR Gcircumflex
ENCODING 284
SWIDTH 600 0
DWIDTH 8 0
BBX 8 12 0 0
BITMAP
00004CD1
00039148
00000000
0006CFC3
009D404A
05D10000
0C600000
1F206FF8
2F0000A5
0F3000D2
09C215E0
019DFB30
ENDCHAR
STARTCHAR gcircumflex
ENCODING 285
SWIDTH 600 0
DWIDTH 8 0
BBX 8 13 0 -3
BITMAP
00009D70
000940A2
00000000
004CFC6A
04E514E7
0C5000C4
2F0000E1
3E0003D0
1E726DA0
04CD8970
00000C30
55118C00
3CFE9100
ENDCHAR
STARTCHAR Gbreve
ENCODING 286
SWIDTH 600 0
DWIDTH 8 0
BBX 8 12 0 0
BITMAP
0001B13B
00009EC3
00000000
0006CFC3
009D404A
05D10000
0C600000
1F206FF8
2F0000A5
0F3000D2
09C215E0
019DFB30
ENDCHAR
STARTCHAR gbreve
ENCODING 287
SWIDTH 600 0
DWIDTH 8 0
BBX 8 14 0 -3
BITMAP
00000001
00095178
0003DE90
00000000
004CFC6A
04E514E7
0C5000C4
2F0000E1
3E0003D0
1E726DA0
04CD8970
00000C30
55118C00
3CFE9100
ENDCHAR
STARTCHAR Gdotaccent
ENCODING 288
SWIDTH 600 0
DWIDTH 8 0
BBX 8 11 0 0
BITMAP
00000B50
00000000
0006CFC3
009D404A
05D10000
0C600000
1F206FF8
2F0000A5
0F3000D2
09C215E0
019DFB30
ENDCHAR
STARTCHAR gdotaccent
ENCODING 289
SWIDTH 600 0
DWIDTH 8 0
BBX 8 13 0 -3
BITMAP
00005E20
00006D10
00000000
004CFC6A
04E514E7
0C5000C4
2F0000E1
3E0003D0
1E726DA0
04CD8970
00000C30
55118C00
3CFE9100
ENDCHAR
STARTCHAR uni0122
ENCODING 290
SWIDTH 600 0
DWIDTH 8 0
BBX 8 12 0 -3
BITMAP
0006CFC3
009D404A
05D10000
0C600000
1F206FF8
2F0000A5
0F3000D2
09C215E0
019DFB30
00000000
000AA000
009D7000
ENDCHAR
STARTCHAR uni0123
ENCODING 291
SWIDTH 600 0
DWIDTH 8 0
BBX 8 13 0 -3
BITMAP
00001980
00008710
00004600
004CFC6A
04E514E7
0C5000C4
2F0000E1
3E0003D0
1E726DA0
04CD8970
00000C30
55118C00
3CFE9100
ENDCHAR
STARTCHAR Hcircumflex
ENCODING 292
SWIDTH 600 0
DWIDTH 8 0
BBX 9 12 0 0
BITMAP
00008D9000
0007608300
0000000000
00F1000E20
03D0002E00
06A0005B00
0970008800
0CFFFFF500
1F2000E200
4D0002E000
7A0005A000
A700097000
ENDCHAR
STARTCHAR hcircumflex
ENCODING 293
SWIDTH 600 0
DWIDTH 8 0
BBX 8 13 0 0
BITMAP
00AD7000
0940A100
00000000
00970000
00C40000
00F10000
03D3BEC1
06D921D6
099000B5
0C4000E2
0F1002E0
3D0005B0
6A000880
ENDCHAR
STARTCHAR Hbar
ENCODING 294
SWIDTH 600 0
DWIDTH 8 0
BBX 9 9 0 0
BITMAP
01E1001E10
4FFFFFFFC0
0790006A00
0A70008700
0DFFFFF400
1F2000E100
4D0002D000
7A0005A000
A700097000
ENDCHAR
STARTCHAR hbar
ENCODING 295
SWIDTH 600 0
DWIDTH 8 0
BBX 8 10 0 0
BITMAP
00970000
0CFFFF40
00F10000
03C3BEC1
06D921D5
099000C5
0C4000E2
0F1002E0
3D0005B0
6A000880
ENDCHAR
STARTCHAR Itilde
ENCODING 296
SWIDTH 600 0
DWIDTH 8 0
BBX 8 13 0 0
BITMAP
00002001
0007EB2C
000B09E5
00000000
00CFFFFE
0000A600
0000D300
0002F000
0005C000
00088000
000B5000
000E2000
6FFFFF40
ENDCHAR
STARTCHAR itilde
ENCODING 297
SWIDTH 600 0
DWIDTH 8 0
BBX 7 11 1 0
BITMAP
00110010
01CC4850
0652DB00
00000000
7FFF1000
002D0000
00690000
00960000
00D30000
00E51200
007EE600
ENDCHAR
STARTCHAR Imacron
ENCODING 298
SWIDTH 600 0
DWIDTH 8 0
BBX 8 11 0 0
BITMAP
0005FFF4
00000000
00CFFFFE
0000A600
0000D300
0002F000
0005C000
00088000
000B5000
000E2000
6FFFFF40
ENDCHAR
STARTCHAR imacron
ENCODING 299
SWIDTH 600 0
DWIDTH 8 0
BBX 6 9 1 0
BITMAP
00EFF9
000000
7FFF10
002D00
006900
009600
00D300
00E512
007EE6
ENDCHAR
STARTCHAR Ibreve
ENCODING 300
SWIDTH 600 0
DWIDTH 8 0
BBX 8 12 0 0
BITMAP
00067077
0001CEA0
00000000
00CFFFFE
0000A600
0000D300
0002F000
0005C000
00088000
000B5000
000E2000
6FFFFF40
ENDCHAR
STARTCHAR ibreve
ENCODING 301
SWIDTH 600 0
DWIDTH 8 0
BBX 7 11 1 0
BITMAP
00100100
01C12C10
008ED400
00000000
7FFF1000
002D0000
00690000
00960000
00D30000
00E51200
007EE600
ENDCHAR
STARTCHAR Iogonek
ENCODING 302
SWIDTH 600 0
DWIDTH 8 0
BBX 8 12 0 -3
BITMAP
00CFFFFE
0000A600
0000D300
0002F000
0005C000
00088000
000B5000
000E2000
6FFFFF40
00740000
03A10000
02DD1000
ENDCHAR
STARTCHAR iogonek
ENCODING 303
SWIDTH 600 0
DWIDTH 8 0
BBX 6 13 1 -3
BITMAP
000B90
000C80
000000
7FFF10
002D00
006900
009600
00D300
00E512
007EE6
000720
005910
003DC1
ENDCHAR
STARTCHAR Idotaccent
ENCODING 304
SWIDTH 600 0
DWIDTH 8 0
BBX 8 11 0 0
BITMAP
00002D10
00000000
00CFFFFE
0000A600
0000D300
0002F000
0005C000
00088000
000B5000
000E2000
6FFFFF40
ENDCHAR
STARTCHAR dotlessi
ENCODING 305
SWIDTH 600 0
DWIDTH 8 0
BBX 6 7 1 0
BITMAP
7FFF10
002D00
006900
009600
00D300
00E512
007EE6
ENDCHAR
STARTCHAR IJ
ENCODING 306
SWIDTH 600 0
DWIDTH 8 0
BBX 8 11 0 -2
BITMAP
00A6004C
00D30079
01F100B6
04C000E3
079002F0
0A6005C0
0D300890
1F000B50
4C000E20
00015D00
000CE400
ENDCHAR
STARTCHAR ij
ENCODING 307
SWIDTH 600 0
DWIDTH 8 0
BBX 7 13 1 -3
BITMAP
06D10B90
06D10C80
00000000
0C402E00
0F105B00
3D008800
6A00B500
9700E200
C402E000
F106B000
00098000
011D4000
06E90000
ENDCHAR
STARTCHAR Jcircumflex
ENCODING 308
SWIDTH 600 0
DWIDTH 8 0
BBX 8 12 0 0
BITMAP
00008D90
00076083
00000000
007FFFF7
000000C4
000001F1
000004D0
00000790
00000A60
00000E20
7A119A00
19EE9100
ENDCHAR
STARTCHAR jcircumflex
ENCODING 309
SWIDTH 600 0
DWIDTH 8 0
BBX 9 13 -1 -3
BITMAP
000003CD20
0000291390
0000000000
001FFFF200
000002E000
000005B000
0000088000
00000B5000
00000E2000
00002E0000
00006A0000
0413D50000
1BED700000
ENDCHAR
STARTCHAR uni0136
ENCODING 310
SWIDTH 600 0
DWIDTH 8 0
BBX 9 12 0 -3
BITMAP
00A6003D30
00D303D300
01F04C2000
04C4E20000
07CCE30000
0AC17A0000
0E301E2000
2E00099000
5C0003E100
0000000000
000C800000
00BD500000
ENDCHAR
STARTCHAR uni0137
ENCODING 311
SWIDTH 600 0
DWIDTH 8 0
BBX 8 13 0 -3
BITMAP
006A0000
00970000
00C40000
00F100A9
03D01C80
06A2D700
09BDD500
0CD24C00
0F100C50
3D0004D0
00000000
000D7000
00DC4000
ENDCHAR
STARTCHAR kgreenlandic
ENCODING 312
SWIDTH 600 0
DWIDTH 8 0
BBX 8 7 0 0
BITMAP
01F001A9
04C02C70
0793D600
0ABDC500
0CC24D00
1F100B50
3D0004D0
ENDCHAR
STARTCHAR Lacute
ENCODING 313
SWIDTH 600 0
DWIDTH 8 0
BBX 7 12 1 0
BITMAP
0005B000
00781000
00000000
00D30000
01F00000
04C00000
07900000
0A600000
0E300000
2E000000
5B000000
8FFFFF20
ENDCHAR
STARTCHAR lacute
ENCODING 314
SWIDTH 600 0
DWIDTH 8 0
BBX 5 13 2 0
BITMAP
0005B0
006910
000000
EFF500
00D200
01E000
05B000
088000
0B4000
0E1000
2D0000
3E2210
0AFD30
ENDCHAR
STARTCHAR uni013B
ENCODING 315
SWIDTH 600 0
DWIDTH 8 0
BBX 7 12 1 -3
BITMAP
00D30000
01F00000
04C00000
07900000
0A600000
0E300000
2E000000
5B000000
8FFFFF20
00000000
009C0000
07E80000
ENDCHAR
STARTCHAR uni013C
ENCODING 316
SWIDTH 600 0
DWIDTH 8 0
BBX 5 13 2 -3
BITMAP
EFF500
00D200
01E000
05B000
088000
0B4000
0E1000
2D0000
3E2210
0AFD30
000000
05D200
4EA100
ENDCHAR
STARTCHAR Lcaron
ENCODING 317
SWIDTH 600 0
DWIDTH 8 0
BBX 7 12 1 0
BITMAP
00000780
00000A40
00000C10
00D30B00
01F00000
04C00000
07900000
0A600000
0E300000
2E000000
5B000000
8FFFFF20
ENDCHAR
STARTCHAR lcaron
ENCODING 318
SWIDTH 600 0
DWIDTH 8 0
BBX 6 12 2 0
BITMAP
00001E
00003B
EFF567
00D293
01E000
05B000
088000
0B4000
0E1000
2D0000
3E2210
0AFD30
ENDCHAR
STARTCHAR Ldot
ENCODING 319
SWIDTH 600 0
DWIDTH 8 0
BBX 7 9 1 0
BITMAP
00D30000
01F00000
04C00000
07900B90
0A600C80
0E300000
2E000000
5B000000
8FFFFF20
ENDCHAR
STARTCHAR ldot
ENCODING 320
SWIDTH 600 0
DWIDTH 8 0
BBX 8 10 1 0
BITMAP
7FFD0000
006A0000
00960000
00C30000
01E000D7
04C001D6
07900000
0A600000
0B813000
04DE9000
ENDCHAR
STARTCHAR Lslash
ENCODING 321
SWIDTH 600 0
DWIDTH 8 0
BBX 8 9 0 0
BITMAP
000D3000
001F0000
004C0010
00894B70
00BE8200
3CF30000
12E00000
05B00000
08FFFFF2
ENDCHAR
STARTCHAR lslash
ENCODING 322
SWIDTH 600 0
DWIDTH 8 0
BBX 7 10 1 0
BITMAP
0EFF5000
000D2000
001E0310
005DA910
02BB2000
5AD40000
00E10000
02D00000
03E22100
00AFD300
ENDCHAR
STARTCHAR Nacute
ENCODING 323
SWIDTH 600 0
DWIDTH 8 0
BBX 9 12 0 0
BITMAP
000002B200
00003B3000
0000000000
00E7000E10
02DC002D00
059D206A00
0878609700
0B43B0C400
0E10D1E100
2D0097D000
5A004DA000
87000E7000
ENDCHAR
STARTCHAR nacute
ENCODING 324
SWIDTH 600 0
DWIDTH 8 0
BBX 8 11 0 0
BITMAP
000001B1
00001C90
00007600
00000000
04A3BEC1
07DA21D6
099000B5
0C4000E2
0F1002E0
3D0005B0
6A000880
ENDCHAR
STARTCHAR uni0145
ENCODING 325
SWIDTH 600 0
DWIDTH 8 0
BBX 9 12 0 -3
BITMAP
00E7000E10
02DC002D00
059D206A00
0878609700
0B43B0C400
0E10D1E100
2D0097D000
5A004DA000
87000E7000
0000000000
006D200000
04EA100000
ENDCHAR
STARTCHAR uni0146
ENCODING 326
SWIDTH 600 0
DWIDTH 8 0
BBX 8 10 0 -3
BITMAP
04A3BEC1
07DA21D6
099000B5
0C4000E2
0F1002E0
3D0005B0
6A000880
00000000
004D3000
03EA1000
ENDCHAR
STARTCHAR Ncaron
ENCODING 327
SWIDTH 600 0
DWIDTH 8 0
BBX 9 12 0 0
BITMAP
0003906700
00009D8000
0000000000
00E7000E10
02DC002D00
059D206A00
0878609700
0B43B0C400
0E10D1E100
2D0097D000
5A004DA000
87000E7000
ENDCHAR
STARTCHAR ncaron
ENCODING 328
SWIDTH 600 0
DWIDTH 8 0
BBX 8 10 0 0
BITMAP
00066075
0000BC60
00000000
04A3BEC1
07DA21D6
099000B5
0C4000E2
0F1002E0
3D0005B0
6A000880
ENDCHAR
STARTCHAR napostrophe
ENCODING 329
SWIDTH 600 0
DWIDTH 8 0
BBX 10 10 -1 0
BITMAP
01DB000000
01EF000000
005C000000
05E4C39ED2
1C40EB41C7
0002E10096
0005B000C4
00088000F1
000B5003D0
000E2006A0
ENDCHAR
STARTCHAR Eng
ENCODING 330
SWIDTH 600 0
DWIDTH 8 0
BBX 8 9 0 0
BITMAP
00F5CEB1
03F921C8
06A0006B
0970005B
0C40007A
1F1000A7
3D0001E2
6A011AA0
A707EA10
ENDCHAR
STARTCHAR eng
ENCODING 331
SWIDTH 600 0
DWIDTH 8 0
BBX 8 10 0 -3
BITMAP
04A3BEC1
07DA21D6
099000B5
0C4000D3
0F1001F0
3D0004C0
6A000790
00000A60
00011E20
0008E800
ENDCHAR
STARTCHAR Omacron
ENCODING 332
SWIDTH 600 0
DWIDTH 8 0
BBX 8 11 0 0
BITMAP
0005FFF4
00000000
002AED80
02E812C7
0990005C
1E10003E
5C00005D
6B000099
4C0002E3
1E613D80
03CED600
ENDCHAR
STARTCHAR omacron
ENCODING 333
SWIDTH 600 0
DWIDTH 8 0
BBX 8 9 0 0
BITMAP
000AFFD0
00000000
005CFC40
06D415E1
1E3000B5
5C0000C5
4C0002E1
1E614D70
04CFD500
ENDCHAR
STARTCHAR Obreve
ENCODING 334
SWIDTH 600 0
DWIDTH 8 0
BBX 8 12 0 0
BITMAP
00067077
0001CEA0
00000000
002AED80
02E812C7
0990005C
1E10003E
5C00005D
6B000099
4C0002E3
1E613D80
03CED600
ENDCHAR
STARTCHAR obreve
ENCODING 335
SWIDTH 600 0
DWIDTH 8 0
BBX 8 11 0 0
BITMAP
00010000
000C31A5
0005EE70
00000000
005CFC40
06D415E1
1E3000B5
5C0000C5
4C0002E1
1E614D70
04CFD500
ENDCHAR
STARTCHAR Ohungarumlaut
ENCODING 336
SWIDTH 600 0
DWIDTH 8 0
BBX 9 12 0 0
BITMAP
00001B1A30
0000937500
0000000000
002AED8000
02E812C700
0990005C00
1E10003E00
5C00005D00
6B00009900
4C0002E300
1E613D8000
03CED60000
ENDCHAR
STARTCHAR ohungarumlaut
ENCODING 337
SWIDTH 600 0
DWIDTH 8 0
BBX 8 11 0 0
BITMAP
00001A0B
00009587
000291A0
00000000
005CFC40
06D415E1
1E3000B5
5C0000C5
4C0002E1
1E614D70
04CFD500
ENDCHAR
STARTCHAR OE
ENCODING 338
SWIDTH 600 0
DWIDTH 8 0
BBX 10 9 0 0
BITMAP
002AEFFFF1
03E71E1000
0D602D0000
4D005A0000
8A008FF900
9800B40000
8A00E10000
3E53C00000
05CFFFF800
ENDCHAR
STARTCHAR oe
ENCODING 339
SWIDTH 600 0
DWIDTH 8 0
BBX 10 7 -1 0
BITMAP
006DD37EC0
04D25DA1A4
0C401E1085
0E002FFFF3
1E00690000
0E33DC1230
06ED38EC40
ENDCHAR
STARTCHAR Racute
ENCODING 340
SWIDTH 600 0
DWIDTH 8 0
BBX 8 12 0 0
BITMAP
000002B2
00003B30
00000000
00CFFEA1
00E202B9
03D00079
06A015E3
09FFFB40
0C40D300
0F108900
3D002E10
6A000C60
ENDCHAR
STARTCHAR racute
ENCODING 341
SWIDTH 600 0
DWIDTH 8 0
BBX 7 11 1 0
BITMAP
00000850
00008C20
0003A100
00000000
0683CE80
099A3110
0CA00000
0E100000
2D000000
5A000000
88000000
ENDCHAR
STARTCHAR uni0156
ENCODING 342
SWIDTH 600 0
DWIDTH 8 0
BBX 8 12 0 -3
BITMAP
00CFFEA1
00E202B9
03D00079
06A015E3
09FFFB40
0C40D300
0F108900
3D002E10
6A000C60
00000000
003E4000
02EB2000
ENDCHAR
STARTCHAR uni0157
ENCODING 343
SWIDTH 600 0
DWIDTH 8 0
BBX 8 10 0 -3
BITMAP
00683CE8
0099A311
00CA0000
00E10000
02D00000
05A00000
08800000
00000000
0D700000
CC400000
ENDCHAR
STARTCHAR Rcaron
ENCODING 344
SWIDTH 600 0
DWIDTH 8 0
BBX 8 12 0 0
BITMAP
00038077
00009D80
00000000
00CFFEA1
00E202B9
03D00079
06A015E3
09FFFB40
0C40D300
0F108900
3D002E10
6A000C60
ENDCHAR
STARTCHAR rcaron
ENCODING 345
SWIDTH 600 0
DWIDTH 8 0
BBX 7 10 1 0
BITMAP
002A0490
0007DA00
00000000
0683CE80
099A3110
0CA00000
0E100000
2D000000
5A000000
88000000
ENDCHAR
STARTCHAR Sacute
ENCODING 346
SWIDTH 600 0
DWIDTH 8 0
BBX 8 12 0 0
BITMAP
000004B1
00005920
00000000
002AED70
00C812B4
00F20000
009C3000
0007E900
00002C80
020006B0
4D403C70
05CFD700
ENDCHAR
STARTCHAR sacute
ENCODING 347
SWIDTH 600 0
DWIDTH 8 0
BBX 7 11 0 0
BITMAP
000002A0
00002D60
00009400
00000000
006DFC40
02E204B0
01E50000
003BE800
00001A80
1C511980
04BEEA10
ENDCHAR
STARTCHAR Scircumflex
ENCODING 348
SWIDTH 600 0
DWIDTH 8 0
BBX 8 12 0 0
BITMAP
0001BD60
000941A1
00000000
002AED70
00C812B4
00F20000
009C3000
0007E900
00002C80
020006B0
4D403C70
05CFD700
ENDCHAR
STARTCHAR scircumflex
ENCODING 349
SWIDTH 600 0
DWIDTH 8 0
BBX 7 10 0 0
BITMAP
0001BD40
000A31A0
00000000
006DFC40
02E204B0
01E50000
003BE800
00001A80
1C511980
04BEEA10
ENDCHAR
STARTCHAR uni015E
ENCODING 350
SWIDTH 600 0
DWIDTH 8 0
BBX 8 13 0 -4
BITMAP
002AED70
00C812B4
00F20000
009C3000
0007E900
00002C80
020006B0
4D403C70
05CFD700
000A0000
005E2000
001C3000
04D70000
ENDCHAR
STARTCHAR uni015F
ENCODING 351
SWIDTH 600 0
DWIDTH 8 0
BBX 7 11 0 -4
BITMAP
006DFC40
02E204B0
01E50000
003BE800
00001A80
1C511980
04BEEA10
000A0000
005E2000
001C3000
03D70000
ENDCHAR
STARTCHAR Scaron
ENCODING 352
SWIDTH 600 0
DWIDTH 8 0
BBX 8 12 0 0
BITMAP
00066085
0000CD50
00000000
002AED70
00C812B4
00F20000
009C3000
0007E900
00002C80
020006B0
4D403C70
05CFD700
ENDCHAR
STARTCHAR scaron
ENCODING 353
SWIDTH 600 0
DWIDTH 8 0
BBX 8 10 0 0
BITMAP
00084193
0001DC40
00000000
006DFC40
02E204B0
01E50000
003BE800
00001A80
1C511980
04BEEA10
ENDCHAR
STARTCHAR uni0162
ENCODING 354
SWIDTH 600 0
DWIDTH 8 0
BBX 8 13 1 -4
BITMAP
8FFFFFFA
000A6000
000D3000
001F0000
005C0000
00890000
00B60000
00E20000
02E00000
03700000
0AB00000
03D00000
8C400000
ENDCHAR
STARTCHAR uni0163
ENCODING 355
SWIDTH 600 0
DWIDTH 8 0
BBX 7 13 1 -4
BITMAP
00590000
00950000
DFFFFF80
01E00000
04B00000
08800000
0B500000
0B912300
03DEC500
00460000
00AB0000
004D0000
08C40000
ENDCHAR
STARTCHAR Tcaron
ENCODING 356
SWIDTH 600 0
DWIDTH 8 0
BBX 8 12 1 0
BITMAP
00390670
0009D800
00000000
8FFFFFFA
000A6000
000D3000
001F0000
005C0000
00890000
00B60000
00E20000
02E00000
ENDCHAR
STARTCHAR tcaron
ENCODING 357
SWIDTH 600 0
DWIDTH 8 0
BBX 7 12 1 0
BITMAP
00000780
00000950
00000C10
00590B00
00950000
DFFFFF80
01E00000
04B00000
08800000
0B500000
0B912300
03DEC500
ENDCHAR
STARTCHAR Tbar
ENCODING 358
SWIDTH 600 0
DWIDTH 8 0
BBX 8 9 1 0
BITMAP
8FFFFFFA
000A6000
000D3000
001F0000
2EFFFB00
006A0000
00A70000
00D30000
02E00000
ENDCHAR
STARTCHAR tbar
ENCODING 359
SWIDTH 600 0
DWIDTH 8 0
BBX 8 9 0 0
BITMAP
00059000
00095000
0DFFFFF8
001E0000
004C0000
5EFFFFC0
00A60000
00B81230
004DEC50
ENDCHAR
STARTCHAR Utilde
ENCODING 360
SWIDTH 600 0
DWIDTH 8 0
BBX 9 13 0 0
BITMAP
0000200100
0007EB2C00
000B09E500
0000000000
00F1000E20
03D0002E00
06A0005B00
0A70008800
0D4000C400
0F1001E100
1F0005C000
0D813D5000
03CED60000
ENDCHAR
STARTCHAR utilde
ENCODING 361
SWIDTH 600 0
DWIDTH 8 0
BBX 8 11 0 0
BITMAP
00002001
000BC659
00380BD2
00000000
05B00079
088000A6
0B5000D3
0E2001F0
2E0006C0
3E218C90
0AFC5760
ENDCHAR
STARTCHAR Umacron
ENCODING 362
SWIDTH 600 0
DWIDTH 8 0
BBX 9 11 0 0
BITMAP
0005FFF400
0000000000
00F1000E20
03D0002E00
06A0005B00
0A70008800
0D4000C400
0F1001E100
1F0005C000
0D813D5000
03CED60000
ENDCHAR
STARTCHAR umacron
ENCODING 363
SWIDTH 600 0
DWIDTH 8 0
BBX 8 9 0 0
BITMAP
000BFFD0
00000000
05B00079
088000A6
0B5000D3
0E2001F0
2E0006C0
3E218C90
0AFC5760
ENDCHAR
STARTCHAR Ubreve
ENCODING 364
SWIDTH 600 0
DWIDTH 8 0
BBX 9 12 0 0
BITMAP
0006707700
0001CEA000
0000000000
00F1000E20
03D0002E00
06A0005B00
0A70008800
0D4000C400
0F1001E100
1F0005C000
0D813D5000
03CED60000
ENDCHAR
STARTCHAR ubreve
ENCODING 365
SWIDTH 600 0
DWIDTH 8 0
BBX 8 11 0 0
BITMAP
00010000
000C21A4
0005EE70
00000000
05B00079
088000A6
0B5000D3
0E2001F0
2E0006C0
3E218C90
0AFC5760
ENDCHAR
STARTCHAR Uring
ENCODING 366
SWIDTH 600 0
DWIDTH 8 0
BBX 9 13 0 0
BITMAP
00005E9000
0000B2B000
00007E6000
0000000000
00F1000E20
03D0002E00
06A0005B00
0A70008800
0D4000C400
0F1001E100
1F0005C000
0D813D5000
03CED60000
ENDCHAR
STARTCHAR uring
ENCODING 367
SWIDTH 600 0
DWIDTH 8 0
BBX 8 12 0 0
BITMAP
00009E40
0003A490
00058580
0001DC10
00000000
05B00079
088000A6
0B5000D3
0E2001F0
2E0006C0
3E218C90
0AFC5760
ENDCHAR
STARTCHAR Uhungarumlaut
ENCODING 368
SWIDTH 600 0
DWIDTH 8 0
BBX 9 12 0 0
BITMAP
00001B1A30
0000937500
0000000000
00F1000E20
03D0002E00
06A0005B00
0A70008800
0D4000C400
0F1001E100
1F0005C000
0D813D5000
03CED60000
ENDCHAR
STARTCHAR uhungarumlaut
ENCODING 369
SWIDTH 600 0
DWIDTH 8 0
BBX 8 11 0 0
BITMAP
00001A1B
0000A587
000291A0
00000000
05B00079
088000A6
0B5000D3
0E2001F0
2E0006C0
3E218C90
0AFC5760
ENDCHAR
STARTCHAR Uogonek
ENCODING 370
SWIDTH 600 0
DWIDTH 8 0
BBX 9 12 0 -3
BITMAP
00F1000E20
03D0002E00
06A0005B00
0A70008800
0D4000B400
0F1000E100
1F0003C000
0D300A5000
03B9B60000
0085000000
03A1000000
02DD100000
ENDCHAR
STARTCHAR uogonek
ENCODING 371
SWIDTH 600 0
DWIDTH 8 0
BBX 8 10 0 -3
BITMAP
05B00079
088000A6
0B5000D3
0E2001F0
2E0006C0
3E218C90
0AFC5760
00005610
0001B100
0001DD20
ENDCHAR
STARTCHAR Wcircumflex
ENCODING 372
SWIDTH 600 0
DWIDTH 8 0
BBX 9 12 0 0
BITMAP
00009D8000
0007609300
0000000000
0B500003C0
0C40000880
0D20710C30
0E14E32D00
0E0B946800
0E3A75B400
1DA467D000
2CC05C9000
3F604F4000
ENDCHAR
STARTCHAR wcircumflex
ENCODING 373
SWIDTH 600 0
DWIDTH 8 0
BBX 9 10 0 0
BITMAP
0002CD3000
001A22A000
0000000000
5B01920880
5B06E30D20
5B0CA45A00
4B4A94B400
4BA486D000
3CC08B7000
3F607F1000
ENDCHAR
STARTCHAR Ycircumflex
ENCODING 374
SWIDTH 600 0
DWIDTH 8 0
BBX 8 12 1 0
BITMAP
001AD700
00940A10
00000000
5C0000B6
1E2007B0
0A603D10
05B0C500
01E89000
00BD1000
00A60000
00D30000
02E00000
ENDCHAR
STARTCHAR ycircumflex
ENCODING 375
SWIDTH 600 0
DWIDTH 8 0
BBX 9 13 -1 -3
BITMAP
00002CD300
0001A22A00
0000000000
00A50004D0
0069000C40
003C006A00
000E11D200
000B487000
00079C0000
0003F40000
0006A00000
105D100000
6FC3000000
ENDCHAR
STARTCHAR Ydieresis
ENCODING 376
SWIDTH 600 0
DWIDTH 8 0
BBX 8 11 1 0
BITMAP
00770C10
00000000
5C0000B6
1E2007B0
0A603D10
05B0C500
01E89000
00BD1000
00A60000
00D30000
02E00000
ENDCHAR
STARTCHAR Zacute
ENCODING 377
SWIDTH 600 0
DWIDTH 8 0
BBX 9 12 0 0
BITMAP
000004B100
00005A2000
0000000000
02FFFFFF20
000001C600
00000B8000
00009A0000
0006C10000
004D200000
03E3000000
1D40000000
AFFFFFD000
ENDCHAR
STARTCHAR zacute
ENCODING 378
SWIDTH 600 0
DWIDTH 8 0
BBX 8 11 0 0
BITMAP
000003A0
00003E50
0000A300
00000000
05FFFFF6
000009A0
00009A00
00099000
00A90000
0A900000
6FFFFF90
ENDCHAR
STARTCHAR Zdotaccent
ENCODING 379
SWIDTH 600 0
DWIDTH 8 0
BBX 9 11 0 0
BITMAP
00004C0000
0000000000
02FFFFFF20
000001C600
00000B8000
00009A0000
0006C10000
004D200000
03E3000000
1D40000000
AFFFFFD000
ENDCHAR
STARTCHAR zdotaccent
ENCODING 380
SWIDTH 600 0
DWIDTH 8 0
BBX 8 10 0 0
BITMAP
00008C00
00009B00
00000000
05FFFFF6
000009A0
00009A00
00099000
00A90000
0A900000
6FFFFF90
ENDCHAR
STARTCHAR Zcaron
ENCODING 381
SWIDTH 600 0
DWIDTH 8 0
BBX 9 12 0 0
BITMAP
0006608500
0000BD6000
0000000000
02FFFFFF20
000001C600
00000B8000
00009A0000
0006C10000
004D200000
03E3000000
1D40000000
AFFFFFD000
ENDCHAR
STARTCHAR zcaron
ENCODING 382
SWIDTH 600 0
DWIDTH 8 0
BBX 8 10 0 0
BITMAP
00093192
0002DC30
00000000
05FFFFF6
000009A0
00009A00
00099000
00A90000
0A900000
6FFFFF90
ENDCHAR
STARTCHAR longs
ENCODING 383
SWIDTH 600 0
DWIDTH 8 0
BBX 8 10 1 0
BITMAP
0002BED6
000C9123
002F1000
4EFC0000
00890000
00B60000
00E20000
02E00000
05B00000
08800000
ENDCHAR
STARTCHAR uni0180
ENCODING 384
SWIDTH 600 0
DWIDTH 8 0
BBX 8 10 0 0
BITMAP
00A70000
0CFFFF40
00F10000
03C6DE80
06E713E4
097000A7
0C3000B6
0E0002E2
3F713C80
689ED700
ENDCHAR
STARTCHAR uni018A
ENCODING 394
SWIDTH 600 0
DWIDTH 8 0
BBX 9 9 0 0
BITMAP
006DFD8100
08A8A2BA00
2C09702F10
680D300F20
6B1F001F10
084C005D00
007900C600
00A63BA000
00DEC60000
ENDCHAR
STARTCHAR uni018F
ENCODING 399
SWIDTH 600 0
DWIDTH 8 0
BBX 8 9 0 0
BITMAP
0019EEA1
007612B8
0000004C
0000003D
2FFFFFFC
3D000098
2E0002E2
0D614D70
04DEC500
ENDCHAR
STARTCHAR uni0192
ENCODING 402
SWIDTH 600 0
DWIDTH 8 0
BBX 10 10 -1 -1
BITMAP
0000007EE3
000005D221
00000B5000
0008FFFF00
00005A0000
0000B50000
0001E10000
0006A00000
022D400000
3EE7000000
ENDCHAR
STARTCHAR uni0193
ENCODING 403
SWIDTH 600 0
DWIDTH 8 0
BBX 10 11 0 0
BITMAP
0000000BE1
0000003C10
0006CEDA00
009D404A00
05D1000000
0C60000000
1F206FF800
2F0000A500
0F3000D200
09C215E000
019DFB3000
ENDCHAR
STARTCHAR Ohorn
ENCODING 416
SWIDTH 600 0
DWIDTH 8 0
BBX 9 11 0 0
BITMAP
00000001B0
00000002C0
002AEEAA30
02E812C600
0990005C00
1E10003E00
5C00005D00
6B00009900
4C0002E300
1E613D8000
03CED60000
ENDCHAR
STARTCHAR ohorn
ENCODING 417
SWIDTH 600 0
DWIDTH 8 0
BBX 9 9 0 0
BITMAP
0000000840
0000000B30
005CFDB600
06D415E100
1E3000B500
5C0000C500
4C0002E200
1E614D7000
04CFD50000
ENDCHAR
STARTCHAR Uhorn
ENCODING 431
SWIDTH 600 0
DWIDTH 8 0
BBX 10 11 0 0
BITMAP
000000000C
000000004D
00F1000EA3
03D0002F00
06A0005C00
0A70008900
0D4000C600
0F1001E300
1F0005E000
0D813D7000
03CED70000
ENDCHAR
STARTCHAR uhorn
ENCODING 432
SWIDTH 600 0
DWIDTH 8 0
BBX 10 9 0 0
BITMAP
00000000A2
00000003E1
05B0007E60
088000A700
0B5000D400
0E2001F100
2E0006D000
3E218CA000
0AFC577000
ENDCHAR
STARTCHAR uni01C2
ENCODING 450
SWIDTH 600 0
DWIDTH 8 0
BBX 8 13 0 -3
BITMAP
00003D00
00006A00
00009700
0000C400
0000F100
09EFFFF3
0005B000
00078000
1EFFFFB0
000D2000
002E0000
006A0000
00A60000
ENDCHAR
STARTCHAR uni01CD
ENCODING 461
SWIDTH 600 0
DWIDTH 8 0
BBX 9 12 -1 0
BITMAP
0000390670
000009D800
0000000000
000009E000
00003BC100
0000B3B300
0004909500
000C107700
006FFFF900
01D2005B00
0890003D00
1E20002F00
ENDCHAR
STARTCHAR uni01CE
ENCODING 462
SWIDTH 600 0
DWIDTH 8 0
BBX 8 10 0 0
BITMAP
00066076
0000BC60
00000000
004CFC6A
04E514E7
0C5000B4
2E0000E1
4D0003D0
1F514DA0
06EE8770
ENDCHAR
STARTCHAR uni01CF
ENCODING 463
SWIDTH 600 0
DWIDTH 8 0
BBX 8 12 0 0
BITMAP
00039067
00009D80
00000000
00CFFFFE
0000A600
0000D300
0002F000
0005C000
00088000
000B5000
000E2000
6FFFFF40
ENDCHAR
STARTCHAR uni01D0
ENCODING 464
SWIDTH 600 0
DWIDTH 8 0
BBX 7 10 1 0
BITMAP
00A12A10
004DC200
00000000
7FFF1000
002D0000
00690000
00960000
00D30000
00E51200
007EE600
ENDCHAR
STARTCHAR uni01D1
ENCODING 465
SWIDTH 600 0
DWIDTH 8 0
BBX 8 12 0 0
BITMAP
00039067
00009D80
00000000
002AED80
02E812C7
0990005C
1E10003E
5C00005D
6B000099
4C0002E3
1E613D80
03CED600
ENDCHAR
STARTCHAR uni01D2
ENCODING 466
SWIDTH 600 0
DWIDTH 8 0
BBX 8 10 0 0
BITMAP
00084193
0001DC40
00000000
005CFC40
06D415E1
1E3000B5
5C0000C5
4C0002E1
1E614D70
04CFD500
ENDCHAR
STARTCHAR uni01D3
ENCODING 467
SWIDTH 600 0
DWIDTH 8 0
BBX 9 12 0 0
BITMAP
0003906700
00009D8000
0000000000
00F1000E20
03D0002E00
06A0005B00
0A70008800
0D4000C400
0F1001E100
1F0005C000
0D813D5000
03CED60000
ENDCHAR
STARTCHAR uni01D4
ENCODING 468
SWIDTH 600 0
DWIDTH 8 0
BBX 8 10 0 0
BITMAP
00083193
0001DC40
00000000
05B00079
088000A6
0B5000D3
0E2001F0
2E0006C0
3E218C90
0AFC5760
ENDCHAR
STARTCHAR uni01D5
ENCODING 469
SWIDTH 600 0
DWIDTH 8 0
BBX 9 13 0 0
BITMAP
0001FFF800
0000000000
000580A200
0000000000
00F1000E20
03D0002E00
06A0005B00
0A70008800
0D4000C400
0F1001E100
1F0005C000
0D813D5000
03CED60000
ENDCHAR
STARTCHAR uni01D6
ENCODING 470
SWIDTH 600 0
DWIDTH 8 0
BBX 8 11 0 0
BITMAP
0004FFF4
00000000
000941B0
00000000
05B00079
088000A6
0B5000D3
0E2001F0
2E0006C0
3E218C90
0AFC5760
ENDCHAR
STARTCHAR uni01D7
ENCODING 471
SWIDTH 600 0
DWIDTH 8 0
BBX 9 14 0 0
BITMAP
000001B200
0000084000
0000000000
000580A200
0000000000
00F1000E20
03D0002E00
06A0005B00
0A70008800
0D4000C400
0F1001E100
1F0005C000
0D813D5000
03CED60000
ENDCHAR
STARTCHAR uni01D8
ENCODING 472
SWIDTH 600 0
DWIDTH 8 0
BBX 8 12 0 0
BITMAP
00000290
00000A10
00000000
000941B0
00000000
05B00079
088000A6
0B5000D3
0E2001F0
2E0006C0
3E218C90
0AFC5760
ENDCHAR
STARTCHAR uni01D9
ENCODING 473
SWIDTH 600 0
DWIDTH 8 0
BBX 9 14 0 0
BITMAP
0000926600
00004E9000
0000000000
000580A200
0000000000
00F1000E20
03D0002E00
06A0005B00
0A70008800
0D4000C400
0F1001E100
1F0005C000
0D813D5000
03CED60000
ENDCHAR
STARTCHAR uni01DA
ENCODING 474
SWIDTH 600 0
DWIDTH 8 0
BBX 8 12 0 0
BITMAP
00029183
00008E60
00000000
000941B0
00000000
05B00079
088000A6
0B5000D3
0E2001F0
2E0006C0
3E218C90
0AFC5760
ENDCHAR
STARTCHAR uni01DB
ENCODING 475
SWIDTH 600 0
DWIDTH 8 0
BBX 9 14 0 0
BITMAP
0000660000
00000A0000
0000000000
000580A200
0000000000
00F1000E20
03D0002E00
06A0005B00
0A70008800
0D4000C400
0F1001E100
1F0005C000
0D813D5000
03CED60000
ENDCHAR
STARTCHAR uni01DC
ENCODING 476
SWIDTH 600 0
DWIDTH 8 0
BBX 8 12 0 0
BITMAP
00007300
00001800
00000000
000941B0
00000000
05B00079
088000A6
0B5000D3
0E2001F0
2E0006C0
3E218C90
0AFC5760
ENDCHAR
STARTCHAR uni01E2
ENCODING 482
SWIDTH 600 0
DWIDTH 8 0
BBX 10 11 -1 0
BITMAP
000000CFFC
0000000000
000009FFFF
00003BD200
0000C4E000
000765B000
002A08FFA0
00BFFF5000
05900E2000
1D202D0000
88005FFF70
ENDCHAR
STARTCHAR uni01E3
ENCODING 483
SWIDTH 600 0
DWIDTH 8 0
BBX 10 9 -1 0
BITMAP
0000AFFD00
0000000000
018ED39EB0
01616E71A5
00016C44A5
03BDDDCCC2
1E40850000
4C14DA1320
1CEA2AEC30
ENDCHAR
STARTCHAR Gcaron
ENCODING 486
SWIDTH 600 0
DWIDTH 8 0
BBX 8 12 0 0
BITMAP
0000A13A
00004DC1
00000000
0006CFC3
009D404A
05D10000
0C600000
1F206FF8
2F0000A5
0F3000D2
09C215E0
019DFB30
ENDCHAR
STARTCHAR gcaron
ENCODING 487
SWIDTH 600 0
DWIDTH 8 0
BBX 8 13 0 -3
BITMAP
00066076
0000BC60
00000000
004CFC6A
04E514E7
0C5000C4
2F0000E1
3E0003D0
1E726DA0
04CD8970
00000C30
55118C00
3CFE9100
ENDCHAR
STARTCHAR uni01EA
ENCODING 490
SWIDTH 600 0
DWIDTH 8 0
BBX 8 12 0 -3
BITMAP
002AED80
02D712C7
0980005C
1E10003E
5C00005C
6B000099
4C0002E3
1E613D80
03CFD700
00740000
03A10000
02DD1000
ENDCHAR
STARTCHAR uni01EB
ENCODING 491
SWIDTH 600 0
DWIDTH 8 0
BBX 8 10 0 -3
BITMAP
005CFC40
06D415E1
1E3000B5
4C0000C5
4C0002E2
1E614D80
04DFD600
00740000
03A10000
02DD2000
ENDCHAR
STARTCHAR uni01F4
ENCODING 500
SWIDTH 600 0
DWIDTH 8 0
BBX 8 12 0 0
BITMAP
00000187
00000A60
00000000
0006CFC3
009D404A
05D10000
0C600000
1F206FF8
2F0000A5
0F3000D2
09C215E0
019DFB30
ENDCHAR
STARTCHAR uni01F5
ENCODING 501
SWIDTH 600 0
DWIDTH 8 0
BBX 8 14 0 -3
BITMAP
000001B1
00001C90
00007600
00000000
004CFC6A
04E514E7
0C5000C4
2F0000E1
3E0003D0
1E726DA0
04CD8970
00000C30
55118C00
3CFE9100
ENDCHAR
STARTCHAR uni01F8
ENCODING 504
SWIDTH 600 0
DWIDTH 8 0
BBX 9 12 0 0
BITMAP
0001B20000
00003B1000
0000000000
00E7000E10
02DC002D00
059D206A00
0878609700
0B43B0C400
0E10D1E100
2D0097D000
5A004DA000
87000E7000
ENDCHAR
STARTCHAR uni01F9
ENCODING 505
SWIDTH 600 0
DWIDTH 8 0
BBX 8 11 0 0
BITMAP
0001B100
00009A00
00000A20
00000000
04A3BEC1
07DA21D6
099000B5
0C4000E2
0F1002E0
3D0005B0
6A000880
ENDCHAR
STARTCHAR Aringacute
ENCODING 506
SWIDTH 600 0
DWIDTH 8 0
BBX 9 14 -1 0
BITMAP
0000000620
0000015800
0000091B00
000008E700
0000000000
000009F000
00003BC100
0000B3B300
0004909500
000C107700
006FFFF900
01D2005B00
0890003D00
1E20002F00
ENDCHAR
STARTCHAR aringacute
ENCODING 507
SWIDTH 600 0
DWIDTH 8 0
BBX 8 13 0 0
BITMAP
00000020
00000790
00009F80
0001C2C0
0000CE50
00000000
004CFC6A
04E514E7
0C5000C4
2E0000F1
4D0004D0
1F515DA0
06EE8770
ENDCHAR
STARTCHAR AEacute
ENCODING 508
SWIDTH 600 0
DWIDTH 8 0
BBX 10 12 -1 0
BITMAP
000000006A
0000000881
0000000000
000009FFFF
00003BD200
0000C4E000
000765B000
002A08FFA0
00BFFF5000
05900E2000
1D202D0000
88005FFF70
ENDCHAR
STARTCHAR aeacute
ENCODING 509
SWIDTH 600 0
DWIDTH 8 0
BBX 10 11 -1 0
BITMAP
0000002A00
000002D600
0000094000
0000000000
018ED39EB0
01616E71A5
00016C44A5
03BDDDCCC2
1E40850000
4C14DA1320
1CEA2AEC30
ENDCHAR
STARTCHAR Oslashacute
ENCODING 510
SWIDTH 600 0
DWIDTH 8 0
BBX 10 13 -1 -1
BITMAP
0000002B20
000003B300
0000000001
0002AEE8A7
002D712DB0
0098007CC0
01E106B3E0
05C05C14D0
06A4C10990
05DD202E30
03F713D800
1C6CED6000
0200000000
ENDCHAR
STARTCHAR oslashacute
ENCODING 511
SWIDTH 600 0
DWIDTH 8 0
BBX 8 12 0 -1
BITMAP
000002A0
00002D60
00009400
00000001
005CFC8B
06D419F2
1E308BB5
5C09A0B5
5CA802E1
2FA14D70
B8CFD500
10000000
ENDCHAR
STARTCHAR uni0218
ENCODING 536
SWIDTH 600 0
DWIDTH 8 0
BBX 8 12 0 -3
BITMAP
002AED70
00C812B4
00F20000
009C3000
0007E900
00002C80
020006B0
4D403C70
05CFD700
00000000
003E4000
02EB2000
ENDCHAR
STARTCHAR uni0219
ENCODING 537
SWIDTH 600 0
DWIDTH 8 0
BBX 7 10 0 -3
BITMAP
006DFC40
02E204B0
01E50000
003BE800
00001A80
1C511980
04BEEA10
00000000
003E4000
02EB2000
ENDCHAR
STARTCHAR uni021A
ENCODING 538
SWIDTH 600 0
DWIDTH 8 0
BBX 8 12 1 -3
BITMAP
8FFFFFFA
000A6000
000D3000
001F0000
005C0000
00890000
00B60000
00E20000
02E00000
00000000
08C00000
7E800000
ENDCHAR
STARTCHAR uni021B
ENCODING 539
SWIDTH 600 0
DWIDTH 8 0
BBX 7 12 1 -3
BITMAP
00590000
00950000
DFFFFF80
01E00000
04B00000
08800000
0B500000
0B912300
03DEC500
00000000
008C0000
07E80000
ENDCHAR
STARTCHAR uni0237
ENCODING 567
SWIDTH 600 0
DWIDTH 8 0
BBX 8 10 -1 -3
BITMAP
001FFFF2
000002E0
000005B0
00000880
00000B50
00000E20
00002E00
00006A00
0413D500
1BED7000
ENDCHAR
STARTCHAR uni0243
ENCODING 579
SWIDTH 600 0
DWIDTH 8 0
BBX 8 9 0 0
BITMAP
00AFFE91
00D302C8
01F10089
04D014D2
07FFFE40
0A7014E2
DFFF50D4
1E0027D1
4FFFD920
ENDCHAR
STARTCHAR uni0250
ENCODING 592
SWIDTH 600 0
DWIDTH 8 0
BBX 8 7 0 0
BITMAP
0595CFC1
07E821C5
0A6137D2
0DFDB710
1F000000
1F413930
06EFC600
ENDCHAR
STARTCHAR uni0251
ENCODING 593
SWIDTH 600 0
DWIDTH 8 0
BBX 8 7 0 0
BITMAP
004CFC6A
04E514E7
0C5000B4
2E0000E1
4D0003D0
1F514DA0
06EE8770
ENDCHAR
STARTCHAR uni0252
ENCODING 594
SWIDTH 600 0
DWIDTH 8 0
BBX 8 7 0 0
BITMAP
04A6DE80
07E713E4
097000A7
0C4000B6
0E1002E2
3F613C80
689ED700
ENDCHAR
STARTCHAR uni0253
ENCODING 595
SWIDTH 600 0
DWIDTH 8 0
BBX 8 10 0 0
BITMAP
001AED10
009A1200
00E20000
03C6DE90
06E713E5
097000A7
0C3000B6
0E1002E2
3F713C80
699ED700
ENDCHAR
STARTCHAR uni0254
ENCODING 596
SWIDTH 600 0
DWIDTH 8 0
BBX 8 7 0 0
BITMAP
018EEB20
057219C0
000000F2
000001F2
000006D0
58216E40
1AEEB300
ENDCHAR
STARTCHAR uni0255
ENCODING 597
SWIDTH 600 0
DWIDTH 8 0
BBX 8 8 0 -1
BITMAP
002AEE91
02E71295
0B700000
0F100000
0E16DF80
0ADA35C0
09BEEC30
3A000000
ENDCHAR
STARTCHAR uni0256
ENCODING 598
SWIDTH 600 0
DWIDTH 8 0
BBX 9 13 0 -3
BITMAP
0000000C50
0000000E20
0000003E00
004CFC8B00
04E514E800
0C5000C500
2E0000F200
4D0003E000
1F504DB000
06EE898000
00000C5000
00000D4000
000009E300
ENDCHAR
STARTCHAR uni0257
ENCODING 599
SWIDTH 600 0
DWIDTH 8 0
BBX 10 10 0 0
BITMAP
00000005E9
0000000D40
0000002E00
004CFC7B00
04E514E800
0C5000C500
2E0000F200
4D0003E000
1F514DA000
06EE877000
ENDCHAR
STARTCHAR uni0258
ENCODING 600
SWIDTH 600 0
DWIDTH 8 0
BBX 7 7 1 0
BITMAP
03CFC400
4D415E20
B3000B50
EFFFFF50
00001E20
9313C700
6DFD6000
ENDCHAR
STARTCHAR uni0259
ENCODING 601
SWIDTH 600 0
DWIDTH 8 0
BBX 8 7 0 0
BITMAP
006CFD60
018214E3
000000A6
2FFFFFF6
3C0001E2
1E403C70
04DFD600
ENDCHAR
STARTCHAR uni025A
ENCODING 602
SWIDTH 600 0
DWIDTH 8 0
BBX 9 7 0 0
BITMAP
06CEC20000
0521AB5400
0003AE9910
17B98B1D90
E500A60000
D516D00000
4DEA100000
ENDCHAR
STARTCHAR uni025B
ENCODING 603
SWIDTH 600 0
DWIDTH 8 0
BBX 8 7 0 0
BITMAP
005CFD70
02E402A3
02E20000
02BFF600
1D410000
3F401550
06DFEA20
ENDCHAR
STARTCHAR uni025C
ENCODING 604
SWIDTH 600 0
DWIDTH 8 0
BBX 8 7 0 0
BITMAP
018DED70
017214F1
000015D0
002FFD20
000018B0
2B4119A0
06CFE910
ENDCHAR
STARTCHAR uni025E
ENCODING 606
SWIDTH 600 0
DWIDTH 8 0
BBX 8 7 0 0
BITMAP
004CFE80
06D513E3
1E3004D1
5D03FE30
4D0016D0
1D8118C0
03BEEA20
ENDCHAR
STARTCHAR uni025F
ENCODING 607
SWIDTH 600 0
DWIDTH 8 0
BBX 9 10 -1 -3
BITMAP
001FFFF200
000002E000
000005B000
003EEFFFB0
00000B5000
00000E2000
00002E0000
00006B0000
0413D50000
1BED700000
ENDCHAR
STARTCHAR uni0260
ENCODING 608
SWIDTH 600 0
DWIDTH 8 0
BBX 10 12 0 -3
BITMAP
00000007E5
0000002E10
004CFC7A00
04E514E700
0C6000C400
2F0000E100
3E0003D000
1F504DA000
05DE997000
00000C3000
55118C0000
3CFEA10000
ENDCHAR
STARTCHAR uni0261
ENCODING 609
SWIDTH 600 0
DWIDTH 8 0
BBX 8 10 0 -3
BITMAP
004CFC6A
04E514E7
0C5000C4
2F0000E1
3E0003D0
1E726DA0
04CD8970
00000C30
55118C00
3CFE9100
ENDCHAR
STARTCHAR uni0262
ENCODING 610
SWIDTH 600 0
DWIDTH 8 0
BBX 8 7 0 0
BITMAP
002AEE90
03E71194
0C600000
1F10AFF1
1F1001D0
0BA116B0
01AEEB30
ENDCHAR
STARTCHAR uni0263
ENCODING 611
SWIDTH 600 0
DWIDTH 8 0
BBX 7 10 1 -3
BITMAP
A60004C0
6A000D30
2D008800
0D22D100
095B4000
05D90000
07E50000
2C690000
69780000
3EC20000
ENDCHAR
STARTCHAR uni0264
ENCODING 612
SWIDTH 600 0
DWIDTH 8 0
BBX 7 7 1 0
BITMAP
7EA18EB0
11BE9210
03DB8000
1D21E100
7800D200
9916D000
3DEB2000
ENDCHAR
STARTCHAR uni0265
ENCODING 613
SWIDTH 600 0
DWIDTH 8 0
BBX 8 10 0 -3
BITMAP
05B00079
088000A6
0B5000D3
0E2001F1
2E0006C0
3E218D90
0AEC5A70
00000D40
00001F10
00003D00
ENDCHAR
STARTCHAR uni0266
ENCODING 614
SWIDTH 600 0
DWIDTH 8 0
BBX 8 10 0 0
BITMAP
0019ED10
009A1200
00E20000
03D3BEC1
06D921D5
099000B5
0C4000E2
0F1002E0
3D0005B0
6A000880
ENDCHAR
STARTCHAR uni0267
ENCODING 615
SWIDTH 600 0
DWIDTH 8 0
BBX 8 13 0 -3
BITMAP
0019ED10
009A1200
00E20000
03D3BEC1
06D921D5
099000B5
0C4000E3
0F1001F0
3D0004C0
6A000790
00000A60
00011E20
0008E800
ENDCHAR
STARTCHAR uni0268
ENCODING 616
SWIDTH 600 0
DWIDTH 8 0
BBX 6 10 1 0
BITMAP
000B90
000C80
000000
7FFF10
002D00
006A00
BFFFFB
00C400
00E412
007EE6
ENDCHAR
STARTCHAR uni026A
ENCODING 618
SWIDTH 600 0
DWIDTH 8 0
BBX 8 7 0 0
BITMAP
03FFFFF6
0002E000
0005C000
00089000
000B6000
000E3000
5FFFFF30
ENDCHAR
STARTCHAR uni026B
ENCODING 619
SWIDTH 600 0
DWIDTH 8 0
BBX 6 10 1 0
BITMAP
0EFF50
000D20
001E00
037B03
3DFD58
83CFD1
00E100
02D000
03E221
00AFD3
ENDCHAR
STARTCHAR uni026C
ENCODING 620
SWIDTH 600 0
DWIDTH 8 0
BBX 6 10 1 0
BITMAP
0EFF60
000D20
002E00
8EAB00
C3B800
6EFFF5
00D200
02E000
03E221
00BFD3
ENDCHAR
STARTCHAR uni026D
ENCODING 621
SWIDTH 600 0
DWIDTH 8 0
BBX 4 13 2 -3
BITMAP
EFF6
00D2
01E0
04B0
0780
0A50
0D20
1E00
4B00
8800
A600
B813
4DE9
ENDCHAR
STARTCHAR uni026E
ENCODING 622
SWIDTH 600 0
DWIDTH 8 0
BBX 9 13 0 -3
BITMAP
00C4000000
00F1000000
03D0000000
06FFFFFF10
097001B500
0C401C4000
0F11C40000
3D0AFE7000
6A0105F100
970000E200
000003D000
07513C5000
02BFD50000
ENDCHAR
STARTCHAR uni026F
ENCODING 623
SWIDTH 600 0
DWIDTH 8 0
BBX 9 7 0 0
BITMAP
0D30E11F10
1F12D04D00
4C05A07A00
7908709700
A60B40C400
C55F37F100
9E79E6D000
ENDCHAR
STARTCHAR uni0270
ENCODING 624
SWIDTH 600 0
DWIDTH 8 0
BBX 8 10 0 -3
BITMAP
0D30E11F
1F02D04C
4C05A079
790970A6
A60C40D3
C56F37F1
9E7AE7C0
00000690
00000970
00000B40
ENDCHAR
STARTCHAR uni0271
ENCODING 625
SWIDTH 600 0
DWIDTH 8 0
BBX 8 10 0 -3
BITMAP
0B6DB6DA
0E82F74E
2E02D04C
5B05A079
880970A6
B50C40D3
E20E11F1
000004C0
00001980
0000CD20
ENDCHAR
STARTCHAR uni0272
ENCODING 626
SWIDTH 600 0
DWIDTH 8 0
BBX 10 10 -2 -3
BITMAP
0004A3BEC1
0006DA21D6
00099000B5
000C4000E2
000F1002E0
003E0005B0
005B000880
0088000000
01D4000000
2EA0000000
ENDCHAR
STARTCHAR uni0273
ENCODING 627
SWIDTH 600 0
DWIDTH 8 0
BBX 8 10 0 -3
BITMAP
0383BEC1
06DA21D6
099000B5
0C4000D3
0F1001F0
3D0004C0
6A000790
00000A60
00000C50
000008F4
ENDCHAR
STARTCHAR uni0274
ENCODING 628
SWIDTH 600 0
DWIDTH 8 0
BBX 8 7 0 0
BITMAP
01F500C3
04EB00F1
069D23D0
096886A0
0C42E870
0F10AE40
3D004F10
ENDCHAR
STARTCHAR uni0275
ENCODING 629
SWIDTH 600 0
DWIDTH 8 0
BBX 8 7 0 0
BITMAP
005CFC40
06D415E1
1E2000B5
5FFFFFF5
4B0001D2
1E413B70
04CFD500
ENDCHAR
STARTCHAR uni0276
ENCODING 630
SWIDTH 600 0
DWIDTH 8 0
BBX 9 7 0 0
BITMAP
02BEFFEE90
1E71790000
8900960000
D400CFF900
E301F10000
B914C00000
2BFFFFF900
ENDCHAR
STARTCHAR uni0278
ENCODING 632
SWIDTH 600 0
DWIDTH 8 0
BBX 8 13 0 -3
BITMAP
00003D00
00007A00
0000A700
007CFD70
0BA3F4D5
5C04D06A
9708906B
980B60B7
5E3E48D0
07EFD910
005C0000
00890000
00B60000
ENDCHAR
STARTCHAR uni0279
ENCODING 633
SWIDTH 600 0
DWIDTH 8 0
BBX 7 7 0 0
BITMAP
000004C0
00000790
00000A60
00000C30
00006F00
11188C00
5ED54900
ENDCHAR
STARTCHAR uni027A
ENCODING 634
SWIDTH 600 0
DWIDTH 8 0
BBX 8 10 0 0
BITMAP
00000088
000000C5
000000E1
000003D0
000006A0
00000970
00000C40
00006F10
11188D00
5ED54A00
ENDCHAR
STARTCHAR uni027B
ENCODING 635
SWIDTH 600 0
DWIDTH 8 0
BBX 6 10 0 -3
BITMAP
00004C
000079
0000A7
0000D4
0001F1
112AD0
5EC7A0
000770
000972
0005EB
ENDCHAR
STARTCHAR uni027D
ENCODING 637
SWIDTH 600 0
DWIDTH 8 0
BBX 7 10 1 -3
BITMAP
0683BE80
098A3110
0BA00000
0E200000
2E000000
5B000000
88000000
A6000000
9A141000
3DEB2000
ENDCHAR
STARTCHAR uni027E
ENCODING 638
SWIDTH 600 0
DWIDTH 8 0
BBX 7 7 1 0
BITMAP
005CEE70
04E51120
0A700000
0E200000
2E000000
5B000000
88000000
ENDCHAR
STARTCHAR uni0280
ENCODING 640
SWIDTH 600 0
DWIDTH 8 0
BBX 7 7 1 0
BITMAP
0BFFE900
0E203F20
2D005E00
5FFFC300
88097000
B503D000
E200D400
ENDCHAR
STARTCHAR uni0281
ENCODING 641
SWIDTH 600 0
DWIDTH 8 0
BBX 7 7 1 0
BITMAP
2E001F10
0B503D00
05B06A00
2BFFF700
C710C400
F400F100
8EFFD000
ENDCHAR
STARTCHAR uni0282
ENCODING 642
SWIDTH 600 0
DWIDTH 8 0
BBX 7 10 0 -3
BITMAP
006DFC40
02E204B0
01E50000
003BE800
00001A80
2C511980
6CCEEA10
96000000
97000000
4E800000
ENDCHAR
STARTCHAR uni0283
ENCODING 643
SWIDTH 600 0
DWIDTH 8 0
BBX 10 13 -1 -3
BITMAP
0000008ED6
000004D223
0000098000
00000C5000
00000F2000
00003E0000
00006B0000
0000980000
0000C50000
0000F20000
0003E00000
0419A00000
1BEB200000
ENDCHAR
STARTCHAR uni0284
ENCODING 644
SWIDTH 600 0
DWIDTH 8 0
BBX 10 13 -1 -3
BITMAP
0000008ED6
000004D223
0000098000
00000C5000
00000F2000
00003E0000
00BEFFFF20
0000880000
0000B50000
0000E20000
0003E00000
0419A00000
1BEB200000
ENDCHAR
STARTCHAR uni0287
ENCODING 647
SWIDTH 600 0
DWIDTH 8 0
BBX 7 9 0 -2
BITMAP
04CED400
02317C00
00004C00
00006900
00009600
0000D300
6FFFFFE0
0004B000
00077000
ENDCHAR
STARTCHAR uni0288
ENCODING 648
SWIDTH 600 0
DWIDTH 8 0
BBX 7 12 1 -3
BITMAP
00590000
00950000
DFFFFF80
01E00000
04C00000
07900000
0A600000
0D300000
1E000000
3D000000
2F315000
08EEA100
ENDCHAR
STARTCHAR uni0289
ENCODING 649
SWIDTH 600 0
DWIDTH 8 0
BBX 8 7 0 0
BITMAP
00F100E3
04C002E0
AFFFFFFE
09700890
0C400B60
0C618F30
06EC4D10
ENDCHAR
STARTCHAR uni028A
ENCODING 650
SWIDTH 600 0
DWIDTH 8 0
BBX 8 7 0 0
BITMAP
09FD0AFC
00A30580
087001E0
0E1001F0
2F0006C0
0E615E30
04DFC300
ENDCHAR
STARTCHAR uni028B
ENCODING 651
SWIDTH 600 0
DWIDTH 8 0
BBX 8 7 0 0
BITMAP
05B02FB1
088001D5
0B5000B5
0E2000E3
2F0006B0
0E505E30
05DFC300
ENDCHAR
STARTCHAR uni028C
ENCODING 652
SWIDTH 600 0
DWIDTH 8 0
BBX 7 7 0 0
BITMAP
0003F700
000C7A00
006A1E00
01D20D20
08800A50
2D100790
B50004C0
ENDCHAR
STARTCHAR uni028D
ENCODING 653
SWIDTH 600 0
DWIDTH 8 0
BBX 9 7 -1 0
BITMAP
000E905F50
005BA0BC50
00C6A2B960
03C2A85960
0972BC0960
1E11E80970
6A00920970
ENDCHAR
STARTCHAR uni028E
ENCODING 654
SWIDTH 600 0
DWIDTH 8 0
BBX 9 10 0 0
BITMAP
000001AEA0
00000A8110
00005B0000
0001E40000
0009B80000
003C3C0000
00C30E1000
07900B4000
2D10078000
B60004C000
ENDCHAR
STARTCHAR uni028F
ENCODING 655
SWIDTH 600 0
DWIDTH 8 0
BBX 7 7 1 0
BITMAP
5D000A70
0E407B00
0893D100
02EC3000
00C70000
00E30000
01F00000
ENDCHAR
STARTCHAR uni0290
ENCODING 656
SWIDTH 600 0
DWIDTH 8 0
BBX 8 10 0 -3
BITMAP
05FFFFF6
000009A0
00009A00
00099000
00A90000
0A900000
6FFFFF90
00000A60
00000C60
000006E6
ENDCHAR
STARTCHAR uni0291
ENCODING 657
SWIDTH 600 0
DWIDTH 8 0
BBX 8 9 0 -2
BITMAP
05FFFFF4
00000A80
0000A800
000A8000
00A707EA
0B80694B
7FFFFEB3
00057000
00092000
ENDCHAR
STARTCHAR uni0292
ENCODING 658
SWIDTH 600 0
DWIDTH 8 0
BBX 9 10 -1 -3
BITMAP
001FFFFF50
0000009600
00001B4000
0003C30000
001EFE8000
000203E400
000000A700
000000D400
1B402AA000
05CFD70000
ENDCHAR
STARTCHAR uni0294
ENCODING 660
SWIDTH 600 0
DWIDTH 8 0
BBX 6 10 2 0
BITMAP
3BEE90
B512C7
000089
0000B5
0009A0
05C700
0D3000
1F0000
4C0000
790000
ENDCHAR
STARTCHAR uni0295
ENCODING 661
SWIDTH 600 0
DWIDTH 8 0
BBX 6 10 2 0
BITMAP
07DEB2
8C315C
D40000
E30000
9A0000
0BA000
03E000
06B000
097000
0C4000
ENDCHAR
STARTCHAR uni0298
ENCODING 664
SWIDTH 600 0
DWIDTH 8 0
BBX 8 10 0 0
BITMAP
0007DE80
008C22C5
03E1006A
0980005B
0D33D16A
0F15D187
1F0000D3
0F1005C0
0B815E30
02BEC400
ENDCHAR
STARTCHAR uni0299
ENCODING 665
SWIDTH 600 0
DWIDTH 8 0
BBX 7 7 1 0
BITMAP
0DFFE900
1F102F20
3D005D00
6FFFE300
98007C00
C4019A00
FFFEA100
ENDCHAR
STARTCHAR uni029C
ENCODING 668
SWIDTH 600 0
DWIDTH 8 0
BBX 8 7 0 0
BITMAP
04C00097
07A000C4
0A7000E1
0DFFFFD0
1F1005B0
3D000880
6A000B50
ENDCHAR
STARTCHAR uni029D
ENCODING 669
SWIDTH 600 0
DWIDTH 8 0
BBX 7 14 0 -4
BITMAP
00000B90
00000C80
00000000
01FFFF20
00002E00
00005B00
00008800
0000B500
0000E200
0002E000
6EEBA000
E34EA000
8ED6E200
00008400
ENDCHAR
STARTCHAR uni029E
ENCODING 670
SWIDTH 600 0
DWIDTH 8 0
BBX 8 10 0 -3
BITMAP
0B5000B5
04D000D2
00B606E0
003DCBB0
004E4880
06D20B50
7B100E30
00001E00
00004C00
00007900
ENDCHAR
STARTCHAR uni029F
ENCODING 671
SWIDTH 600 0
DWIDTH 8 0
BBX 6 7 1 0
BITMAP
04C000
079000
0A6000
0D3000
1F0000
4C0000
7FFFFC
ENDCHAR
STARTCHAR uni02A1
ENCODING 673
SWIDTH 600 0
DWIDTH 8 0
BBX 7 10 1 0
BITMAP
03BEE800
0B512D70
00000890
00000A60
00006C00
00299100
BEFFFE00
00F10000
03D00000
07900000
ENDCHAR
STARTCHAR uni02A2
ENCODING 674
SWIDTH 600 0
DWIDTH 8 0
BBX 7 10 1 0
BITMAP
007DEB20
07C315C0
0D400000
0E300000
0A800000
01C60000
9EFFFF10
004C0000
00880000
00C50000
ENDCHAR
STARTCHAR uni02A4
ENCODING 676
SWIDTH 600 0
DWIDTH 8 0
BBX 11 13 -1 -3
BITMAP
000004C00000
000007800000
00000A500000
007EBCFFFF10
06D26E009600
0D404B078000
1E00785A0000
3D00A5EF8000
1F25F213F100
09E8D000E100
00000003D000
0000732C6000
00005EE70000
ENDCHAR
STARTCHAR uni02A6
ENCODING 678
SWIDTH 600 0
DWIDTH 8 0
BBX 8 9 0 0
BITMAP
00950000
00D10000
3FFFFFE8
06A09814
09707B10
0C4008D1
0F1000B5
0F5114D3
05DFEC50
ENDCHAR
STARTCHAR uni02A7
ENCODING 679
SWIDTH 600 0
DWIDTH 8 0
BBX 9 13 1 -3
BITMAP
000001AE50
02C007C100
06900B7000
AFFFFF3000
0D302F1000
1E005C0000
5B00890000
8800B60000
9810E30000
4ED2F00000
0005C00000
001A800000
03EB100000
ENDCHAR
STARTCHAR h.sups
ENCODING 688
SWIDTH 600 0
DWIDTH 8 0
BBX 6 7 2 5
BITMAP
02A000
058000
088DD1
0B71B3
0D00C1
1B00C0
470290
ENDCHAR
STARTCHAR j.sups
ENCODING 690
SWIDTH 600 0
DWIDTH 8 0
BBX 6 9 1 3
BITMAP
000068
000000
00AFF1
0000C0
0001B0
000480
000750
031C10
1CE700
ENDCHAR
STARTCHAR r.sups
ENCODING 691
SWIDTH 600 0
DWIDTH 8 0
BBX 5 5 3 5
BITMAP
0B8E60
1F6000
4A0000
670000
830000
ENDCHAR
STARTCHAR w.sups
ENCODING 695
SWIDTH 600 0
DWIDTH 8 0
BBX 7 5 2 5
BITMAP
C05A0920
C0BA1B00
B49A7500
AB2AB000
8A0B7000
ENDCHAR
STARTCHAR y.sups
ENCODING 696
SWIDTH 600 0
DWIDTH 8 0
BBX 7 7 1 3
BITMAP
00C00940
00933B00
0066B300
003CA000
000E2000
01790000
1EB10000
ENDCHAR
STARTCHAR uni02B9
ENCODING 697
SWIDTH 600 0
DWIDTH 8 0
BBX 2 4 4 6
BITMAP
1E
5A
84
B0
ENDCHAR
STARTCHAR uni02BB
ENCODING 699
SWIDTH 600 0
DWIDTH 8 0
BBX 4 5 3 5
BITMAP
0079
09B2
3D10
6FA0
3E80
ENDCHAR
STARTCHAR uni02BC
ENCODING 700
SWIDTH 600 0
DWIDTH 8 0
BBX 4 5 3 5
BITMAP
0AD1
0CF3
02E1
3C70
A600
ENDCHAR
STARTCHAR uni02BE
ENCODING 702
SWIDTH 600 0
DWIDTH 8 0
BBX 4 5 3 7
BITMAP
0BA0
01A5
0085
17B1
2400
ENDCHAR
STARTCHAR uni02BF
ENCODING 703
SWIDTH 600 0
DWIDTH 8 0
BBX 3 5 4 7
BITMAP
0240
6B40
D000
D300
4D30
ENDCHAR
STARTCHAR uni02C1
ENCODING 705
SWIDTH 600 0
DWIDTH 8 0
BBX 5 6 3 6
BITMAP
08EB10
591440
840000
3B1000
077000
063000
ENDCHAR
STARTCHAR circumflex
ENCODING 710
SWIDTH 600 0
DWIDTH 8 0
BBX 4 2 3 8
BITMAP
1BD4
A31A
ENDCHAR
STARTCHAR caron
ENCODING 711
SWIDTH 600 0
DWIDTH 8 0
BBX 5 2 3 8
BITMAP
841930
1DC400
ENDCHAR
STARTCHAR uni02C8
ENCODING 712
SWIDTH 600 0
DWIDTH 8 0
BBX 2 5 4 5
BITMAP
6D
89
A5
C1
40
ENDCHAR
STARTCHAR uni02C9
ENCODING 713
SWIDTH 600 0
DWIDTH 8 0
BBX 4 1 3 8
BITMAP
AFFD
ENDCHAR
STARTCHAR uni02CA
ENCODING 714
SWIDTH 600 0
DWIDTH 8 0
BBX 3 3 4 8
BITMAP
02A0
2D60
9400
ENDCHAR
STARTCHAR uni02CB
ENCODING 715
SWIDTH 600 0
DWIDTH 8 0
BBX 3 3 3 8
BITMAP
2B00
0B70
01B0
ENDCHAR
STARTCHAR uni02CC
ENCODING 716
SWIDTH 600 0
DWIDTH 8 0
BBX 2 4 2 -3
BITMAP
0C
4A
98
D6
ENDCHAR
STARTCHAR uni02D0
ENCODING 720
SWIDTH 600 0
DWIDTH 8 0
BBX 4 7 2 0
BITMAP
05F7
01A0
0000
0000
0000
0A10
7F60
ENDCHAR
STARTCHAR uni02D1
ENCODING 721
SWIDTH 600 0
DWIDTH 8 0
BBX 3 2 3 5
BITMAP
5F70
1A00
ENDCHAR
STARTCHAR breve
ENCODING 728
SWIDTH 600 0
DWIDTH 8 0
BBX 5 3 3 8
BITMAP
100000
C31A50
5EE700
ENDCHAR
STARTCHAR dotaccent
ENCODING 729
SWIDTH 600 0
DWIDTH 8 0
BBX 2 2 4 8
BITMAP
8D
8C
ENDCHAR
STARTCHAR ring
ENCODING 730
SWIDTH 600 0
DWIDTH 8 0
BBX 4 4 3 8
BITMAP
09E4
3A39
4858
1DC1
ENDCHAR
STARTCHAR ogonek
ENCODING 731
SWIDTH 600 0
DWIDTH 8 0
BBX 4 3 1 -3
BITMAP
0650
2A10
2DD2
ENDCHAR
STARTCHAR tilde
ENCODING 732
SWIDTH 600 0
DWIDTH 8 0
BBX 6 3 2 8
BITMAP
002001
0BC749
380BD2
ENDCHAR
STARTCHAR hungarumlaut
ENCODING 733
SWIDTH 600 0
DWIDTH 8 0
BBX 5 3 3 8
BITMAP
01A0B0
095870
291A00
ENDCHAR
STARTCHAR uni02DE
ENCODING 734
SWIDTH 600 0
DWIDTH 8 0
BBX 5 3 2 3
BITMAP
028100
1AC300
005E20
ENDCHAR
STARTCHAR uni02E0
ENCODING 736
SWIDTH 600 0
DWIDTH 8 0
BBX 5 7 3 3
BITMAP
C00660
921B00
66A300
2D9000
2C4000
966000
9D2000
ENDCHAR
STARTCHAR l.sups
ENCODING 737
SWIDTH 600 0
DWIDTH 8 0
BBX 3 7 4 5
BITMAP
CF10
0B00
2A00
5600
8300
B210
8E50
ENDCHAR
STARTCHAR s.sups
ENCODING 738
SWIDTH 600 0
DWIDTH 8 0
BBX 5 5 2 5
BITMAP
04DE60
086150
017710
161860
09FC20
ENDCHAR
STARTCHAR x.sups
ENCODING 739
SWIDTH 600 0
DWIDTH 8 0
BBX 6 5 2 5
BITMAP
0672B1
00CB20
01C800
0B3C10
340430
ENDCHAR
STARTCHAR uni02E4
ENCODING 740
SWIDTH 600 0
DWIDTH 8 0
BBX 5 7 3 5
BITMAP
08EB10
591440
840000
3B1000
077000
084000
0B1000
ENDCHAR
STARTCHAR uni0300
ENCODING 768
SWIDTH 600 0
DWIDTH 8 0
BBX 3 3 3 8
BITMAP
2B00
0B70
01B0
ENDCHAR
STARTCHAR uni0301
ENCODING 769
SWIDTH 600 0
DWIDTH 8 0
BBX 3 3 4 8
BITMAP
02A0
2D60
9400
ENDCHAR
STARTCHAR uni0302
ENCODING 770
SWIDTH 600 0
DWIDTH 8 0
BBX 4 2 3 8
BITMAP
1BD4
A31A
ENDCHAR
STARTCHAR uni0303
ENCODING 771
SWIDTH 600 0
DWIDTH 8 0
BBX 6 3 2 8
BITMAP
002001
0BC749
380BD2
ENDCHAR
STARTCHAR uni0304
ENCODING 772
SWIDTH 600 0
DWIDTH 8 0
BBX 4 1 3 8
BITMAP
AFFD
ENDCHAR
STARTCHAR uni0305
ENCODING 773
SWIDTH 600 0
DWIDTH 8 0
BBX 4 1 3 8
BITMAP
AFFD
ENDCHAR
STARTCHAR uni0306
ENCODING 774
SWIDTH 600 0
DWIDTH 8 0
BBX 5 3 3 8
BITMAP
100000
C31A50
5EE700
ENDCHAR
STARTCHAR uni0307
ENCODING 775
SWIDTH 600 0
DWIDTH 8 0
BBX 2 2 4 8
BITMAP
8D
8C
ENDCHAR
STARTCHAR uni0308
ENCODING 776
SWIDTH 600 0
DWIDTH 8 0
BBX 4 1 3 8
BITMAP
A52D
ENDCHAR
STARTCHAR uni0309
ENCODING 777
SWIDTH 600 0
DWIDTH 8 0
BBX 3 3 4 8
BITMAP
8C10
1C40
7900
ENDCHAR
STARTCHAR uni030A
ENCODING 778
SWIDTH 600 0
DWIDTH 8 0
BBX 4 4 3 8
BITMAP
09E4
3A39
4858
1DC1
ENDCHAR
STARTCHAR uni030B
ENCODING 779
SWIDTH 600 0
DWIDTH 8 0
BBX 5 3 3 8
BITMAP
01A0B0
095870
291A00
ENDCHAR
STARTCHAR uni030C
ENCODING 780
SWIDTH 600 0
DWIDTH 8 0
BBX 5 2 3 8
BITMAP
841930
1DC400
ENDCHAR
STARTCHAR uni030F
ENCODING 783
SWIDTH 600 0
DWIDTH 8 0
BBX 5 3 2 8
BITMAP
574800
2B1C00
0A0910
ENDCHAR
STARTCHAR uni0310
ENCODING 784
SWIDTH 600 0
DWIDTH 8 0
BBX 5 4 3 8
BITMAP
019100
14F200
C24860
6EE800
ENDCHAR
STARTCHAR uni0311
ENCODING 785
SWIDTH 600 0
DWIDTH 8 0
BBX 6 3 2 7
BITMAP
04CE90
1C21C1
010010
ENDCHAR
STARTCHAR uni0312
ENCODING 786
SWIDTH 600 0
DWIDTH 8 0
BBX 2 2 4 8
BITMAP
56
A7
ENDCHAR
STARTCHAR uni0313
ENCODING 787
SWIDTH 600 0
DWIDTH 8 0
BBX 2 2 4 8
BITMAP
5D
47
ENDCHAR
STARTCHAR uni0318
ENCODING 792
SWIDTH 600 0
DWIDTH 8 0
BBX 4 3 1 -4
BITMAP
0074
2FF1
00A0
ENDCHAR
STARTCHAR uni0319
ENCODING 793
SWIDTH 600 0
DWIDTH 8 0
BBX 3 3 1 -4
BITMAP
1900
4FE0
6400
ENDCHAR
STARTCHAR uni031A
ENCODING 794
SWIDTH 600 0
DWIDTH 8 0
BBX 3 3 4 7
BITMAP
3FF0
00A0
0030
ENDCHAR
STARTCHAR uni031B
ENCODING 795
SWIDTH 600 0
DWIDTH 8 0
BBX 3 3 4 6
BITMAP
00C0
05C0
6C30
ENDCHAR
STARTCHAR uni031C
ENCODING 796
SWIDTH 600 0
DWIDTH 8 0
BBX 3 3 1 -4
BITMAP
08B0
1C10
0C50
ENDCHAR
STARTCHAR uni031D
ENCODING 797
SWIDTH 600 0
DWIDTH 8 0
BBX 4 2 1 -3
BITMAP
0560
8FF2
ENDCHAR
STARTCHAR uni031E
ENCODING 798
SWIDTH 600 0
DWIDTH 8 0
BBX 4 2 1 -3
BITMAP
5FF5
0820
ENDCHAR
STARTCHAR uni031F
ENCODING 799
SWIDTH 600 0
DWIDTH 8 0
BBX 4 3 1 -4
BITMAP
0460
6FF3
0910
ENDCHAR
STARTCHAR uni0320
ENCODING 800
SWIDTH 600 0
DWIDTH 8 0
BBX 4 1 1 -3
BITMAP
6FF3
ENDCHAR
STARTCHAR uni0323
ENCODING 803
SWIDTH 600 0
DWIDTH 8 0
BBX 2 2 2 -4
BITMAP
B9
C8
ENDCHAR
STARTCHAR uni0324
ENCODING 804
SWIDTH 600 0
DWIDTH 8 0
BBX 4 1 1 -3
BITMAP
C24B
ENDCHAR
STARTCHAR uni0325
ENCODING 805
SWIDTH 600 0
DWIDTH 8 0
BBX 4 4 1 -3
BITMAP
1CD1
7675
8494
3EA0
ENDCHAR
STARTCHAR uni0326
ENCODING 806
SWIDTH 600 0
DWIDTH 8 0
BBX 3 2 1 -3
BITMAP
09C0
7E80
ENDCHAR
STARTCHAR uni0327
ENCODING 807
SWIDTH 600 0
DWIDTH 8 0
BBX 3 4 1 -4
BITMAP
0370
0AB0
03D0
8C40
ENDCHAR
STARTCHAR uni0328
ENCODING 808
SWIDTH 600 0
DWIDTH 8 0
BBX 4 3 1 -3
BITMAP
0650
2A10
2DD2
ENDCHAR
STARTCHAR uni0329
ENCODING 809
SWIDTH 600 0
DWIDTH 8 0
BBX 2 3 2 -4
BITMAP
56
84
B2
ENDCHAR
STARTCHAR uni032A
ENCODING 810
SWIDTH 600 0
DWIDTH 8 0
BBX 4 3 1 -4
BITMAP
AFFA
A018
3012
ENDCHAR
STARTCHAR uni032C
ENCODING 812
SWIDTH 600 0
DWIDTH 8 0
BBX 5 2 1 -3
BITMAP
A22A10
3DC200
ENDCHAR
STARTCHAR uni032E
ENCODING 814
SWIDTH 600 0
DWIDTH 8 0
BBX 5 3 1 -3
BITMAP
100000
D12C20
8ED500
ENDCHAR
STARTCHAR uni032F
ENCODING 815
SWIDTH 600 0
DWIDTH 8 0
BBX 5 3 0 -4
BITMAP
06DE60
3B12C0
000010
ENDCHAR
STARTCHAR uni0330
ENCODING 816
SWIDTH 600 0
DWIDTH 8 0
BBX 6 3 0 -3
BITMAP
011001
1CC476
561CC1
ENDCHAR
STARTCHAR uni0331
ENCODING 817
SWIDTH 600 0
DWIDTH 8 0
BBX 4 1 1 -3
BITMAP
DFFA
ENDCHAR
STARTCHAR uni0334
ENCODING 820
SWIDTH 600 0
DWIDTH 8 0
BBX 6 3 1 2
BITMAP
033003
3DD558
831BD1
ENDCHAR
STARTCHAR uni0339
ENCODING 825
SWIDTH 600 0
DWIDTH 8 0
BBX 2 3 2 -4
BITMAP
98
2C
E5
ENDCHAR
STARTCHAR uni033A
ENCODING 826
SWIDTH 600 0
DWIDTH 8 0
BBX 4 3 1 -3
BITMAP
3003
9009
DFF7
ENDCHAR
STARTCHAR uni033B
ENCODING 827
SWIDTH 600 0
DWIDTH 8 0
BBX 4 3 1 -4
BITMAP
9FFB
A019
EFF6
ENDCHAR
STARTCHAR uni033C
ENCODING 828
SWIDTH 600 0
DWIDTH 8 0
BBX 6 2 0 -3
BITMAP
1CBAD0
7594A1
ENDCHAR
STARTCHAR uni033D
ENCODING 829
SWIDTH 600 0
DWIDTH 8 0
BBX 3 3 4 7
BITMAP
9830
AC00
2200
ENDCHAR
STARTCHAR uni0342
ENCODING 834
SWIDTH 600 0
DWIDTH 8 0
BBX 6 3 2 8
BITMAP
002001
0BC749
380BD2
ENDCHAR
STARTCHAR uni0345
ENCODING 837
SWIDTH 600 0
DWIDTH 8 0
BBX 3 2 2 -3
BITMAP
6700
5E10
ENDCHAR
STARTCHAR uni035F
ENCODING 863
SWIDTH 600 0
DWIDTH 8 0
BBX 14 1 -4 -2
BITMAP
DFFFFFFFFFFFFC
ENDCHAR
STARTCHAR uni0361
ENCODING 865
SWIDTH 600 0
DWIDTH 8 0
BBX 14 3 -2 8
BITMAP
00038CEFEB7100
02BB6310149D60
1B3000000001A3
ENDCHAR
STARTCHAR pi
ENCODING 960
SWIDTH 600 0
DWIDTH 8 0
BBX 9 7 0 0
BITMAP
0EFFFFFF40
00C203C000
01E0078000
04B00A5000
08800D1000
0C401E1000
1E100DC000
ENDCHAR
STARTCHAR a.sups
ENCODING 7491
SWIDTH 600 0
DWIDTH 8 0
BBX 6 5 2 5
BITMAP
05DDB1
2D32D0
6602A0
791870
2DD630
ENDCHAR
STARTCHAR b.sups
ENCODING 7495
SWIDTH 600 0
DWIDTH 8 0
BBX 6 7 2 5
BITMAP
026000
066000
099EB0
0C41C2
1C00B1
4B15C0
48EC20
ENDCHAR
STARTCHAR d.sups
ENCODING 7496
SWIDTH 600 0
DWIDTH 8 0
BBX 6 7 2 5
BITMAP
000045
000085
05DCC2
3D22D0
7602A0
781870
2DD730
ENDCHAR
STARTCHAR e.sups
ENCODING 7497
SWIDTH 600 0
DWIDTH 8 0
BBX 5 5 2 5
BITMAP
03CE70
0B31C0
3FFFD0
3A1330
09EC20
ENDCHAR
STARTCHAR g.sups
ENCODING 7501
SWIDTH 600 0
DWIDTH 8 0
BBX 6 7 2 3
BITMAP
04DDB1
2D31D0
6701B0
791880
2DDB50
412D20
7ED600
ENDCHAR
STARTCHAR k.sups
ENCODING 7503
SWIDTH 600 0
DWIDTH 8 0
BBX 6 8 2 5
BITMAP
001000
00C000
03A000
067194
095B20
0CBC20
0D05A0
150070
ENDCHAR
STARTCHAR m.sups
ENCODING 7504
SWIDTH 600 0
DWIDTH 8 0
BBX 8 5 1 5
BITMAP
0B9E7CC0
1E37B1C1
490840C0
660B11B0
830A0370
ENDCHAR
STARTCHAR o.sups
ENCODING 7506
SWIDTH 600 0
DWIDTH 8 0
BBX 5 5 2 5
BITMAP
04CE70
1D32E0
5700D0
5916A0
1BEA10
ENDCHAR
STARTCHAR p.sups
ENCODING 7510
SWIDTH 600 0
DWIDTH 8 0
BBX 6 7 2 3
BITMAP
098EC1
0C51B4
0D00A3
3C14D0
6BEC30
840000
610000
ENDCHAR
STARTCHAR t.sups
ENCODING 7511
SWIDTH 600 0
DWIDTH 8 0
BBX 5 7 3 5
BITMAP
014000
075000
DFFF30
0C0000
1C0000
3B1100
1DE600
ENDCHAR
STARTCHAR u.sups
ENCODING 7512
SWIDTH 600 0
DWIDTH 8 0
BBX 6 5 2 5
BITMAP
0C10B2
0C00D0
2901C0
491990
2ED860
ENDCHAR
STARTCHAR v.sups
ENCODING 7515
SWIDTH 600 0
DWIDTH 8 0
BBX 5 5 3 5
BITMAP
C00B20
B25900
84C200
6A9000
4E1000
ENDCHAR
STARTCHAR c.sups
ENCODING 7580
SWIDTH 600 0
DWIDTH 8 0
BBX 5 5 2 5
BITMAP
01AE90
0B6130
1C0000
1E2320
07EC20
ENDCHAR
STARTCHAR f.sups
ENCODING 7584
SWIDTH 600 0
DWIDTH 8 0
BBX 5 7 3 5
BITMAP
008EB0
03C120
7FFF40
085000
0B2000
0C0000
1A0000
ENDCHAR
STARTCHAR z.sups
ENCODING 7611
SWIDTH 600 0
DWIDTH 8 0
BBX 6 5 2 5
BITMAP
0BFFE1
000830
007300
074000
6FFF70
ENDCHAR
STARTCHAR uni1E06
ENCODING 7686
SWIDTH 600 0
DWIDTH 8 0
BBX 8 12 0 -3
BITMAP
00AFFEA1
00D302B8
01F00098
04D458C1
08DBBD50
0B6001E2
0E2000D3
2E0028D0
5FFFD920
00000000
00000000
0AFFE000
ENDCHAR
STARTCHAR uni1E07
ENCODING 7687
SWIDTH 600 0
DWIDTH 8 0
BBX 8 13 0 -3
BITMAP
00970000
00C40000
00F10000
03C6DE90
06E713E4
097000A7
0C4000B6
0E1002E2
3F613C80
699ED700
00000000
00000000
09FFE000
ENDCHAR
STARTCHAR uni1E0C
ENCODING 7692
SWIDTH 600 0
DWIDTH 8 0
BBX 8 13 0 -4
BITMAP
00EFEB40
02E016E3
06B00089
0980005B
0C50006B
0E1000A8
3D0003F2
6A016E60
9FFEB400
00000000
00000000
00D70000
01D60000
ENDCHAR
STARTCHAR uni1E0D
ENCODING 7693
SWIDTH 600 0
DWIDTH 8 0
BBX 9 14 0 -4
BITMAP
0000000C50
0000000E20
0000003E00
004CFC7B00
04E514E700
0C5000C400
2E0000F100
4D0003D000
1F514DA000
06EE877000
0000000000
0000000000
008C000000
009B000000
ENDCHAR
STARTCHAR uni1E0E
ENCODING 7694
SWIDTH 600 0
DWIDTH 8 0
BBX 8 12 0 -3
BITMAP
00EFEB40
02E016E3
06B00089
0980005B
0C50006B
0E1000A8
3D0003F2
6A016E60
9FFEB400
00000000
00000000
0FFF8000
ENDCHAR
STARTCHAR uni1E0F
ENCODING 7695
SWIDTH 600 0
DWIDTH 8 0
BBX 9 13 0 -3
BITMAP
0000000C50
0000000E20
0000003E00
004CFC7B00
04E514E700
0C5000C400
2E0000F100
4D0003D000
1F514DA000
06EE877000
0000000000
0000000000
0AFFE00000
ENDCHAR
STARTCHAR uni1E10
ENCODING 7696
SWIDTH 600 0
DWIDTH 8 0
BBX 8 13 0 -4
BITMAP
00EFEB40
02E016E3
06B00089
0980005B
0C50006B
0E1000A8
3D0003F2
6A016E60
9FFEB400
00640000
00D80000
006B0000
0BB20000
ENDCHAR
STARTCHAR uni1E11
ENCODING 7697
SWIDTH 600 0
DWIDTH 8 0
BBX 9 14 0 -4
BITMAP
0000000C50
0000000E20
0000003E00
004CFC7B00
04E514E700
0C5000C400
2E0000F100
4D0003D000
1F514DA000
06EE877000
0046000000
00BA000000
004D000000
09C4000000
ENDCHAR
STARTCHAR uni1E16
ENCODING 7702
SWIDTH 600 0
DWIDTH 8 0
BBX 9 14 0 0
BITMAP
0000004900
000002A100
0000000000
0000DFFB00
0000000000
006FFFFF40
0097000000
00C4000000
01F1000000
04FFFFB000
07A0000000
0A70000000
0D30000000
1FFFFFB000
ENDCHAR
STARTCHAR uni1E17
ENCODING 7703
SWIDTH 600 0
DWIDTH 8 0
BBX 8 12 0 0
BITMAP
000002A0
00000920
00000000
0009FFF0
00000000
003BFD50
03E613E1
0C6000A4
1FFFFFF4
1F000000
0C811670
02BEE910
ENDCHAR
STARTCHAR uni1E20
ENCODING 7712
SWIDTH 600 0
DWIDTH 8 0
BBX 8 11 0 0
BITMAP
0000FFF9
00000000
0006CFC3
009D404A
05D10000
0C600000
1F206FF8
2F0000A5
0F3000D2
09C215E0
019DFB30
ENDCHAR
STARTCHAR uni1E21
ENCODING 7713
SWIDTH 600 0
DWIDTH 8 0
BBX 8 12 0 -3
BITMAP
0007FFF1
00000000
004CFC6A
04E514E7
0C5000C4
2F0000E1
3E0003D0
1E726DA0
04CD8970
00000C30
55118C00
3CFE9100
ENDCHAR
STARTCHAR uni1E24
ENCODING 7716
SWIDTH 600 0
DWIDTH 8 0
BBX 9 13 0 -4
BITMAP
00F1000E20
03D0002E00
06A0005B00
0970008800
0CFFFFF500
1F2000E200
4D0002E000
7A0005A000
A700097000
0000000000
0000000000
00B9000000
00C8000000
ENDCHAR
STARTCHAR uni1E25
ENCODING 7717
SWIDTH 600 0
DWIDTH 8 0
BBX 8 14 0 -4
BITMAP
00970000
00C40000
00F10000
03D3BEC1
06D921D6
099000B5
0C4000E2
0F1002E0
3D0005B0
6A000880
00000000
00000000
007D0000
008C0000
ENDCHAR
STARTCHAR uni1E26
ENCODING 7718
SWIDTH 600 0
DWIDTH 8 0
BBX 9 11 0 0
BITMAP
000490A400
0000000000
00F1000E20
03D0002E00
06A0005B00
0970008800
0CFFFFF500
1F2000E200
4D0002E000
7A0005A000
A700097000
ENDCHAR
STARTCHAR uni1E27
ENCODING 7719
SWIDTH 600 0
DWIDTH 8 0
BBX 8 12 0 0
BITMAP
0670C200
00000000
00970000
00C40000
00F10000
03D3BEC1
06D921D6
099000B5
0C4000E2
0F1002E0
3D0005B0
6A000880
ENDCHAR
STARTCHAR uni1E28
ENCODING 7720
SWIDTH 600 0
DWIDTH 8 0
BBX 11 13 -2 -4
BITMAP
0000F1000E20
0003D0002E00
0006A0005B00
000970008800
000CFFFFF500
001F2000E200
004D0002E000
007A0005A000
00A700097000
009100000000
02E400000000
01A600000000
1E9000000000
ENDCHAR
STARTCHAR uni1E29
ENCODING 7721
SWIDTH 600 0
DWIDTH 8 0
BBX 9 14 -1 -4
BITMAP
0009700000
000C400000
000F100000
003D3BEC10
006D921D60
0099000B50
00C4000E20
00F1002E00
03D0005B00
06A0008800
0730000000
0E70000000
0790000000
CB20000000
ENDCHAR
STARTCHAR uni1E2A
ENCODING 7722
SWIDTH 600 0
DWIDTH 8 0
BBX 9 12 0 -3
BITMAP
00F1000E20
03D0002E00
06A0005B00
0970008800
0CFFFFF500
1F2000E200
4D0002E000
7A0005A000
A700097000
0100000000
0D12C20000
08ED500000
ENDCHAR
STARTCHAR uni1E2B
ENCODING 7723
SWIDTH 600 0
DWIDTH 8 0
BBX 8 13 0 -3
BITMAP
00970000
00C40000
00F10000
03D3BEC1
06D921D6
099000B5
0C4000E2
0F1002E0
3D0005B0
6A000880
01000000
0B419600
04DE8000
ENDCHAR
STARTCHAR uni1E32
ENCODING 7730
SWIDTH 600 0
DWIDTH 8 0
BBX 9 13 0 -4
BITMAP
00A6003D30
00D303D300
01F04C2000
04C4E20000
07CCE30000
0AC17A0000
0E301E2000
2E00099000
5C0003E100
0000000000
0000000000
001D500000
002E400000
ENDCHAR
STARTCHAR uni1E33
ENCODING 7731
SWIDTH 600 0
DWIDTH 8 0
BBX 8 14 0 -4
BITMAP
006A0000
00970000
00C40000
00F100A9
03D01C80
06A2D700
09BDD500
0CD24C00
0F100C50
3D0004D0
00000000
00000000
003E4000
003E3000
ENDCHAR
STARTCHAR uni1E34
ENCODING 7732
SWIDTH 600 0
DWIDTH 8 0
BBX 9 12 0 -3
BITMAP
00A6003D30
00D303D300
01F04C2000
04C4E20000
07CCE30000
0AC17A0000
0E301E2000
2E00099000
5C0003E100
0000000000
0000000000
02FFF60000
ENDCHAR
STARTCHAR uni1E35
ENCODING 7733
SWIDTH 600 0
DWIDTH 8 0
BBX 8 13 0 -3
BITMAP
006A0000
00970000
00C40000
00F100A9
03D01C80
06A2D700
09BDD500
0CD24C00
0F100C50
3D0004D0
00000000
00000000
04FFF500
ENDCHAR
STARTCHAR uni1E36
ENCODING 7734
SWIDTH 600 0
DWIDTH 8 0
BBX 7 13 1 -4
BITMAP
00D30000
01F00000
04C00000
07900000
0A600000
0E300000
2E000000
5B000000
8FFFFF20
00000000
00000000
00B90000
00C80000
ENDCHAR
STARTCHAR uni1E37
ENCODING 7735
SWIDTH 600 0
DWIDTH 8 0
BBX 5 14 2 -4
BITMAP
EFF500
00D200
01E000
05B000
088000
0B4000
0E1000
2D0000
3E2210
0AFD30
000000
000000
08C000
09B000
ENDCHAR
STARTCHAR uni1E38
ENCODING 7736
SWIDTH 600 0
DWIDTH 8 0
BBX 7 15 1 -4
BITMAP
0BFFD000
00000000
00D30000
01F00000
04C00000
07900000
0A600000
0E300000
2E000000
5B000000
8FFFFF20
00000000
00000000
00B90000
00C80000
ENDCHAR
STARTCHAR uni1E39
ENCODING 7737
SWIDTH 600 0
DWIDTH 8 0
BBX 5 16 2 -4
BITMAP
0AFFE0
000000
EFF500
00D200
01E000
05B000
088000
0B4000
0E1000
2D0000
3E2210
0AFD30
000000
000000
08C000
09B000
ENDCHAR
STARTCHAR uni1E3A
ENCODING 7738
SWIDTH 600 0
DWIDTH 8 0
BBX 7 12 1 -3
BITMAP
00D30000
01F00000
04C00000
07900000
0A600000
0E300000
2E000000
5B000000
8FFFFF20
00000000
00000000
0DFFA000
ENDCHAR
STARTCHAR uni1E3B
ENCODING 7739
SWIDTH 600 0
DWIDTH 8 0
BBX 5 13 2 -3
BITMAP
EFF500
00D200
01E000
05B000
088000
0B4000
0E1000
2D0000
3E2210
0AFD30
000000
000000
AFFE00
ENDCHAR
STARTCHAR uni1E3E
ENCODING 7742
SWIDTH 600 0
DWIDTH 8 0
BBX 9 12 0 0
BITMAP
000002B200
00003B3000
0000000000
01F6005F20
04D800CD00
07AA07AB00
0A6C1C7800
0D2C86A500
1E0BC0D200
4B0631E000
780004B000
A500078000
ENDCHAR
STARTCHAR uni1E3F
ENCODING 7743
SWIDTH 600 0
DWIDTH 8 0
BBX 8 11 0 0
BITMAP
000001B1
00001C80
00007600
00000000
0B6DB6DB
0E82F74E
2E02D04C
5B05A078
880970A5
B50C40E2
E20E12E0
ENDCHAR
STARTCHAR uni1E40
ENCODING 7744
SWIDTH 600 0
DWIDTH 8 0
BBX 9 11 0 0
BITMAP
00002D1000
0000000000
01F6005F20
04D800CD00
07AA07AB00
0A6C1C7800
0D2C86A500
1E0BC0D200
4B0631E000
780004B000
A500078000
ENDCHAR
STARTCHAR uni1E41
ENCODING 7745
SWIDTH 600 0
DWIDTH 8 0
BBX 8 10 0 0
BITMAP
00005E10
00006D10
00000000
0B6DB6DB
0E82F74E
2E02D04C
5B05A078
880970A5
B50C40E2
E20E12E0
ENDCHAR
STARTCHAR uni1E42
ENCODING 7746
SWIDTH 600 0
DWIDTH 8 0
BBX 9 13 0 -4
BITMAP
01F6005F20
04D800CD00
07AA07AB00
0A6C1C7800
0D2C86A500
1E0BC0D200
4B0631E000
780004B000
A500078000
0000000000
0000000000
00B9000000
00C8000000
ENDCHAR
STARTCHAR uni1E43
ENCODING 7747
SWIDTH 600 0
DWIDTH 8 0
BBX 8 11 0 -4
BITMAP
0B6DB6DB
0E82F74E
2E02D04C
5B05A078
880970A5
B50C40E2
E20E12E0
00000000
00000000
009B0000
00AA0000
ENDCHAR
STARTCHAR uni1E44
ENCODING 7748
SWIDTH 600 0
DWIDTH 8 0
BBX 9 11 0 0
BITMAP
00002D1000
0000000000
00E7000E10
02DC002D00
059D206A00
0878609700
0B43B0C400
0E10D1E100
2D0097D000
5A004DA000
87000E7000
ENDCHAR
STARTCHAR uni1E45
ENCODING 7749
SWIDTH 600 0
DWIDTH 8 0
BBX 8 10 0 0
BITMAP
00005E10
00006D10
00000000
04A3BEC1
07DA21D6
099000B5
0C4000E2
0F1002E0
3D0005B0
6A000880
ENDCHAR
STARTCHAR uni1E46
ENCODING 7750
SWIDTH 600 0
DWIDTH 8 0
BBX 9 13 0 -4
BITMAP
00E7000E10
02DC002D00
059D206A00
0878609700
0B43B0C400
0E10D1E100
2D0097D000
5A004DA000
87000E7000
0000000000
0000000000
008C000000
009B000000
ENDCHAR
STARTCHAR uni1E47
ENCODING 7751
SWIDTH 600 0
DWIDTH 8 0
BBX 8 11 0 -4
BITMAP
04A3BEC1
07DA21D6
099000B5
0C4000E2
0F1002E0
3D0005B0
6A000880
00000000
00000000
007D0000
008C0000
ENDCHAR
STARTCHAR uni1E48
ENCODING 7752
SWIDTH 600 0
DWIDTH 8 0
BBX 9 12 0 -3
BITMAP
00E7000E10
02DC002D00
059D206A00
0878609700
0B43B0C400
0E10D1E100
2D0097D000
5A004DA000
87000E7000
0000000000
0000000000
0AFFE00000
ENDCHAR
STARTCHAR uni1E49
ENCODING 7753
SWIDTH 600 0
DWIDTH 8 0
BBX 8 10 0 -3
BITMAP
04A3BEC1
07DA21D6
099000B5
0C4000E2
0F1002E0
3D0005B0
6A000880
00000000
00000000
09FFF000
ENDCHAR
STARTCHAR uni1E52
ENCODING 7762
SWIDTH 600 0
DWIDTH 8 0
BBX 8 14 0 0
BITMAP
000000A3
00000750
00000000
0005FFF4
00000000
002AED80
02E812C7
0990005C
1E10003E
5C00005D
6B000099
4C0002E3
1E613D80
03CED600
ENDCHAR
STARTCHAR uni1E53
ENCODING 7763
SWIDTH 600 0
DWIDTH 8 0
BBX 8 12 0 0
BITMAP
00000390
00000A10
00000000
000AFFD0
00000000
005CFC40
06D415E1
1E3000B5
5C0000C5
4C0002E1
1E614D70
04CFD500
ENDCHAR
STARTCHAR uni1E58
ENCODING 7768
SWIDTH 600 0
DWIDTH 8 0
BBX 8 11 0 0
BITMAP
00002D10
00000000
00CFFEA1
00E202B9
03D00079
06A015E3
09FFFB40
0C40D300
0F108900
3D002E10
6A000C60
ENDCHAR
STARTCHAR uni1E59
ENCODING 7769
SWIDTH 600 0
DWIDTH 8 0
BBX 7 10 1 0
BITMAP
0001D600
0002E500
00000000
0683CE80
099A3110
0CA00000
0E100000
2D000000
5A000000
88000000
ENDCHAR
STARTCHAR uni1E5A
ENCODING 7770
SWIDTH 600 0
DWIDTH 8 0
BBX 8 13 0 -4
BITMAP
00CFFEA1
00E202B9
03D00079
06A015E3
09FFFB40
0C40D300
0F108900
3D002E10
6A000C60
00000000
00000000
006D1000
007D0000
ENDCHAR
STARTCHAR uni1E5B
ENCODING 7771
SWIDTH 600 0
DWIDTH 8 0
BBX 8 11 0 -4
BITMAP
00683CE8
0099A311
00CA0000
00E10000
02D00000
05A00000
08800000
00000000
00000000
2E400000
3E300000
ENDCHAR
STARTCHAR uni1E5C
ENCODING 7772
SWIDTH 600 0
DWIDTH 8 0
BBX 8 15 0 -4
BITMAP
0006FFF3
00000000
00CFFEA1
00E202B9
03D00079
06A015E3
09FFFB40
0C40D300
0F108900
3D002E10
6A000C60
00000000
00000000
006D1000
007D0000
ENDCHAR
STARTCHAR uni1E5D
ENCODING 7773
SWIDTH 600 0
DWIDTH 8 0
BBX 8 13 0 -4
BITMAP
0003FFF6
00000000
00683CE8
0099A311
00CA0000
00E10000
02D00000
05A00000
08800000
00000000
00000000
2E400000
3E300000
ENDCHAR
STARTCHAR uni1E5E
ENCODING 7774
SWIDTH 600 0
DWIDTH 8 0
BBX 8 12 0 -3
BITMAP
00CFFEA1
00E202B9
03D00079
06A015E3
09FFFB40
0C40D300
0F108900
3D002E10
6A000C60
00000000
00000000
08FFF100
ENDCHAR
STARTCHAR uni1E5F
ENCODING 7775
SWIDTH 600 0
DWIDTH 8 0
BBX 9 10 -1 -3
BITMAP
000683CE80
00099A3110
000CA00000
000E100000
002D000000
005A000000
0088000000
0000000000
0000000000
4FFF500000
ENDCHAR
STARTCHAR uni1E60
ENCODING 7776
SWIDTH 600 0
DWIDTH 8 0
BBX 8 11 0 0
BITMAP
00004C00
00000000
002AED70
00C812B4
00F20000
009C3000
0007E900
00002C80
020006B0
4D403C70
05CFD700
ENDCHAR
STARTCHAR uni1E61
ENCODING 7777
SWIDTH 600 0
DWIDTH 8 0
BBX 7 10 0 0
BITMAP
00008D00
00008C00
00000000
006DFC40
02E204B0
01E50000
003BE800
00001A80
1C511980
04BEEA10
ENDCHAR
STARTCHAR uni1E62
ENCODING 7778
SWIDTH 600 0
DWIDTH 8 0
BBX 8 13 0 -4
BITMAP
002AED70
00C812B4
00F20000
009C3000
0007E900
00002C80
020006B0
4D403C70
05CFD700
00000000
00000000
006D1000
007D0000
ENDCHAR
STARTCHAR uni1E63
ENCODING 7779
SWIDTH 600 0
DWIDTH 8 0
BBX 7 11 0 -4
BITMAP
006DFC40
02E204B0
01E50000
003BE800
00001A80
1C511980
04BEEA10
00000000
00000000
006E1000
007D1000
ENDCHAR
STARTCHAR uni1E6C
ENCODING 7788
SWIDTH 600 0
DWIDTH 8 0
BBX 8 13 1 -4
BITMAP
8FFFFFFA
000A6000
000D3000
001F0000
005C0000
00890000
00B60000
00E20000
02E00000
00000000
00000000
0B900000
0C800000
ENDCHAR
STARTCHAR uni1E6D
ENCODING 7789
SWIDTH 600 0
DWIDTH 8 0
BBX 7 13 1 -4
BITMAP
00590000
00950000
DFFFFF80
01E00000
04B00000
08800000
0B500000
0B912300
03DEC500
00000000
00000000
00B90000
00C80000
ENDCHAR
STARTCHAR uni1E6E
ENCODING 7790
SWIDTH 600 0
DWIDTH 8 0
BBX 8 12 1 -3
BITMAP
8FFFFFFA
000A6000
000D3000
001F0000
005C0000
00890000
00B60000
00E20000
02E00000
00000000
00000000
DFFA0000
ENDCHAR
STARTCHAR uni1E6F
ENCODING 7791
SWIDTH 600 0
DWIDTH 8 0
BBX 7 12 1 -3
BITMAP
00590000
00950000
DFFFFF80
01E00000
04B00000
08800000
0B500000
0B912300
03DEC500
00000000
00000000
0DFFB000
ENDCHAR
STARTCHAR uni1E7E
ENCODING 7806
SWIDTH 600 0
DWIDTH 8 0
BBX 8 13 1 -4
BITMAP
4D000099
2E0002E1
1F100A70
0E203D10
0D30B600
0B53C000
0A6B4000
08AB0000
06F30000
00000000
00000000
0B900000
0C800000
ENDCHAR
STARTCHAR uni1E7F
ENCODING 7807
SWIDTH 600 0
DWIDTH 8 0
BBX 7 11 1 -4
BITMAP
A60003C0
79000C40
3C006A00
0E01D200
0C387000
098D0000
05F50000
00000000
00000000
0AA00000
0B900000
ENDCHAR
STARTCHAR Wgrave
ENCODING 7808
SWIDTH 600 0
DWIDTH 8 0
BBX 9 12 0 0
BITMAP
0001B20000
00003B0000
0000000000
0B500003C0
0C40000880
0D20710C30
0E14E32D00
0E0B946800
0E3A75B400
1DA467D000
2CC05C9000
3F604F4000
ENDCHAR
STARTCHAR wgrave
ENCODING 7809
SWIDTH 600 0
DWIDTH 8 0
BBX 9 11 0 0
BITMAP
0003A00000
0001C60000
00002A0000
0000000000
5B01920880
5B06E30D20
5B0CA45A00
4B4A94B400
4BA486D000
3CC08B7000
3F607F1000
ENDCHAR
STARTCHAR Wacute
ENCODING 7810
SWIDTH 600 0
DWIDTH 8 0
BBX 9 12 0 0
BITMAP
000003B200
00003A3000
0000000000
0B500003C0
0C40000880
0D20710C30
0E14E32D00
0E0B946800
0E3A75B400
1DA467D000
2CC05C9000
3F604F4000
ENDCHAR
STARTCHAR wacute
ENCODING 7811
SWIDTH 600 0
DWIDTH 8 0
BBX 9 11 0 0
BITMAP
000003A000
00003E5000
0000A30000
0000000000
5B01920880
5B06E30D20
5B0CA45A00
4B4A94B400
4BA486D000
3CC08B7000
3F607F1000
ENDCHAR
STARTCHAR Wdieresis
ENCODING 7812
SWIDTH 600 0
DWIDTH 8 0
BBX 9 11 0 0
BITMAP
000580A300
0000000000
0B500003C0
0C40000880
0D20710C30
0E14E32D00
0E0B946800
0E3A75B400
1DA467D000
2CC05C9000
3F604F4000
ENDCHAR
STARTCHAR wdieresis
ENCODING 7813
SWIDTH 600 0
DWIDTH 8 0
BBX 9 9 0 0
BITMAP
000B33C000
0000000000
5B01920880
5B06E30D20
5B0CA45A00
4B4A94B400
4BA486D000
3CC08B7000
3F607F1000
ENDCHAR
STARTCHAR uni1E8E
ENCODING 7822
SWIDTH 600 0
DWIDTH 8 0
BBX 8 11 1 0
BITMAP
0004C000
00000000
5C0000B6
1E2007B0
0A603D10
05B0C500
01E89000
00BD1000
00A60000
00D30000
02E00000
ENDCHAR
STARTCHAR uni1E8F
ENCODING 7823
SWIDTH 600 0
DWIDTH 8 0
BBX 9 13 -1 -3
BITMAP
000009B000
00000AA000
0000000000
00A50004D0
0069000C40
003C006A00
000E11D200
000B487000
00079C0000
0003F40000
0006A00000
105D100000
6FC3000000
ENDCHAR
STARTCHAR uni1E90
ENCODING 7824
SWIDTH 600 0
DWIDTH 8 0
BBX 9 12 0 0
BITMAP
0001AD7000
000940A100
0000000000
02FFFFFF20
000001C600
00000B8000
00009A0000
0006C10000
004D200000
03E3000000
1D40000000
AFFFFFD000
ENDCHAR
STARTCHAR uni1E91
ENCODING 7825
SWIDTH 600 0
DWIDTH 8 0
BBX 8 10 0 0
BITMAP
0002CD40
001A21A0
00000000
05FFFFF6
000009A0
00009A00
00099000
00A90000
0A900000
6FFFFF90
ENDCHAR
STARTCHAR uni1E92
ENCODING 7826
SWIDTH 600 0
DWIDTH 8 0
BBX 9 13 0 -4
BITMAP
02FFFFFF20
000001C600
00000B8000
00009A0000
0006C10000
004D200000
03E3000000
1D40000000
AFFFFFD000
0000000000
0000000000
005E100000
006D100000
ENDCHAR
STARTCHAR uni1E93
ENCODING 7827
SWIDTH 600 0
DWIDTH 8 0
BBX 8 11 0 -4
BITMAP
05FFFFF6
000009A0
00009A00
00099000
00A90000
0A900000
6FFFFF90
00000000
00000000
006D1000
007D0000
ENDCHAR
STARTCHAR uni1E94
ENCODING 7828
SWIDTH 600 0
DWIDTH 8 0
BBX 9 12 0 -3
BITMAP
02FFFFFF20
000001C600
00000B8000
00009A0000
0006C10000
004D200000
03E3000000
1D40000000
AFFFFFD000
0000000000
0000000000
06FFF20000
ENDCHAR
STARTCHAR uni1E95
ENCODING 7829
SWIDTH 600 0
DWIDTH 8 0
BBX 8 10 0 -3
BITMAP
05FFFFF6
000009A0
00009A00
00099000
00A90000
0A900000
6FFFFF90
00000000
00000000
08FFF100
ENDCHAR
STARTCHAR uni1E96
ENCODING 7830
SWIDTH 600 0
DWIDTH 8 0
BBX 8 13 0 -3
BITMAP
00970000
00C40000
00F10000
03D3BEC1
06D921D6
099000B5
0C4000E2
0F1002E0
3D0005B0
6A000880
00000000
00000000
09FFF000
ENDCHAR
STARTCHAR uni1E97
ENCODING 7831
SWIDTH 600 0
DWIDTH 8 0
BBX 7 11 1 0
BITMAP
04B0A500
00000000
00590000
00950000
DFFFFF80
01E00000
04B00000
08800000
0B500000
0B912300
03DEC500
ENDCHAR
STARTCHAR uni1E9E
ENCODING 7838
SWIDTH 600 0
DWIDTH 8 0
BBX 8 9 0 0
BITMAP
0019DEA1
00CA21A9
04D001C4
09802C40
0C509D40
0F1016E4
3D000088
6A3713D5
971AED70
ENDCHAR
STARTCHAR uni1EA0
ENCODING 7840
SWIDTH 600 0
DWIDTH 8 0
BBX 8 13 -1 -4
BITMAP
000009E0
00003BC1
0000B3B3
00049095
000C1077
006FFFF9
01D2005B
0890003D
1E20002F
00000000
00000000
0008C000
0009B000
ENDCHAR
STARTCHAR uni1EA1
ENCODING 7841
SWIDTH 600 0
DWIDTH 8 0
BBX 8 11 0 -4
BITMAP
004CFC6A
04E514E7
0C5000B4
2E0000E1
4D0003D0
1F514DA0
06EE8770
00000000
00000000
008C0000
009B0000
ENDCHAR
STARTCHAR uni1EA2
ENCODING 7842
SWIDTH 600 0
DWIDTH 8 0
BBX 8 13 -1 0
BITMAP
000006D2
000001B5
000006A0
00000000
000009E0
00003BC1
0000B3B3
00049095
000C1077
006FFFF9
01D2005B
0890003D
1E20002F
ENDCHAR
STARTCHAR uni1EA3
ENCODING 7843
SWIDTH 600 0
DWIDTH 8 0
BBX 8 11 0 0
BITMAP
00005D30
00000A70
00004B10
00000000
004CFC6A
04E514E7
0C5000B4
2E0000E1
4D0003D0
1F514DA0
06EE8770
ENDCHAR
STARTCHAR uni1EA4
ENCODING 7844
SWIDTH 600 0
DWIDTH 8 0
BBX 10 13 -1 0
BITMAP
0000000047
000006E8A1
0000391A00
0000000000
000009E000
00003BC100
0000B3B300
0004909500
000C107700
006FFFF900
01D2005B00
0890003D00
1E20002F00
ENDCHAR
STARTCHAR uni1EA5
ENCODING 7845
SWIDTH 600 0
DWIDTH 8 0
BBX 9 11 0 0
BITMAP
0000000570
00009E6900
000661A000
0000000000
004CFC6A00
04E514E700
0C5000B400
2E0000E100
4D0003D000
1F514DA000
06EE877000
ENDCHAR
STARTCHAR uni1EA6
ENCODING 7846
SWIDTH 600 0
DWIDTH 8 0
BBX 8 13 -1 0
BITMAP
00028000
000089E7
0000391A
00000000
000009E0
00003BC1
0000B3B3
00049095
000C1077
006FFFF9
01D2005B
0890003D
1E20002F
ENDCHAR
STARTCHAR uni1EA7
ENCODING 7847
SWIDTH 600 0
DWIDTH 8 0
BBX 8 11 0 0
BITMAP
00930000
00299E50
000661A0
00000000
004CFC6A
04E514E7
0C5000B4
2E0000E1
4D0003D0
1F514DA0
06EE8770
ENDCHAR
STARTCHAR uni1EA8
ENCODING 7848
SWIDTH 600 0
DWIDTH 8 0
BBX 10 13 -1 0
BITMAP
00000002D4
000006E787
0000391AD1
0000000000
000009E000
00003BC100
0000B3B300
0004909500
000C107700
006FFFF900
01D2005B00
0890003D00
1E20002F00
ENDCHAR
STARTCHAR uni1EA9
ENCODING 7849
SWIDTH 600 0
DWIDTH 8 0
BBX 9 12 0 0
BITMAP
0000003D30
0000000950
00009E6B10
000661A000
0000000000
004CFC6A00
04E514E700
0C5000B400
2E0000E100
4D0003D000
1F514DA000
06EE877000
ENDCHAR
STARTCHAR uni1EAA
ENCODING 7850
SWIDTH 600 0
DWIDTH 8 0
BBX 9 14 -1 0
BITMAP
00000CB290
0000376E50
000006E700
0000391A00
0000000000
000009E000
00003BC100
0000B3B300
0004909500
000C107700
006FFFF900
01D2005B00
0890003D00
1E20002F00
ENDCHAR
STARTCHAR uni1EAB
ENCODING 7851
SWIDTH 600 0
DWIDTH 8 0
BBX 8 12 0 0
BITMAP
0000A927
000478E3
00009E50
000671A0
00000000
004CFC6A
04E514E7
0C5000B4
2E0000E1
4D0003D0
1F514DA0
06EE8770
ENDCHAR
STARTCHAR uni1EAC
ENCODING 7852
SWIDTH 600 0
DWIDTH 8 0
BBX 9 16 -1 -4
BITMAP
000008D900
0000760830
0000000000
000009E000
00003BC100
0000B3B300
0004909500
000C107700
006FFFF900
01D2005B00
0890003D00
1E20002F00
0000000000
0000000000
0008C00000
0009B00000
ENDCHAR
STARTCHAR uni1EAD
ENCODING 7853
SWIDTH 600 0
DWIDTH 8 0
BBX 8 14 0 -4
BITMAP
00009D70
000940A2
00000000
004CFC6A
04E514E7
0C5000B4
2E0000E1
4D0003D0
1F514DA0
06EE8770
00000000
00000000
008C0000
009B0000
ENDCHAR
STARTCHAR uni1EAE
ENCODING 7854
SWIDTH 600 0
DWIDTH 8 0
BBX 9 14 -1 0
BITMAP
0000001B10
0000009410
0000671770
00001CE900
0000000000
000009E000
00003BC100
0000B3B300
0004909500
000C107700
006FFFF900
01D2005B00
0890003D00
1E20002F00
ENDCHAR
STARTCHAR uni1EAF
ENCODING 7855
SWIDTH 600 0
DWIDTH 8 0
BBX 8 12 0 0
BITMAP
000001B0
00000931
00094178
0003DE90
00000000
004CFC6A
04E514E7
0C5000B4
2E0000E1
4D0003D0
1F514DA0
06EE8770
ENDCHAR
STARTCHAR uni1EB0
ENCODING 7856
SWIDTH 600 0
DWIDTH 8 0
BBX 9 14 -1 0
BITMAP
0000058000
000001A110
0000671770
00001CE900
0000000000
000009E000
00003BC100
0000B3B300
0004909500
000C107700
006FFFF900
01D2005B00
0890003D00
1E20002F00
ENDCHAR
STARTCHAR uni1EB1
ENCODING 7857
SWIDTH 600 0
DWIDTH 8 0
BBX 8 12 0 0
BITMAP
00006600
00001A01
00094178
0003DE90
00000000
004CFC6A
04E514E7
0C5000B4
2E0000E1
4D0003D0
1F514DA0
06EE8770
ENDCHAR
STARTCHAR uni1EB2
ENCODING 7858
SWIDTH 600 0
DWIDTH 8 0
BBX 9 15 -1 0
BITMAP
000000C600
0000004A00
000000A310
0000671770
00001CE900
0000000000
000009E000
00003BC100
0000B3B300
0004909500
000C107700
006FFFF900
01D2005B00
0890003D00
1E20002F00
ENDCHAR
STARTCHAR uni1EB3
ENCODING 7859
SWIDTH 600 0
DWIDTH 8 0
BBX 8 13 0 0
BITMAP
00000E60
000006A0
00000C31
00094168
0003DE90
00000000
004CFC6A
04E514E7
0C5000B4
2E0000E1
4D0003D0
1F514DA0
06EE8770
ENDCHAR
STARTCHAR uni1EB4
ENCODING 7860
SWIDTH 600 0
DWIDTH 8 0
BBX 9 14 -1 0
BITMAP
00000CC290
0000476E60
0000671860
00001CE900
0000000000
000009E000
00003BC100
0000B3B300
0004909500
000C107700
006FFFF900
01D2005B00
0890003D00
1E20002F00
ENDCHAR
STARTCHAR uni1EB5
ENCODING 7861
SWIDTH 600 0
DWIDTH 8 0
BBX 8 12 0 0
BITMAP
0000B938
000579E3
00085194
0002DE70
00000000
004CFC6A
04E514E7
0C5000B4
2E0000E1
4D0003D0
1F514DA0
06EE8770
ENDCHAR
STARTCHAR uni1EB6
ENCODING 7862
SWIDTH 600 0
DWIDTH 8 0
BBX 9 16 -1 -4
BITMAP
0000670770
00001CEA00
0000000000
000009E000
00003BC100
0000B3B300
0004909500
000C107700
006FFFF900
01D2005B00
0890003D00
1E20002F00
0000000000
0000000000
0008C00000
0009B00000
ENDCHAR
STARTCHAR uni1EB7
ENCODING 7863
SWIDTH 600 0
DWIDTH 8 0
BBX 8 15 0 -4
BITMAP
00000001
00095178
0003DE90
00000000
004CFC6A
04E514E7
0C5000B4
2E0000E1
4D0003D0
1F514DA0
06EE8770
00000000
00000000
008C0000
009B0000
ENDCHAR
STARTCHAR uni1EB8
ENCODING 7864
SWIDTH 600 0
DWIDTH 8 0
BBX 9 13 0 -4
BITMAP
006FFFFF40
0097000000
00C4000000
01F1000000
04FFFFB000
07A0000000
0A70000000
0D30000000
1FFFFFB000
0000000000
0000000000
003E400000
003E300000
ENDCHAR
STARTCHAR uni1EB9
ENCODING 7865
SWIDTH 600 0
DWIDTH 8 0
BBX 8 11 0 -4
BITMAP
003BFD50
03E613E1
0C6000A4
1FFFFFF4
1F000000
0C811670
02BEE910
00000000
00000000
006E1000
006D1000
ENDCHAR
STARTCHAR uni1EBA
ENCODING 7866
SWIDTH 600 0
DWIDTH 8 0
BBX 9 13 0 0
BITMAP
00000E8000
000004C000
00000C4000
0000000000
006FFFFF40
0097000000
00C4000000
01F1000000
04FFFFB000
07A0000000
0A70000000
0D30000000
1FFFFFB000
ENDCHAR
STARTCHAR uni1EBB
ENCODING 7867
SWIDTH 600 0
DWIDTH 8 0
BBX 8 11 0 0
BITMAP
00007D20
00001B50
00006A00
00000000
003BFD50
03E613E1
0C6000A4
1FFFFFF4
1F000000
0C811670
02BEE910
ENDCHAR
STARTCHAR uni1EBC
ENCODING 7868
SWIDTH 600 0
DWIDTH 8 0
BBX 9 13 0 0
BITMAP
0000110010
0002DE4760
000753DB00
0000000000
006FFFFF40
0097000000
00C4000000
01F1000000
04FFFFB000
07A0000000
0A70000000
0D30000000
1FFFFFB000
ENDCHAR
STARTCHAR uni1EBD
ENCODING 7869
SWIDTH 600 0
DWIDTH 8 0
BBX 8 11 0 0
BITMAP
00002001
000AC83B
001A09E3
00000000
003BFD50
03E613E1
0C6000A4
1FFFFFF4
1F000000
0C811670
02BEE910
ENDCHAR
STARTCHAR uni1EBE
ENCODING 7870
SWIDTH 600 0
DWIDTH 8 0
BBX 10 13 0 0
BITMAP
00000001A1
00001CD840
0000935600
0000000000
006FFFFF40
0097000000
00C4000000
01F1000000
04FFFFB000
07A0000000
0A70000000
0D30000000
1FFFFFB000
ENDCHAR
STARTCHAR uni1EBF
ENCODING 7871
SWIDTH 600 0
DWIDTH 8 0
BBX 9 11 0 0
BITMAP
0000000660
0000AE6900
000752A000
0000000000
003BFD5000
03E613E100
0C6000A400
1FFFFFF400
1F00000000
0C81167000
02BEE91000
ENDCHAR
STARTCHAR uni1EC0
ENCODING 7872
SWIDTH 600 0
DWIDTH 8 0
BBX 9 13 0 0
BITMAP
0009200000
0002ACD100
0000935600
0000000000
006FFFFF40
0097000000
00C4000000
01F1000000
04FFFFB000
07A0000000
0A70000000
0D30000000
1FFFFFB000
ENDCHAR
STARTCHAR uni1EC1
ENCODING 7873
SWIDTH 600 0
DWIDTH 8 0
BBX 8 11 0 0
BITMAP
00A20000
0038AE30
000752A0
00000000
003BFD50
03E613E1
0C6000A4
1FFFFFF4
1F000000
0C811670
02BEE910
ENDCHAR
STARTCHAR uni1EC2
ENCODING 7874
SWIDTH 600 0
DWIDTH 8 0
BBX 9 13 0 0
BITMAP
0000000990
00001CD2D0
0000935E60
0000000000
006FFFFF40
0097000000
00C4000000
01F1000000
04FFFFB000
07A0000000
0A70000000
0D30000000
1FFFFFB000
ENDCHAR
STARTCHAR uni1EC3
ENCODING 7875
SWIDTH 600 0
DWIDTH 8 0
BBX 9 12 0 0
BITMAP
0000004D20
0000000B40
0000AE6A00
000752A000
0000000000
003BFD5000
03E613E100
0C6000A400
1FFFFFF400
1F00000000
0C81167000
02BEE91000
ENDCHAR
STARTCHAR uni1EC4
ENCODING 7876
SWIDTH 600 0
DWIDTH 8 0
BBX 9 14 0 0
BITMAP
00005E6630
000092CC00
00001CD100
0000936600
0000000000
006FFFFF40
0097000000
00C4000000
01F1000000
04FFFFB000
07A0000000
0A70000000
0D30000000
1FFFFFB000
ENDCHAR
STARTCHAR uni1EC5
ENCODING 7877
SWIDTH 600 0
DWIDTH 8 0
BBX 8 12 0 0
BITMAP
0001B836
000569E2
0000AE40
000762A0
00000000
003BFD50
03E613E1
0C6000A4
1FFFFFF4
1F000000
0C811670
02BEE910
ENDCHAR
STARTCHAR uni1EC6
ENCODING 7878
SWIDTH 600 0
DWIDTH 8 0
BBX 9 16 0 -4
BITMAP
00003CD200
0001A23900
0000000000
006FFFFF40
0097000000
00C4000000
01F1000000
04FFFFB000
07A0000000
0A70000000
0D30000000
1FFFFFB000
0000000000
0000000000
003E400000
003E300000
ENDCHAR
STARTCHAR uni1EC7
ENCODING 7879
SWIDTH 600 0
DWIDTH 8 0
BBX 8 14 0 -4
BITMAP
0001AD60
000941A1
00000000
003BFD50
03E613E1
0C6000A4
1FFFFFF4
1F000000
0C811670
02BEE910
00000000
00000000
006E1000
006D1000
ENDCHAR
STARTCHAR uni1EC8
ENCODING 7880
SWIDTH 600 0
DWIDTH 8 0
BBX 8 13 0 0
BITMAP
00006D20
00001B50
00006A00
00000000
00CFFFFE
0000A600
0000D300
0002F000
0005C000
00088000
000B5000
000E2000
6FFFFF40
ENDCHAR
STARTCHAR uni1EC9
ENCODING 7881
SWIDTH 600 0
DWIDTH 8 0
BBX 6 11 1 0
BITMAP
000CA0
0002E0
000A60
000000
7FFF10
002D00
006900
009600
00D300
00E512
007EE6
ENDCHAR
STARTCHAR uni1ECA
ENCODING 7882
SWIDTH 600 0
DWIDTH 8 0
BBX 8 13 0 -4
BITMAP
00CFFFFE
0000A600
0000D300
0002F000
0005C000
00088000
000B5000
000E2000
6FFFFF40
00000000
00000000
00B90000
00C80000
ENDCHAR
STARTCHAR uni1ECB
ENCODING 7883
SWIDTH 600 0
DWIDTH 8 0
BBX 6 14 1 -4
BITMAP
000B90
000C80
000000
7FFF10
002D00
006900
009600
00D300
00E512
007EE6
000000
000000
006E10
007D10
ENDCHAR
STARTCHAR uni1ECC
ENCODING 7884
SWIDTH 600 0
DWIDTH 8 0
BBX 8 13 0 -4
BITMAP
002AED80
02E812C7
0990005C
1E10003E
5C00005D
6B000099
4C0002E3
1E613D80
03CED600
00000000
00000000
00B90000
00C80000
ENDCHAR
STARTCHAR uni1ECD
ENCODING 7885
SWIDTH 600 0
DWIDTH 8 0
BBX 8 11 0 -4
BITMAP
005CFC40
06D415E1
1E3000B5
5C0000C5
4C0002E1
1E614D70
04CFD500
00000000
00000000
00B90000
00C80000
ENDCHAR
STARTCHAR uni1ECE
ENCODING 7886
SWIDTH 600 0
DWIDTH 8 0
BBX 8 13 0 0
BITMAP
00006D20
00001B50
00006A00
00000000
002AED80
02E812C7
0990005C
1E10003E
5C00005D
6B000099
4C0002E3
1E613D80
03CED600
ENDCHAR
STARTCHAR uni1ECF
ENCODING 7887
SWIDTH 600 0
DWIDTH 8 0
BBX 8 11 0 0
BITMAP
00008C10
00001C40
00007900
00000000
005CFC40
06D415E1
1E3000B5
5C0000C5
4C0002E1
1E614D70
04CFD500
ENDCHAR
STARTCHAR uni1ED0
ENCODING 7888
SWIDTH 600 0
DWIDTH 8 0
BBX 9 13 0 0
BITMAP
0000000470
00006E8A10
000391A000
0000000000
002AED8000
02E812C700
0990005C00
1E10003E00
5C00005D00
6B00009900
4C0002E300
1E613D8000
03CED60000
ENDCHAR
STARTCHAR uni1ED1
ENCODING 7889
SWIDTH 600 0
DWIDTH 8 0
BBX 9 11 0 0
BITMAP
0000000840
0001BE7700
0008439000
0000000000
005CFC4000
06D415E100
1E3000B500
5C0000C500
4C0002E100
1E614D7000
04CFD50000
ENDCHAR
STARTCHAR uni1ED2
ENCODING 7890
SWIDTH 600 0
DWIDTH 8 0
BBX 8 13 0 0
BITMAP
00280000
00089E70
000391A0
00000000
002AED80
02E812C7
0990005C
1E10003E
5C00005D
6B000099
4C0002E3
1E613D80
03CED600
ENDCHAR
STARTCHAR uni1ED3
ENCODING 7891
SWIDTH 600 0
DWIDTH 8 0
BBX 8 11 0 0
BITMAP
00B10000
0048BE20
00084390
00000000
005CFC40
06D415E1
1E3000B5
5C0000C5
4C0002E1
1E614D70
04CFD500
ENDCHAR
STARTCHAR uni1ED4
ENCODING 7892
SWIDTH 600 0
DWIDTH 8 0
BBX 9 13 0 0
BITMAP
0000002D40
00006E7870
000391AD10
0000000000
002AED8000
02E812C700
0990005C00
1E10003E00
5C00005D00
6B00009900
4C0002E300
1E613D8000
03CED60000
ENDCHAR
STARTCHAR uni1ED5
ENCODING 7893
SWIDTH 600 0
DWIDTH 8 0
BBX 9 12 0 0
BITMAP
0000006C10
0000001C20
0001BE7900
0008439000
0000000000
005CFC4000
06D415E100
1E3000B500
5C0000C500
4C0002E100
1E614D7000
04CFD50000
ENDCHAR
STARTCHAR uni1ED6
ENCODING 7894
SWIDTH 600 0
DWIDTH 8 0
BBX 8 14 0 0
BITMAP
0000CB29
000376E5
00006E70
000391A0
00000000
002AED80
02E812C7
0990005C
1E10003E
5C00005D
6B000099
4C0002E3
1E613D80
03CED600
ENDCHAR
STARTCHAR uni1ED7
ENCODING 7895
SWIDTH 600 0
DWIDTH 8 0
BBX 8 12 0 0
BITMAP
0001C744
00075BD1
0001BE30
00085290
00000000
005CFC40
06D415E1
1E3000B5
5C0000C5
4C0002E1
1E614D70
04CFD500
ENDCHAR
STARTCHAR uni1ED8
ENCODING 7896
SWIDTH 600 0
DWIDTH 8 0
BBX 8 16 0 -4
BITMAP
00008D90
00076083
00000000
002AED80
02E812C7
0990005C
1E10003E
5C00005D
6B000099
4C0002E3
1E613D80
03CED600
00000000
00000000
00B90000
00C80000
ENDCHAR
STARTCHAR uni1ED9
ENCODING 7897
SWIDTH 600 0
DWIDTH 8 0
BBX 8 14 0 -4
BITMAP
0001BD40
000A31A0
00000000
005CFC40
06D415E1
1E3000B5
5C0000C5
4C0002E1
1E614D70
04CFD500
00000000
00000000
00B90000
00C80000
ENDCHAR
STARTCHAR uni1EDA
ENCODING 7898
SWIDTH 600 0
DWIDTH 8 0
BBX 9 12 0 0
BITMAP
000002B200
00003B31B0
00000002C0
002AEEAA30
02E812C600
0990005C00
1E10003E00
5C00005D00
6B00009900
4C0002E300
1E613D8000
03CED60000
ENDCHAR
STARTCHAR uni1EDB
ENCODING 7899
SWIDTH 600 0
DWIDTH 8 0
BBX 9 11 0 0
BITMAP
000002A000
00002D6000
0000940840
0000000B30
005CFDB600
06D415E100
1E3000B500
5C0000C500
4C0002E200
1E614D7000
04CFD50000
ENDCHAR
STARTCHAR uni1EDC
ENCODING 7900
SWIDTH 600 0
DWIDTH 8 0
BBX 9 12 0 0
BITMAP
0001B20000
00003B11B0
00000002C0
002AEEAA30
02E812C600
0990005C00
1E10003E00
5C00005D00
6B00009900
4C0002E300
1E613D8000
03CED60000
ENDCHAR
STARTCHAR uni1EDD
ENCODING 7901
SWIDTH 600 0
DWIDTH 8 0
BBX 9 11 0 0
BITMAP
0002B00000
0000B70000
00001B0840
0000000B30
005CFDB600
06D415E100
1E3000B500
5C0000C500
4C0002E200
1E614D7000
04CFD50000
ENDCHAR
STARTCHAR uni1EDE
ENCODING 7902
SWIDTH 600 0
DWIDTH 8 0
BBX 9 13 0 0
BITMAP
00006D2000
00001B5000
00006A01B0
00000002C0
002AEEAA30
02E812C600
0990005C00
1E10003E00
5C00005D00
6B00009900
4C0002E300
1E613D8000
03CED60000
ENDCHAR
STARTCHAR uni1EDF
ENCODING 7903
SWIDTH 600 0
DWIDTH 8 0
BBX 9 11 0 0
BITMAP
00008C1000
00001C4000
0000790840
0000000B30
005CFDB600
06D415E100
1E3000B500
5C0000C500
4C0002E200
1E614D7000
04CFD50000
ENDCHAR
STARTCHAR uni1EE0
ENCODING 7904
SWIDTH 600 0
DWIDTH 8 0
BBX 9 13 0 0
BITMAP
0001100100
001DE56700
00662DC2B0
00000002C0
002AEEAA30
02E812C600
0990005C00
1E10003E00
5C00005D00
6B00009900
4C0002E300
1E613D8000
03CED60000
ENDCHAR
STARTCHAR uni1EE1
ENCODING 7905
SWIDTH 600 0
DWIDTH 8 0
BBX 9 11 0 0
BITMAP
0001001000
004CC2B200
00924E8840
0000000B30
005CFDB600
06D415E100
1E3000B500
5C0000C500
4C0002E200
1E614D7000
04CFD50000
ENDCHAR
STARTCHAR uni1EE2
ENCODING 7906
SWIDTH 600 0
DWIDTH 8 0
BBX 9 15 0 -4
BITMAP
00000001B0
00000002C0
002AEEAA30
02E812C600
0990005C00
1E10003E00
5C00005D00
6B00009900
4C0002E300
1E613D8000
03CED60000
0000000000
0000000000
00B9000000
00C8000000
ENDCHAR
STARTCHAR uni1EE3
ENCODING 7907
SWIDTH 600 0
DWIDTH 8 0
BBX 9 13 0 -4
BITMAP
0000000840
0000000B30
005CFDB600
06D415E100
1E3000B500
5C0000C500
4C0002E200
1E614D7000
04CFD50000
0000000000
0000000000
00B9000000
00C8000000
ENDCHAR
STARTCHAR uni1EE4
ENCODING 7908
SWIDTH 600 0
DWIDTH 8 0
BBX 9 13 0 -4
BITMAP
00F1000E20
03D0002E00
06A0005B00
0A70008800
0D4000C400
0F1001E100
1F0005C000
0D813D5000
03CED60000
0000000000
0000000000
00B9000000
00C8000000
ENDCHAR
STARTCHAR uni1EE5
ENCODING 7909
SWIDTH 600 0
DWIDTH 8 0
BBX 8 11 0 -4
BITMAP
05B00079
088000A6
0B5000D3
0E2001F0
2E0006C0
3E218C90
0AFC5760
00000000
00000000
008C0000
009B0000
ENDCHAR
STARTCHAR uni1EE6
ENCODING 7910
SWIDTH 600 0
DWIDTH 8 0
BBX 9 13 0 0
BITMAP
00006D2000
00001B5000
00006A0000
0000000000
00F1000E20
03D0002E00
06A0005B00
0A70008800
0D4000C400
0F1001E100
1F0005C000
0D813D5000
03CED60000
ENDCHAR
STARTCHAR uni1EE7
ENCODING 7911
SWIDTH 600 0
DWIDTH 8 0
BBX 8 11 0 0
BITMAP
00008C10
00001C40
00007800
00000000
05B00079
088000A6
0B5000D3
0E2001F0
2E0006C0
3E218C90
0AFC5760
ENDCHAR
STARTCHAR uni1EE8
ENCODING 7912
SWIDTH 600 0
DWIDTH 8 0
BBX 10 12 0 0
BITMAP
000002B200
00003B300C
000000004D
00F1000EA3
03D0002F00
06A0005C00
0A70008900
0D4000C600
0F1001E300
1F0005E000
0D813D7000
03CED70000
ENDCHAR
STARTCHAR uni1EE9
ENCODING 7913
SWIDTH 600 0
DWIDTH 8 0
BBX 10 11 0 0
BITMAP
000002A000
00003D6000
00009400A2
00000003E1
05B0007E60
088000A700
0B5000D400
0E2001F100
2E0006D000
3E218CA000
0AFC577000
ENDCHAR
STARTCHAR uni1EEA
ENCODING 7914
SWIDTH 600 0
DWIDTH 8 0
BBX 10 12 0 0
BITMAP
0001B20000
00003B100C
000000004D
00F1000EA3
03D0002F00
06A0005C00
0A70008900
0D4000C600
0F1001E300
1F0005E000
0D813D7000
03CED70000
ENDCHAR
STARTCHAR uni1EEB
ENCODING 7915
SWIDTH 600 0
DWIDTH 8 0
BBX 10 11 0 0
BITMAP
0002B00000
0000B70000
00001B00A2
00000003E1
05B0007E60
088000A700
0B5000D400
0E2001F100
2E0006D000
3E218CA000
0AFC577000
ENDCHAR
STARTCHAR uni1EEC
ENCODING 7916
SWIDTH 600 0
DWIDTH 8 0
BBX 10 13 0 0
BITMAP
00006D2000
00001B5000
00006A000C
000000004D
00F1000EA3
03D0002F00
06A0005C00
0A70008900
0D4000C600
0F1001E300
1F0005E000
0D813D7000
03CED70000
ENDCHAR
STARTCHAR uni1EED
ENCODING 7917
SWIDTH 600 0
DWIDTH 8 0
BBX 10 11 0 0
BITMAP
00008C1000
00001C4000
00007800A2
00000003E1
05B0007E60
088000A700
0B5000D400
0E2001F100
2E0006D000
3E218CA000
0AFC577000
ENDCHAR
STARTCHAR uni1EEE
ENCODING 7918
SWIDTH 600 0
DWIDTH 8 0
BBX 10 13 0 0
BITMAP
0000200100
0007EB2C00
000B09E50C
000000004D
00F1000EA3
03D0002F00
06A0005C00
0A70008900
0D4000C600
0F1001E300
1F0005E000
0D813D7000
03CED70000
ENDCHAR
STARTCHAR uni1EEF
ENCODING 7919
SWIDTH 600 0
DWIDTH 8 0
BBX 10 11 0 0
BITMAP
0001100100
001CC56700
00571CC1A2
00000003E1
05B0007E60
088000A700
0B5000D400
0E2001F100
2E0006D000
3E218CA000
0AFC577000
ENDCHAR
STARTCHAR uni1EF0
ENCODING 7920
SWIDTH 600 0
DWIDTH 8 0
BBX 10 15 0 -4
BITMAP
000000000C
000000004D
00F1000EA3
03D0002F00
06A0005C00
0A70008900
0D4000C600
0F1001E300
1F0005E000
0D813D7000
03CED70000
0000000000
0000000000
00B9000000
00C8000000
ENDCHAR
STARTCHAR uni1EF1
ENCODING 7921
SWIDTH 600 0
DWIDTH 8 0
BBX 10 13 0 -4
BITMAP
00000000A2
00000003E1
05B0007E60
088000A700
0B5000D400
0E2001F100
2E0006D000
3E218CA000
0AFC577000
0000000000
0000000000
008C000000
009B000000
ENDCHAR
STARTCHAR Ygrave
ENCODING 7922
SWIDTH 600 0
DWIDTH 8 0
BBX 8 12 1 0
BITMAP
002B1000
0004A000
00000000
5C0000B6
1E2007B0
0A603D10
05B0C500
01E89000
00BD1000
00A60000
00D30000
02E00000
ENDCHAR
STARTCHAR ygrave
ENCODING 7923
SWIDTH 600 0
DWIDTH 8 0
BBX 9 14 -1 -3
BITMAP
00003A0000
00001C6000
000002A000
0000000000
00A50004D0
0069000C40
003C006A00
000E11D200
000B487000
00079C0000
0003F40000
0006A00000
105D100000
6FC3000000
ENDCHAR
STARTCHAR uni1EF4
ENCODING 7924
SWIDTH 600 0
DWIDTH 8 0
BBX 8 13 1 -4
BITMAP
5C0000B6
1E2007B0
0A603D10
05B0C500
01E89000
00BD1000
00A60000
00D30000
02E00000
00000000
00000000
0B900000
0C800000
ENDCHAR
STARTCHAR uni1EF5
ENCODING 7925
SWIDTH 600 0
DWIDTH 8 0
BBX 9 10 -1 -3
BITMAP
00A50004D0
0069000C40
003C006A00
000E11D200
000B487000
00079C0000
0003F40000
0006A00000
105D15E100
6FC306D100
ENDCHAR
STARTCHAR uni1EF6
ENCODING 7926
SWIDTH 600 0
DWIDTH 8 0
BBX 8 13 1 0
BITMAP
0009C100
0001D200
00088000
00000000
5C0000B6
1E2007B0
0A603D10
05B0C500
01E89000
00BD1000
00A60000
00D30000
02E00000
ENDCHAR
STARTCHAR uni1EF7
ENCODING 7927
SWIDTH 600 0
DWIDTH 8 0
BBX 9 14 -1 -3
BITMAP
00000AB100
000001D200
0000097000
0000000000
00A50004D0
0069000C40
003C006A00
000E11D200
000B487000
00079C0000
0003F40000
0006A00000
105D100000
6FC3000000
ENDCHAR
STARTCHAR uni1EF8
ENCODING 7928
SWIDTH 600 0
DWIDTH 8 0
BBX 8 13 1 0
BITMAP
00020010
00AE92B0
02A0AE30
00000000
5C0000B6
1E2007B0
0A603D10
05B0C500
01E89000
00BD1000
00A60000
00D30000
02E00000
ENDCHAR
STARTCHAR uni1EF9
ENCODING 7929
SWIDTH 600 0
DWIDTH 8 0
BBX 9 14 -1 -3
BITMAP
0000010010
0000CC5670
000471CC10
0000000000
00A50004D0
0069000C40
003C006A00
000E11D200
000B487000
00079C0000
0003F40000
0006A00000
105D100000
6FC3000000
ENDCHAR
STARTCHAR uni2007
ENCODING 8199
SWIDTH 600 0
DWIDTH 8 0
BBX 1 1 0 0
BITMAP
00
ENDCHAR
STARTCHAR uni2010
ENCODING 8208
SWIDTH 600 0
DWIDTH 8 0
BBX 7 1 1 4
BITMAP
CFFFFF30
ENDCHAR
STARTCHAR figuredash
ENCODING 8210
SWIDTH 600 0
DWIDTH 8 0
BBX 8 1 0 3
BITMAP
1FFFFFF2
ENDCHAR
STARTCHAR endash
ENCODING 8211
SWIDTH 600 0
DWIDTH 8 0
BBX 8 1 0 3
BITMAP
1FFFFFF2
ENDCHAR
STARTCHAR emdash
ENCODING 8212
SWIDTH 600 0
DWIDTH 8 0
BBX 10 1 -1 3
BITMAP
2FFFFFFFF4
ENDCHAR
STARTCHAR uni2015
ENCODING 8213
SWIDTH 600 0
DWIDTH 8 0
BBX 10 1 -1 3
BITMAP
2FFFFFFFF4
ENDCHAR
STARTCHAR uni2016
ENCODING 8214
SWIDTH 600 0
DWIDTH 8 0
BBX 5 14 2 -4
BITMAP
C30C30
C30C30
C30C30
C30C30
C30C30
C30C30
C30C30
C30C30
C30C30
C30C30
C30C30
C30C30
C30C30
C30C30
ENDCHAR
STARTCHAR underscoredbl
ENCODING 8215
SWIDTH 600 0
DWIDTH 8 0
BBX 8 3 -1 -4
BITMAP
4FFFFFF6
00000000
AFFFFFF1
ENDCHAR
STARTCHAR quoteleft
ENCODING 8216
SWIDTH 600 0
DWIDTH 8 0
BBX 4 5 3 5
BITMAP
0079
09B2
3D10
6FA0
3E80
ENDCHAR
STARTCHAR quoteright
ENCODING 8217
SWIDTH 600 0
DWIDTH 8 0
BBX 4 5 3 5
BITMAP
0AD1
0CF3
02E1
3C70
A600
ENDCHAR
STARTCHAR quotesinglbase
ENCODING 8218
SWIDTH 600 0
DWIDTH 8 0
BBX 4 5 2 -3
BITMAP
0AD1
0CF4
01E1
3C70
A600
ENDCHAR
STARTCHAR quotereversed
ENCODING 8219
SWIDTH 600 0
DWIDTH 8 0
BBX 3 5 3 5
BITMAP
3D80
AF60
B400
6C20
0760
ENDCHAR
STARTCHAR quotedblleft
ENCODING 8220
SWIDTH 600 0
DWIDTH 8 0
BBX 7 5 2 5
BITMAP
03C12A40
4E52D700
C5098000
FE2CF400
BD18E300
ENDCHAR
STARTCHAR quotedblright
ENCODING 8221
SWIDTH 600 0
DWIDTH 8 0
BBX 7 5 1 5
BITMAP
04E62E90
06F94EC0
00A60790
18C16E20
6913B200
ENDCHAR
STARTCHAR quotedblbase
ENCODING 8222
SWIDTH 600 0
DWIDTH 8 0
BBX 7 5 1 -3
BITMAP
04E62E90
06F94EC0
00A60790
18C16E20
6913B200
ENDCHAR
STARTCHAR dagger
ENCODING 8224
SWIDTH 600 0
DWIDTH 8 0
BBX 6 12 2 -2
BITMAP
004A00
007610
8FFFF1
00B110
00C000
039000
067000
094000
0C1000
1D0000
4A0000
010000
ENDCHAR
STARTCHAR daggerdbl
ENCODING 8225
SWIDTH 600 0
DWIDTH 8 0
BBX 7 11 1 -1
BITMAP
0003A000
00067100
07FFFF20
011B1100
000D0000
003A0000
00670000
10941000
AFFFE000
11C01000
03B00000
ENDCHAR
STARTCHAR bullet
ENCODING 8226
SWIDTH 600 0
DWIDTH 8 0
BBX 5 4 2 2
BITMAP
3CE900
CFFF20
EFFE00
7ED400
ENDCHAR
STARTCHAR ellipsis
ENCODING 8230
SWIDTH 600 0
DWIDTH 8 0
BBX 9 2 -1 0
BITMAP
1C92E55E20
1E74E47D10
ENDCHAR
STARTCHAR uni202F
ENCODING 8239
SWIDTH 600 0
DWIDTH 8 0
BBX 1 1 0 0
BITMAP
00
ENDCHAR
STARTCHAR perthousand
ENCODING 8240
SWIDTH 600 0
DWIDTH 8 0
BBX 9 9 0 0
BITMAP
02CE300000
0945700000
0B17504A40
07EB8A7200
0487200000
3DD25EC000
A366B1A200
C195A1B100
8E80BE5000
ENDCHAR
STARTCHAR uni2032
ENCODING 8242
SWIDTH 600 0
DWIDTH 8 0
BBX 2 4 4 6
BITMAP
1E
5A
84
B0
ENDCHAR
STARTCHAR uni2033
ENCODING 8243
SWIDTH 600 0
DWIDTH 8 0
BBX 6 4 2 6
BITMAP
04B0C3
0871D0
0B1580
1A0920
ENDCHAR
STARTCHAR uni2035
ENCODING 8245
SWIDTH 600 0
DWIDTH 8 0
BBX 2 4 4 6
BITMAP
D2
86
3A
0B
ENDCHAR
STARTCHAR guilsinglleft
ENCODING 8249
SWIDTH 600 0
DWIDTH 8 0
BBX 4 6 2 1
BITMAP
0047
04C1
3E20
4D00
0B50
0290
ENDCHAR
STARTCHAR guilsinglright
ENCODING 8250
SWIDTH 600 0
DWIDTH 8 0
BBX 4 6 2 1
BITMAP
0A10
0790
01E3
04E1
2D30
9200
ENDCHAR
STARTCHAR exclamdbl
ENCODING 8252
SWIDTH 600 0
DWIDTH 8 0
BBX 8 9 0 0
BITMAP
003E00A7
006A00D4
008700E0
00B303B0
00D00580
01B00840
00000000
1D905E30
1E707D20
ENDCHAR
STARTCHAR uni203D
ENCODING 8253
SWIDTH 600 0
DWIDTH 8 0
BBX 6 9 2 0
BITMAP
19EE80
7712E3
01D0D2
03AA60
05E400
086000
000000
5E3000
6E2000
ENDCHAR
STARTCHAR uni203E
ENCODING 8254
SWIDTH 600 0
DWIDTH 8 0
BBX 8 1 1 8
BITMAP
3FFFFFF4
ENDCHAR
STARTCHAR uni203F
ENCODING 8255
SWIDTH 600 0
DWIDTH 8 0
BBX 12 3 -3 -3
BITMAP
500000000005
5C84101259A4
016BEFEC8300
ENDCHAR
STARTCHAR fraction
ENCODING 8260
SWIDTH 600 0
DWIDTH 8 0
BBX 10 8 -1 1
BITMAP
0000000075
0000000780
0000007600
0000001000
0001000000
0049000000
0690000000
2900000000
ENDCHAR
STARTCHAR uni2047
ENCODING 8263
SWIDTH 600 0
DWIDTH 8 0
BBX 9 9 0 0
BITMAP
06ED47ED30
0518A61990
0008700960
004B005A00
03B104B000
0A400C2000
0000000000
5E207E2000
7D208D1000
ENDCHAR
STARTCHAR uni2048
ENCODING 8264
SWIDTH 600 0
DWIDTH 8 0
BBX 8 9 0 0
BITMAP
06ED4079
0518A0A6
000870C3
004B00D0
03B102A0
0A400570
00000000
5E203E50
7D205E40
ENDCHAR
STARTCHAR uni2049
ENCODING 8265
SWIDTH 600 0
DWIDTH 8 0
BBX 9 9 0 0
BITMAP
006B07ED30
0098061990
00B4000960
00D1005A00
01C004B000
04800C2000
0000000000
2E607E2000
4E508D1000
ENDCHAR
STARTCHAR zero.sups
ENCODING 8304
SWIDTH 600 0
DWIDTH 8 0
BBX 5 6 2 5
BITMAP
02DE40
0C43C0
3A00C0
5702B0
4B1A50
0AE800
ENDCHAR
STARTCHAR i.sups
ENCODING 8305
SWIDTH 600 0
DWIDTH 8 0
BBX 4 7 3 5
BITMAP
03B0
0000
FF60
0830
0B00
0D11
0BE5
ENDCHAR
STARTCHAR four.sups
ENCODING 8308
SWIDTH 600 0
DWIDTH 8 0
BBX 5 5 2 6
BITMAP
002900
01A420
0A2920
5FFFB0
001B00
ENDCHAR
STARTCHAR five.sups
ENCODING 8309
SWIDTH 600 0
DWIDTH 8 0
BBX 5 6 2 5
BITMAP
01FFE0
047000
08ED20
031770
361960
0AEA00
ENDCHAR
STARTCHAR six.sups
ENCODING 8310
SWIDTH 600 0
DWIDTH 8 0
BBX 5 6 2 5
BITMAP
009EA0
086130
0DCD30
1D2680
0D1760
07EB00
ENDCHAR
STARTCHAR seven.sups
ENCODING 8311
SWIDTH 600 0
DWIDTH 8 0
BBX 5 5 3 6
BITMAP
7FFF30
005600
038000
0B1000
490000
ENDCHAR
STARTCHAR eight.sups
ENCODING 8312
SWIDTH 600 0
DWIDTH 8 0
BBX 5 6 2 5
BITMAP
02CE60
0684B0
05FE30
2C2A30
3A1950
0BEA00
ENDCHAR
STARTCHAR nine.sups
ENCODING 8313
SWIDTH 600 0
DWIDTH 8 0
BBX 5 6 2 5
BITMAP
03DD30
0B34A0
0D24B0
07EC90
021A30
2DD600
ENDCHAR
STARTCHAR parenleft.sups
ENCODING 8317
SWIDTH 600 0
DWIDTH 8 0
BBX 3 8 4 4
BITMAP
0550
1B00
8500
C000
C000
C000
C000
8100
ENDCHAR
STARTCHAR parenright.sups
ENCODING 8318
SWIDTH 600 0
DWIDTH 8 0
BBX 3 8 3 4
BITMAP
0540
0390
02A0
02A0
0580
0A30
2A00
9100
ENDCHAR
STARTCHAR n.sups
ENCODING 8319
SWIDTH 600 0
DWIDTH 8 0
BBX 6 5 2 5
BITMAP
099EC0
0C71C2
0D00C1
2B00C0
470390
ENDCHAR
STARTCHAR zero.subs
ENCODING 8320
SWIDTH 600 0
DWIDTH 8 0
BBX 5 6 1 -3
BITMAP
03DD30
0D35A0
5802B0
750490
691C30
1CE600
ENDCHAR
STARTCHAR one.subs
ENCODING 8321
SWIDTH 600 0
DWIDTH 8 0
BBX 5 6 1 -3
BITMAP
04AD00
003A00
005700
008400
00B200
9FFF80
ENDCHAR
STARTCHAR two.subs
ENCODING 8322
SWIDTH 600 0
DWIDTH 8 0
BBX 5 6 1 -3
BITMAP
03DD30
052680
000750
004800
077000
7FFF20
ENDCHAR
STARTCHAR three.subs
ENCODING 8323
SWIDTH 600 0
DWIDTH 8 0
BBX 5 6 1 -3
BITMAP
04DE40
022870
00FB00
001B20
451B30
1BE800
ENDCHAR
STARTCHAR four.subs
ENCODING 8324
SWIDTH 600 0
DWIDTH 8 0
BBX 5 5 1 -2
BITMAP
003700
02A410
1A1B00
7FFFA0
002900
ENDCHAR
STARTCHAR five.subs
ENCODING 8325
SWIDTH 600 0
DWIDTH 8 0
BBX 5 6 1 -3
BITMAP
02FFC0
065000
09EC10
031960
451A40
1BE800
ENDCHAR
STARTCHAR six.subs
ENCODING 8326
SWIDTH 600 0
DWIDTH 8 0
BBX 5 6 1 -3
BITMAP
01AE80
094120
1DDD20
3B1860
2C1940
08E900
ENDCHAR
STARTCHAR seven.subs
ENCODING 8327
SWIDTH 600 0
DWIDTH 8 0
BBX 5 5 2 -2
BITMAP
9FFF10
007500
057000
1C0000
670000
ENDCHAR
STARTCHAR eight.subs
ENCODING 8328
SWIDTH 600 0
DWIDTH 8 0
BBX 5 6 1 -3
BITMAP
04DE50
086590
07FD20
3B2B20
591A30
1CE900
ENDCHAR
STARTCHAR nine.subs
ENCODING 8329
SWIDTH 600 0
DWIDTH 8 0
BBX 5 6 1 -3
BITMAP
04DC20
0C2680
0D1690
09EC70
122B20
3DD400
ENDCHAR
STARTCHAR parenleft.subs
ENCODING 8333
SWIDTH 600 0
DWIDTH 8 0
BBX 4 8 2 -4
BITMAP
0073
02A0
0A30
0C00
2B00
2A00
0B00
0900
ENDCHAR
STARTCHAR parenright.subs
ENCODING 8334
SWIDTH 600 0
DWIDTH 8 0
BBX 3 8 2 -4
BITMAP
0720
0570
0380
0480
0760
0B10
4800
9100
ENDCHAR
STARTCHAR uni0259.sups
ENCODING 8340
SWIDTH 600 0
DWIDTH 8 0
BBX 5 5 2 5
BITMAP
05DE50
0413C0
4FFFD0
481690
0BEA10
ENDCHAR
STARTCHAR colonmonetary
ENCODING 8353
SWIDTH 600 0
DWIDTH 8 0
BBX 7 13 1 -2
BITMAP
00002130
00007450
004BFE50
05E859B0
1E473600
7B087100
A7258000
C5735000
B6771000
6E686B00
0AEEA100
07710000
03300000
ENDCHAR
STARTCHAR franc
ENCODING 8355
SWIDTH 600 0
DWIDTH 8 0
BBX 9 9 0 0
BITMAP
002FFFFF30
005B000000
0088000000
00A5000000
00DFFFB000
01F0000000
04D0000000
8FFFE00000
0A60000000
ENDCHAR
STARTCHAR lira
ENCODING 8356
SWIDTH 600 0
DWIDTH 8 0
BBX 8 9 0 0
BITMAP
0005DEB2
002E4068
005A0000
09FFFF70
004B0000
0DFFFF20
00690000
04A10000
7FFFFF80
ENDCHAR
STARTCHAR uni20A6
ENCODING 8358
SWIDTH 600 0
DWIDTH 8 0
BBX 8 9 0 0
BITMAP
006E0066
00AB20A3
00B650C0
2EFFFFFD
039292A0
6FFFFFF9
0850B650
0B20AA20
0C006D00
ENDCHAR
STARTCHAR peseta
ENCODING 8359
SWIDTH 600 0
DWIDTH 8 0
BBX 8 9 1 0
BITMAP
05FFEA10
08802B60
BFFFFFF4
0D200C30
1E029B00
4FFD9100
79000000
A6000000
D2000000
ENDCHAR
STARTCHAR uni20A9
ENCODING 8361
SWIDTH 600 0
DWIDTH 8 0
BBX 9 9 0 0
BITMAP
01E0340A40
02C0A80D00
03B1A74900
0496668400
4FFFFFFD00
066855B000
0785786000
08B18C1000
0AA09B0000
ENDCHAR
STARTCHAR dong
ENCODING 8363
SWIDTH 600 0
DWIDTH 8 0
BBX 9 10 0 0
BITMAP
0000009500
0000EFFE40
000000D000
005CE9C000
03D3189000
0860086000
09914D3000
02DEBD0000
0000000000
3FFFFF1000
ENDCHAR
STARTCHAR Euro
ENCODING 8364
SWIDTH 600 0
DWIDTH 8 0
BBX 9 9 0 0
BITMAP
0003AEE700
004E611B30
00D5000000
2EFFFFC000
06B0000000
6FFFFE0000
06A0000000
02E404C200
005DFC4000
ENDCHAR
STARTCHAR uni20AE
ENCODING 8366
SWIDTH 600 0
DWIDTH 8 0
BBX 8 9 1 0
BITMAP
0FFFFFF2
000A6000
000D3500
003FA400
29AC5600
02AD5000
58C60000
00D30000
01F10000
ENDCHAR
STARTCHAR uni20B1
ENCODING 8369
SWIDTH 600 0
DWIDTH 8 0
BBX 8 9 1 0
BITMAP
05FFE700
08803D40
AFFFFFF6
1C522A70
DFDDDFD1
2E239A00
6EDC7000
A7000000
E2000000
ENDCHAR
STARTCHAR uni20B2
ENCODING 8370
SWIDTH 600 0
DWIDTH 8 0
BBX 7 11 1 -1
BITMAP
00008300
006CFD30
09C40590
4E100000
A8000000
E306FF40
F2000E10
D3001D00
9B118A00
1AFEA200
00B10000
ENDCHAR
STARTCHAR uni20B4
ENCODING 8372
SWIDTH 600 0
DWIDTH 8 0
BBX 7 9 1 0
BITMAP
008EE800
03812E30
00004D10
AFFFFFA0
02BB2000
EFFFFF50
6A000000
8A118500
2BED7000
ENDCHAR
STARTCHAR uni20B5
ENCODING 8373
SWIDTH 600 0
DWIDTH 8 0
BBX 7 13 1 -2
BITMAP
00001200
00006500
004BFE50
05E5B2B0
1E40A000
7B038000
A7065000
B6091000
A70B0000
5D3A5B00
07EEA200
00640000
00310000
ENDCHAR
STARTCHAR uni20B8
ENCODING 8376
SWIDTH 600 0
DWIDTH 8 0
BBX 8 9 1 0
BITMAP
0FFFFFF2
00000000
5FFFFFC0
000E2000
003E0000
006A0000
00970000
00D40000
01F10000
ENDCHAR
STARTCHAR uni20B9
ENCODING 8377
SWIDTH 600 0
DWIDTH 8 0
BBX 8 9 1 0
BITMAP
0BFFFFF2
00029600
1EFFFFA0
0013B700
9FFB6000
03E10000
00A80000
002E2000
00099000
ENDCHAR
STARTCHAR uni20BA
ENCODING 8378
SWIDTH 600 0
DWIDTH 8 0
BBX 8 9 0 0
BITMAP
000D3000
001F2760
007E8200
09AA7920
04DA2011
25D300A4
01F001D2
04C15C70
07EDA400
ENDCHAR
STARTCHAR uni20BD
ENCODING 8381
SWIDTH 600 0
DWIDTH 8 0
BBX 9 9 0 0
BITMAP
0009FFE900
000C402D50
001F100A60
004C016D10
5EFFFEA200
0097000000
9EFFFFD000
00E2000000
03D0000000
ENDCHAR
STARTCHAR uni2105
ENCODING 8453
SWIDTH 600 0
DWIDTH 8 0
BBX 10 9 -1 0
BITMAP
02CE400034
0B413003B1
0D12003A10
08EA004000
000004DD30
00061C35A0
0094480390
1B405A1A50
14001BE800
ENDCHAR
STARTCHAR uni2113
ENCODING 8467
SWIDTH 600 0
DWIDTH 8 0
BBX 7 10 1 0
BITMAP
0004DD20
001E3A50
006A0A30
00A62B00
00D3B200
01FB4000
05D20000
6D900000
07B16100
02CE9100
ENDCHAR
STARTCHAR uni2116
ENCODING 8470
SWIDTH 600 0
DWIDTH 8 0
BBX 10 9 -1 0
BITMAP
00C804C6E8
00D90B6C2C
03AB0E570B
067C2D5858
095C4A1DC1
0C2B760000
0E0AB39FC0
4B09E10000
B507C00000
ENDCHAR
STARTCHAR uni2117
ENCODING 8471
SWIDTH 600 0
DWIDTH 8 0
BBX 9 9 0 0
BITMAP
002AEEA100
03C5117A00
0C20000A00
460AFE4720
810B087810
901FEA1A00
7347008600
2CA53AA000
05DFC60000
ENDCHAR
STARTCHAR uni2120
ENCODING 8480
SWIDTH 600 0
DWIDTH 8 0
BBX 9 5 0 5
BITMAP
06E81D04B0
0A244D2A90
03C2789870
244894B740
1CE4B00920
ENDCHAR
STARTCHAR trademark
ENCODING 8482
SWIDTH 600 0
DWIDTH 8 0
BBX 8 5 1 5
BITMAP
EFF7E32E
0B01C59B
0B048A8A
2A074D48
47091065
ENDCHAR
STARTCHAR uni2126
ENCODING 8486
SWIDTH 600 0
DWIDTH 8 0
BBX 9 9 -1 0
BITMAP
00029EEA10
002E812C90
00B80004E0
02E10002F0
05C00004D0
05A0000880
03C0002C10
00B302B300
5FF80BFF30
ENDCHAR
STARTCHAR estimated
ENCODING 8494
SWIDTH 600 0
DWIDTH 8 0
BBX 8 9 0 0
BITMAP
007DEA20
098214B1
3F3000B7
8F3000BD
9FFFFFFF
8F300000
3F300041
09811660
007EE700
ENDCHAR
STARTCHAR uni2150
ENCODING 8528
SWIDTH 600 0
DWIDTH 8 0
BBX 10 9 -1 0
BITMAP
02BC000075
0039000780
0076007600
00A3001000
0001000000
004908FFD0
0690000920
2900009300
000002B000
ENDCHAR
STARTCHAR uni2151
ENCODING 8529
SWIDTH 600 0
DWIDTH 8 0
BBX 10 9 -1 0
BITMAP
02BC000075
0039000780
0076007600
00A3001000
000104EC20
00490B2770
06900D1870
29000AED30
00001CE600
ENDCHAR
STARTCHAR uni2152
ENCODING 8530
SWIDTH 600 0
DWIDTH 8 0
BBX 9 9 0 0
BITMAP
01FE000000
001B000000
0048004A40
00247A7200
0487200000
00005EC000
3FC0B1A200
0392A1B100
0750BE5000
ENDCHAR
STARTCHAR onethird
ENCODING 8531
SWIDTH 600 0
DWIDTH 8 0
BBX 10 9 -1 0
BITMAP
02BC000075
0039000780
0076007600
00A3001000
000101CE30
0049022950
069000BB00
2900051B30
000008EA00
ENDCHAR
STARTCHAR twothirds
ENCODING 8532
SWIDTH 600 0
DWIDTH 8 0
BBX 10 10 -1 0
BITMAP
02DE200000
0429500075
001A000780
0391007600
2FFF401000
000101CE30
0049022950
069000BB00
2900051B30
000008EA00
ENDCHAR
STARTCHAR uni2155
ENCODING 8533
SWIDTH 600 0
DWIDTH 8 0
BBX 10 9 -1 0
BITMAP
02BC000075
0039000780
0076007600
00A3001000
0001000000
004903FF80
069008ED20
2900182A40
000009EA00
ENDCHAR
STARTCHAR uni2156
ENCODING 8534
SWIDTH 600 0
DWIDTH 8 0
BBX 10 10 -1 0
BITMAP
02DE200000
0429500075
001A000780
0391007600
2FFF401000
0001000000
004903FF80
069008ED20
2900182A40
000009EA00
ENDCHAR
STARTCHAR uni2157
ENCODING 8535
SWIDTH 600 0
DWIDTH 8 0
BBX 10 10 -1 0
BITMAP
01BE400000
0238600075
00AC000780
051A407600
07EB101000
0001000000
004903FF80
069008ED20
2900182A40
000009EA00
ENDCHAR
STARTCHAR uni2158
ENCODING 8536
SWIDTH 600 0
DWIDTH 8 0
BBX 10 9 -1 0
BITMAP
0056000075
065A100780
2FFF807600
001A001000
0001000000
004903FF80
069008ED20
2900182A40
000009EA00
ENDCHAR
STARTCHAR uni2159
ENCODING 8537
SWIDTH 600 0
DWIDTH 8 0
BBX 10 9 -1 0
BITMAP
02BC000075
0039000780
0076007600
00A3001000
000101BE70
00490A6120
06900DDE30
29000D2850
000007EB10
ENDCHAR
STARTCHAR uni215A
ENCODING 8538
SWIDTH 600 0
DWIDTH 8 0
BBX 10 9 -1 0
BITMAP
02FF900075
06EE300780
0829507600
09EB101000
000101BE70
00490A6120
06900DDE30
29000D2850
000007EB10
ENDCHAR
STARTCHAR oneeighth
ENCODING 8539
SWIDTH 600 0
DWIDTH 8 0
BBX 10 9 -1 0
BITMAP
02BC000075
0039000780
0076007600
00A3001000
000103DE40
0049077770
069005FD00
29000C2B30
00000BFB10
ENDCHAR
STARTCHAR threeeighths
ENCODING 8540
SWIDTH 600 0
DWIDTH 8 0
BBX 10 10 -1 0
BITMAP
01BE400000
0238600075
00AC000780
051A407600
07EB101000
000103DE40
0049077770
069005FD00
29000C2B30
00000BFB10
ENDCHAR
STARTCHAR fiveeighths
ENCODING 8541
SWIDTH 600 0
DWIDTH 8 0
BBX 10 9 -1 0
BITMAP
02FF900075
06EE300780
0829507600
09EB101000
000103DE40
0049077770
069005FD00
29000C2B30
00000BFB10
ENDCHAR
STARTCHAR seveneighths
ENCODING 8542
SWIDTH 600 0
DWIDTH 8 0
BBX 10 9 -1 0
BITMAP
06FFE00075
0009300780
0085007600
01C0001000
000103DE40
0049077770
069005FD00
29000C2B30
00000BFB10
ENDCHAR
STARTCHAR uni2189
ENCODING 8585
SWIDTH 600 0
DWIDTH 8 0
BBX 10 10 -1 0
BITMAP
02BE600000
0B52D00075
0C00C00780
1D17907600
08EA101000
000101CE30
0049022950
069000BB00
2900051B30
000008EA00
ENDCHAR
STARTCHAR uni2190
ENCODING 8592
SWIDTH 600 0
DWIDTH 8 0
BBX 8 9 0 -1
BITMAP
00001000
001B5000
01B50000
1B500000
8FFFFFFF
1B500000
01B50000
000B5000
00001000
ENDCHAR
STARTCHAR arrowup
ENCODING 8593
SWIDTH 600 0
DWIDTH 8 0
BBX 8 8 0 0
BITMAP
0005A000
004DEA00
03C5A790
3C24A089
2204A002
0004A000
0004A000
0004A000
ENDCHAR
STARTCHAR uni2192
ENCODING 8594
SWIDTH 600 0
DWIDTH 8 0
BBX 8 9 0 -1
BITMAP
00001000
0001C300
00002C30
000001B3
9FFFFFFD
000001B3
00002C30
0001C300
00001000
ENDCHAR
STARTCHAR arrowdown
ENCODING 8595
SWIDTH 600 0
DWIDTH 8 0
BBX 8 8 0 0
BITMAP
0004A000
0004A000
0004A000
2204A003
3C24A089
03C5A790
004DEA00
0005A000
ENDCHAR
STARTCHAR arrowboth
ENCODING 8596
SWIDTH 600 0
DWIDTH 8 0
BBX 10 7 -1 0
BITMAP
0005002200
0087002C10
06900003B0
1EFFFFFFF6
06900003B0
0087002C10
0004002200
ENDCHAR
STARTCHAR arrowupdn
ENCODING 8597
SWIDTH 600 0
DWIDTH 8 0
BBX 7 9 1 -1
BITMAP
006B1000
08CCC200
874A3C10
004A0000
004A0000
004A0000
874A3C10
09CCC200
006B1000
ENDCHAR
STARTCHAR uni2196
ENCODING 8598
SWIDTH 600 0
DWIDTH 8 0
BBX 6 7 1 0
BITMAP
344432
AF8896
99B100
928B10
9308B1
93008B
100004
ENDCHAR
STARTCHAR uni2197
ENCODING 8599
SWIDTH 600 0
DWIDTH 8 0
BBX 6 7 1 0
BITMAP
133444
4998DE
0006BC
007B1C
07B10C
7B100C
310001
ENDCHAR
STARTCHAR uni2198
ENCODING 8600
SWIDTH 600 0
DWIDTH 8 0
BBX 6 7 1 0
BITMAP
410001
5C100C
05C10C
005C1C
0005CC
3A99CF
133333
ENDCHAR
STARTCHAR uni2199
ENCODING 8601
SWIDTH 600 0
DWIDTH 8 0
BBX 7 7 1 0
BITMAP
10000400
75007B10
8407B100
847B1000
8AB10000
8F999700
23333200
ENDCHAR
STARTCHAR arrowupdnbse
ENCODING 8616
SWIDTH 600 0
DWIDTH 8 0
BBX 8 10 0 -2
BITMAP
00049000
006CDB10
0784A4C1
0104A010
0004A000
0104A010
0794A4C1
006DDB10
00048000
2FFFFFF8
ENDCHAR
STARTCHAR uni21D0
ENCODING 8656
SWIDTH 600 0
DWIDTH 8 0
BBX 8 7 0 0
BITMAP
00095000
00A80000
0AFFFFFF
8B000000
0AFFFFFF
00A80000
00095000
ENDCHAR
STARTCHAR uni21D1
ENCODING 8657
SWIDTH 600 0
DWIDTH 8 0
BBX 8 8 0 0
BITMAP
0005A000
004D9A00
03E50D90
3C840B98
12740B03
00740B00
00740B00
00740B00
ENDCHAR
STARTCHAR uni21D2
ENCODING 8658
SWIDTH 600 0
DWIDTH 8 0
BBX 8 7 0 0
BITMAP
0001C200
00003C20
9FFFFFE3
0000005D
9FFFFFE3
00003C20
0001C200
ENDCHAR
STARTCHAR uni21D3
ENCODING 8659
SWIDTH 600 0
DWIDTH 8 0
BBX 8 8 0 0
BITMAP
00740B00
00740B00
00740B00
12740B03
3C840B98
04E50D90
004DAA00
0005A000
ENDCHAR
STARTCHAR uni2200
ENCODING 8704
SWIDTH 600 0
DWIDTH 8 0
BBX 8 9 1 0
BITMAP
980000B7
7A0005D0
5C555D50
3EAACC00
1E00C300
0E05A000
0C2C2000
0B980000
09E10000
ENDCHAR
STARTCHAR partialdiff
ENCODING 8706
SWIDTH 600 0
DWIDTH 8 0
BBX 8 9 0 0
BITMAP
0005DEA0
000522D6
00000079
00000069
019DEA97
0C9216F3
4D0004A0
3E216C20
09EE9100
ENDCHAR
STARTCHAR uni2203
ENCODING 8707
SWIDTH 600 0
DWIDTH 8 0
BBX 8 9 0 0
BITMAP
03FFFFF7
000000C4
000000F1
000003D0
03FFFFA0
00000970
00000D30
00001F10
FFFFFC00
ENDCHAR
STARTCHAR uni2206
ENCODING 8710
SWIDTH 600 0
DWIDTH 8 0
BBX 9 9 -1 0
BITMAP
00000AD000
00004AD100
0000C2B300
000690A600
001D107800
0097005B00
02D0003D00
0B50001F10
3FFFFFFF20
ENDCHAR
STARTCHAR product
ENCODING 8719
SWIDTH 600 0
DWIDTH 8 0
BBX 8 10 0 -1
BITMAP
4FFFFFF9
4C000079
4C000079
4C000079
4C000079
4C000079
4C000079
4C000079
4C000079
4C000079
ENDCHAR
STARTCHAR summation
ENCODING 8721
SWIDTH 600 0
DWIDTH 8 0
BBX 8 11 0 -2
BITMAP
0FFFFFF2
07A00000
00C50000
002D2000
0007B000
0000E300
0007A000
003D1000
01D40000
09800000
2FFFFFF8
ENDCHAR
STARTCHAR minus
ENCODING 8722
SWIDTH 600 0
DWIDTH 8 0
BBX 7 1 1 4
BITMAP
CFFFFF30
ENDCHAR
STARTCHAR uni2215
ENCODING 8725
SWIDTH 600 0
DWIDTH 8 0
BBX 10 8 -1 1
BITMAP
0000000075
0000000780
0000007600
0000001000
0001000000
0049000000
0690000000
2900000000
ENDCHAR
STARTCHAR uni2219
ENCODING 8729
SWIDTH 600 0
DWIDTH 8 0
BBX 3 2 2 4
BITMAP
4E50
6E40
ENDCHAR
STARTCHAR radical
ENCODING 8730
SWIDTH 600 0
DWIDTH 8 0
BBX 8 13 1 -1
BITMAP
00000071
000000C0
00000290
00000660
00000920
00000B00
38001A00
7C205600
06708300
01C0B000
00A3A000
004B7000
000E3000
ENDCHAR
STARTCHAR infinity
ENCODING 8734
SWIDTH 600 0
DWIDTH 8 0
BBX 9 5 0 2
BITMAP
4DD22CE800
C34CB31C40
D00A800760
D33AC41B30
4EC13CE800
ENDCHAR
STARTCHAR orthogonal
ENCODING 8735
SWIDTH 600 0
DWIDTH 8 0
BBX 7 7 1 1
BITMAP
61000000
C1000000
C1000000
C1000000
C1000000
C1000000
CFFFFF30
ENDCHAR
STARTCHAR intersection
ENCODING 8745
SWIDTH 600 0
DWIDTH 8 0
BBX 6 7 1 1
BITMAP
05DE91
3D3199
86000D
94000D
94000D
94000D
94000D
ENDCHAR
STARTCHAR integral
ENCODING 8747
SWIDTH 600 0
DWIDTH 8 0
BBX 5 13 2 -2
BITMAP
009E10
03D100
059000
059000
05A000
03B000
01D000
00E000
00D100
00C200
00D200
02E000
4E7000
ENDCHAR
STARTCHAR uni2237
ENCODING 8759
SWIDTH 600 0
DWIDTH 8 0
BBX 8 7 0 1
BITMAP
01DA02D8
02E803E7
00000000
00000000
00000000
1DA02D90
2E803E70
ENDCHAR
STARTCHAR approxequal
ENCODING 8776
SWIDTH 600 0
DWIDTH 8 0
BBX 7 5 1 3
BITMAP
3DD61A20
A33BE800
00000000
3DD61A20
A33BE800
ENDCHAR
STARTCHAR notequal
ENCODING 8800
SWIDTH 600 0
DWIDTH 8 0
BBX 7 8 1 1
BITMAP
00004800
0000B100
CFFFFF30
000B1000
00840000
CFFFFF30
09300000
2A000000
ENDCHAR
STARTCHAR equivalence
ENCODING 8801
SWIDTH 600 0
DWIDTH 8 0
BBX 7 7 1 1
BITMAP
CFFFFF30
00000000
00000000
CFFFFF30
00000000
00000000
CFFFFF30
ENDCHAR
STARTCHAR lessequal
ENCODING 8804
SWIDTH 600 0
DWIDTH 8 0
BBX 7 7 1 0
BITMAP
00038D20
27CC7200
CC300000
27CB6100
00038D20
00000000
CFFFFF30
ENDCHAR
STARTCHAR greaterequal
ENCODING 8805
SWIDTH 600 0
DWIDTH 8 0
BBX 7 7 1 0
BITMAP
BA500000
04AD9400
00019F30
049D9400
BA500000
00000000
CFFFFF30
ENDCHAR
STARTCHAR house
ENCODING 8962
SWIDTH 600 0
DWIDTH 8 0
BBX 8 9 0 0
BITMAP
000AE200
006C6B00
02D20A80
0C5001D4
4B00004A
4A00004B
4A00004B
4A00004B
4FFFFFFB
ENDCHAR
STARTCHAR revlogicalnot
ENCODING 8976
SWIDTH 600 0
DWIDTH 8 0
BBX 7 4 1 1
BITMAP
CFFFFF30
C1000000
C1000000
91000000
ENDCHAR
STARTCHAR uni231C
ENCODING 8988
SWIDTH 600 0
DWIDTH 8 0
BBX 6 11 2 -1
BITMAP
00DFFE
01C000
049000
076000
0A3000
0D0000
1C0000
490000
760000
A30000
300000
ENDCHAR
STARTCHAR uni231D
ENCODING 8989
SWIDTH 600 0
DWIDTH 8 0
BBX 5 11 2 -1
BITMAP
7FFF50
000A20
000C00
001B00
004800
007500
00A200
00C000
01C000
049000
022000
ENDCHAR
STARTCHAR uni231E
ENCODING 8990
SWIDTH 600 0
DWIDTH 8 0
BBX 4 10 2 -1
BITMAP
02B0
0580
0850
0A20
0C00
1B00
4800
7500
A200
DFFE
ENDCHAR
STARTCHAR uni231F
ENCODING 8991
SWIDTH 600 0
DWIDTH 8 0
BBX 7 10 0 -1
BITMAP
00000B20
00000D00
00002B00
00005800
00008500
0000B200
0000D000
0002C000
00059000
7FFF6000
ENDCHAR
STARTCHAR integraltp
ENCODING 8992
SWIDTH 600 0
DWIDTH 8 0
BBX 4 17 3 -6
BITMAP
07E3
1E10
3C00
4B00
4B00
4B00
4B00
4B00
4B00
4B00
4B00
4B00
4B00
4B00
4B00
4B00
3900
ENDCHAR
STARTCHAR integralbt
ENCODING 8993
SWIDTH 600 0
DWIDTH 8 0
BBX 3 17 2 -2
BITMAP
0140
04B0
04B0
04B0
04B0
04B0
04B0
04B0
04B0
04B0
04B0
04B0
04B0
04B0
05A0
0870
BC10
ENDCHAR
STARTCHAR uni2500
ENCODING 9472
SWIDTH 600 0
DWIDTH 8 0
BBX 10 1 -1 4
BITMAP
8FFFFFFFFE
ENDCHAR
STARTCHAR uni2501
ENCODING 9473
SWIDTH 600 0
DWIDTH 8 0
BBX 10 2 -1 3
BITMAP
8FFFFFFFFE
8FFFFFFFFE
ENDCHAR
STARTCHAR uni2502
ENCODING 9474
SWIDTH 600 0
DWIDTH 8 0
BBX 2 20 3 -6
BITMAP
5B
5B
5B
5B
5B
5B
5B
5B
5B
5B
5B
5B
5B
5B
5B
5B
5B
5B
5B
5B
ENDCHAR
STARTCHAR uni2503
ENCODING 9475
SWIDTH 600 0
DWIDTH 8 0
BBX 3 20 3 -6
BITMAP
DF40
DF40
DF40
DF40
DF40
DF40
DF40
DF40
DF40
DF40
DF40
DF40
DF40
DF40
DF40
DF40
DF40
DF40
DF40
DF40
ENDCHAR
STARTCHAR uni2504
ENCODING 9476
SWIDTH 600 0
DWIDTH 8 0
BBX 8 1 0 4
BITMAP
8F5BF2EE
ENDCHAR
STARTCHAR uni2505
ENCODING 9477
SWIDTH 600 0
DWIDTH 8 0
BBX 8 2 0 3
BITMAP
8F5BF2EE
8F5BF2EE
ENDCHAR
STARTCHAR uni2506
ENCODING 9478
SWIDTH 600 0
DWIDTH 8 0
BBX 2 16 3 -4
BITMAP
5B
5B
5B
5B
00
01
5B
5B
5B
37
00
25
5B
5B
5B
13
ENDCHAR
STARTCHAR uni2507
ENCODING 9479
SWIDTH 600 0
DWIDTH 8 0
BBX 3 15 3 -3
BITMAP
DF40
DF40
DF40
DF40
0000
0000
DF40
DF40
DF40
DF40
0000
DF40
DF40
DF40
DF40
ENDCHAR
STARTCHAR uni2508
ENCODING 9480
SWIDTH 600 0
DWIDTH 8 0
BBX 9 1 0 4
BITMAP
BCAE8F7F20
ENDCHAR
STARTCHAR uni2509
ENCODING 9481
SWIDTH 600 0
DWIDTH 8 0
BBX 9 2 0 3
BITMAP
BCAE8F7F20
BCAE8F7F20
ENDCHAR
STARTCHAR uni250A
ENCODING 9482
SWIDTH 600 0
DWIDTH 8 0
BBX 2 16 3 -4
BITMAP
5B
5B
5B
00
5B
5B
5B
00
5B
5B
5B
00
00
5B
5B
5B
ENDCHAR
STARTCHAR uni250B
ENCODING 9483
SWIDTH 600 0
DWIDTH 8 0
BBX 3 16 3 -4
BITMAP
DF40
DF40
DF40
0000
DF40
DF40
DF40
0000
DF40
DF40
DF40
0000
0000
DF40
DF40
DF40
ENDCHAR
STARTCHAR uni250C
ENCODING 9484
SWIDTH 600 0
DWIDTH 8 0
BBX 6 11 3 -6
BITMAP
5FFFFE
5B0000
5B0000
5B0000
5B0000
5B0000
5B0000
5B0000
5B0000
5B0000
130000
ENDCHAR
STARTCHAR uni250D
ENCODING 9485
SWIDTH 600 0
DWIDTH 8 0
BBX 6 11 3 -6
BITMAP
5FFFFE
5FFFFE
5B0000
5B0000
5B0000
5B0000
5B0000
5B0000
5B0000
5B0000
480000
ENDCHAR
STARTCHAR uni250E
ENCODING 9486
SWIDTH 600 0
DWIDTH 8 0
BBX 6 11 3 -6
BITMAP
DFFFFE
DF4000
DF4000
DF4000
DF4000
DF4000
DF4000
DF4000
DF4000
DF4000
341000
ENDCHAR
STARTCHAR uni250F
ENCODING 9487
SWIDTH 600 0
DWIDTH 8 0
BBX 6 11 3 -6
BITMAP
DFFFFE
DFFFFE
DF4000
DF4000
DF4000
DF4000
DF4000
DF4000
DF4000
DF4000
9B3000
ENDCHAR
STARTCHAR uni2510
ENCODING 9488
SWIDTH 600 0
DWIDTH 8 0
BBX 6 11 -1 -6
BITMAP
8FFFFB
00005B
00005B
00005B
00005B
00005B
00005B
00005B
00005B
00005B
000013
ENDCHAR
STARTCHAR uni2511
ENCODING 9489
SWIDTH 600 0
DWIDTH 8 0
BBX 6 11 -1 -6
BITMAP
8FFFFB
8FFFFB
00005B
00005B
00005B
00005B
00005B
00005B
00005B
00005B
000048
ENDCHAR
STARTCHAR uni2512
ENCODING 9490
SWIDTH 600 0
DWIDTH 8 0
BBX 7 11 -1 -6
BITMAP
8FFFFF40
0000DF40
0000DF40
0000DF40
0000DF40
0000DF40
0000DF40
0000DF40
0000DF40
0000DF40
00003410
ENDCHAR
STARTCHAR uni2513
ENCODING 9491
SWIDTH 600 0
DWIDTH 8 0
BBX 7 11 -1 -6
BITMAP
8FFFFF40
8FFFFF40
0000DF40
0000DF40
0000DF40
0000DF40
0000DF40
0000DF40
0000DF40
0000DF40
00009B30
ENDCHAR
STARTCHAR uni2514
ENCODING 9492
SWIDTH 600 0
DWIDTH 8 0
BBX 6 11 3 4
BITMAP
130000
5B0000
5B0000
5B0000
5B0000
5B0000
5B0000
5B0000
5B0000
5B0000
5FFFFE
ENDCHAR
STARTCHAR uni2515
ENCODING 9493
SWIDTH 600 0
DWIDTH 8 0
BBX 6 11 3 3
BITMAP
480000
5B0000
5B0000
5B0000
5B0000
5B0000
5B0000
5B0000
5B0000
5FFFFE
5FFFFE
ENDCHAR
STARTCHAR uni2516
ENCODING 9494
SWIDTH 600 0
DWIDTH 8 0
BBX 6 11 3 4
BITMAP
341000
DF4000
DF4000
DF4000
DF4000
DF4000
DF4000
DF4000
DF4000
DF4000
DFFFFE
ENDCHAR
STARTCHAR uni2517
ENCODING 9495
SWIDTH 600 0
DWIDTH 8 0
BBX 6 11 3 3
BITMAP
9B3000
DF4000
DF4000
DF4000
DF4000
DF4000
DF4000
DF4000
DF4000
DFFFFE
DFFFFE
ENDCHAR
STARTCHAR uni2518
ENCODING 9496
SWIDTH 600 0
DWIDTH 8 0
BBX 6 11 -1 4
BITMAP
000013
00005B
00005B
00005B
00005B
00005B
00005B
00005B
00005B
00005B
8FFFFB
ENDCHAR
STARTCHAR uni2519
ENCODING 9497
SWIDTH 600 0
DWIDTH 8 0
BBX 6 11 -1 3
BITMAP
000048
00005B
00005B
00005B
00005B
00005B
00005B
00005B
00005B
8FFFFB
8FFFFB
ENDCHAR
STARTCHAR uni251A
ENCODING 9498
SWIDTH 600 0
DWIDTH 8 0
BBX 7 11 -1 4
BITMAP
00003410
0000DF40
0000DF40
0000DF40
0000DF40
0000DF40
0000DF40
0000DF40
0000DF40
0000DF40
8FFFFF40
ENDCHAR
STARTCHAR uni251B
ENCODING 9499
SWIDTH 600 0
DWIDTH 8 0
BBX 7 11 -1 3
BITMAP
00009B30
0000DF40
0000DF40
0000DF40
0000DF40
0000DF40
0000DF40
0000DF40
0000DF40
8FFFFF40
8FFFFF40
ENDCHAR
STARTCHAR uni251C
ENCODING 9500
SWIDTH 600 0
DWIDTH 8 0
BBX 6 21 3 -6
BITMAP
130000
5B0000
5B0000
5B0000
5B0000
5B0000
5B0000
5B0000
5B0000
5B0000
5FFFFE
5B0000
5B0000
5B0000
5B0000
5B0000
5B0000
5B0000
5B0000
5B0000
130000
ENDCHAR
STARTCHAR uni251D
ENCODING 9501
SWIDTH 600 0
DWIDTH 8 0
BBX 6 20 3 -6
BITMAP
480000
5B0000
5B0000
5B0000
5B0000
5B0000
5B0000
5B0000
5B0000
5FFFFE
5FFFFE
5B0000
5B0000
5B0000
5B0000
5B0000
5B0000
5B0000
5B0000
480000
ENDCHAR
STARTCHAR uni251E
ENCODING 9502
SWIDTH 600 0
DWIDTH 8 0
BBX 6 21 3 -6
BITMAP
341000
DF4000
DF4000
DF4000
DF4000
DF4000
DF4000
DF4000
DF4000
DF4000
DFFFFE
5B0000
5B0000
5B0000
5B0000
5B0000
5B0000
5B0000
5B0000
5B0000
130000
ENDCHAR
STARTCHAR uni251F
ENCODING 9503
SWIDTH 600 0
DWIDTH 8 0
BBX 6 21 3 -6
BITMAP
130000
5B0000
5B0000
5B0000
5B0000
5B0000
5B0000
5B0000
5B0000
5B0000
DFFFFE
DF4000
DF4000
DF4000
DF4000
DF4000
DF4000
DF4000
DF4000
DF4000
341000
ENDCHAR
STARTCHAR uni2520
ENCODING 9504
SWIDTH 600 0
DWIDTH 8 0
BBX 6 21 3 -6
BITMAP
341000
DF4000
DF4000
DF4000
DF4000
DF4000
DF4000
DF4000
DF4000
DF4000
DFFFFE
DF4000
DF4000
DF4000
DF4000
DF4000
DF4000
DF4000
DF4000
DF4000
341000
ENDCHAR
STARTCHAR uni2521
ENCODING 9505
SWIDTH 600 0
DWIDTH 8 0
BBX 6 20 3 -6
BITMAP
9B3000
DF4000
DF4000
DF4000
DF4000
DF4000
DF4000
DF4000
DF4000
DFFFFE
DFFFFE
5B0000
5B0000
5B0000
5B0000
5B0000
5B0000
5B0000
5B0000
480000
ENDCHAR
STARTCHAR uni2522
ENCODING 9506
SWIDTH 600 0
DWIDTH 8 0
BBX 6 20 3 -6
BITMAP
480000
5B0000
5B0000
5B0000
5B0000
5B0000
5B0000
5B0000
5B0000
DFFFFE
DFFFFE
DF4000
DF4000
DF4000
DF4000
DF4000
DF4000
DF4000
DF4000
9B3000
ENDCHAR
STARTCHAR uni2523
ENCODING 9507
SWIDTH 600 0
DWIDTH 8 0
BBX 6 20 3 -6
BITMAP
9B3000
DF4000
DF4000
DF4000
DF4000
DF4000
DF4000
DF4000
DF4000
DFFFFE
DFFFFE
DF4000
DF4000
DF4000
DF4000
DF4000
DF4000
DF4000
DF4000
9B3000
ENDCHAR
STARTCHAR uni2524
ENCODING 9508
SWIDTH 600 0
DWIDTH 8 0
BBX 6 21 -1 -6
BITMAP
000013
00005B
00005B
00005B
00005B
00005B
00005B
00005B
00005B
00005B
8FFFFB
00005B
00005B
00005B
00005B
00005B
00005B
00005B
00005B
00005B
000013
ENDCHAR
STARTCHAR uni2525
ENCODING 9509
SWIDTH 600 0
DWIDTH 8 0
BBX 6 20 -1 -6
BITMAP
000048
00005B
00005B
00005B
00005B
00005B
00005B
00005B
00005B
8FFFFB
8FFFFB
00005B
00005B
00005B
00005B
00005B
00005B
00005B
00005B
000048
ENDCHAR
STARTCHAR uni2526
ENCODING 9510
SWIDTH 600 0
DWIDTH 8 0
BBX 7 21 -1 -6
BITMAP
00003410
0000DF40
0000DF40
0000DF40
0000DF40
0000DF40
0000DF40
0000DF40
0000DF40
0000DF40
8FFFFF40
00005B00
00005B00
00005B00
00005B00
00005B00
00005B00
00005B00
00005B00
00005B00
00001300
ENDCHAR
STARTCHAR uni2527
ENCODING 9511
SWIDTH 600 0
DWIDTH 8 0
BBX 7 21 -1 -6
BITMAP
00001300
00005B00
00005B00
00005B00
00005B00
00005B00
00005B00
00005B00
00005B00
00005B00
8FFFFF40
0000DF40
0000DF40
0000DF40
0000DF40
0000DF40
0000DF40
0000DF40
0000DF40
0000DF40
00003410
ENDCHAR
STARTCHAR uni2528
ENCODING 9512
SWIDTH 600 0
DWIDTH 8 0
BBX 7 21 -1 -6
BITMAP
00003410
0000DF40
0000DF40
0000DF40
0000DF40
0000DF40
0000DF40
0000DF40
0000DF40
0000DF40
8FFFFF40
0000DF40
0000DF40
0000DF40
0000DF40
0000DF40
0000DF40
0000DF40
0000DF40
0000DF40
00003410
ENDCHAR
STARTCHAR uni2529
ENCODING 9513
SWIDTH 600 0
DWIDTH 8 0
BBX 7 20 -1 -6
BITMAP
00009B30
0000DF40
0000DF40
0000DF40
0000DF40
0000DF40
0000DF40
0000DF40
0000DF40
8FFFFF40
8FFFFF40
00005B00
00005B00
00005B00
00005B00
00005B00
00005B00
00005B00
00005B00
00004800
ENDCHAR
STARTCHAR uni252A
ENCODING 9514
SWIDTH 600 0
DWIDTH 8 0
BBX 7 20 -1 -6
BITMAP
00004800
00005B00
00005B00
00005B00
00005B00
00005B00
00005B00
00005B00
00005B00
8FFFFF40
8FFFFF40
0000DF40
0000DF40
0000DF40
0000DF40
0000DF40
0000DF40
0000DF40
0000DF40
00009B30
ENDCHAR
STARTCHAR uni252B
ENCODING 9515
SWIDTH 600 0
DWIDTH 8 0
BBX 7 20 -1 -6
BITMAP
00009B30
0000DF40
0000DF40
0000DF40
0000DF40
0000DF40
0000DF40
0000DF40
0000DF40
8FFFFF40
8FFFFF40
0000DF40
0000DF40
0000DF40
0000DF40
0000DF40
0000DF40
0000DF40
0000DF40
00009B30
ENDCHAR
STARTCHAR uni252C
ENCODING 9516
SWIDTH 600 0
DWIDTH 8 0
BBX 10 11 -1 -6
BITMAP
8FFFFFFFFE
00005B0000
00005B0000
00005B0000
00005B0000
00005B0000
00005B0000
00005B0000
00005B0000
00005B0000
0000130000
ENDCHAR
STARTCHAR uni252D
ENCODING 9517
SWIDTH 600 0
DWIDTH 8 0
BBX 10 11 -1 -6
BITMAP
8FFFFFFFFE
8FFFFB0000
00005B0000
00005B0000
00005B0000
00005B0000
00005B0000
00005B0000
00005B0000
00005B0000
0000480000
ENDCHAR
STARTCHAR uni252E
ENCODING 9518
SWIDTH 600 0
DWIDTH 8 0
BBX 10 11 -1 -6
BITMAP
8FFFFFFFFE
00005FFFFE
00005B0000
00005B0000
00005B0000
00005B0000
00005B0000
00005B0000
00005B0000
00005B0000
0000480000
ENDCHAR
STARTCHAR uni252F
ENCODING 9519
SWIDTH 600 0
DWIDTH 8 0
BBX 10 11 -1 -6
BITMAP
8FFFFFFFFE
8FFFFFFFFE
00005B0000
00005B0000
00005B0000
00005B0000
00005B0000
00005B0000
00005B0000
00005B0000
0000480000
ENDCHAR
STARTCHAR uni2530
ENCODING 9520
SWIDTH 600 0
DWIDTH 8 0
BBX 10 11 -1 -6
BITMAP
8FFFFFFFFE
0000DF4000
0000DF4000
0000DF4000
0000DF4000
0000DF4000
0000DF4000
0000DF4000
0000DF4000
0000DF4000
0000341000
ENDCHAR
STARTCHAR uni2531
ENCODING 9521
SWIDTH 600 0
DWIDTH 8 0
BBX 10 11 -1 -6
BITMAP
8FFFFFFFFE
8FFFFF4000
0000DF4000
0000DF4000
0000DF4000
0000DF4000
0000DF4000
0000DF4000
0000DF4000
0000DF4000
00009B3000
ENDCHAR
STARTCHAR uni2532
ENCODING 9522
SWIDTH 600 0
DWIDTH 8 0
BBX 10 11 -1 -6
BITMAP
8FFFFFFFFE
0000DFFFFE
0000DF4000
0000DF4000
0000DF4000
0000DF4000
0000DF4000
0000DF4000
0000DF4000
0000DF4000
00009B3000
ENDCHAR
STARTCHAR uni2533
ENCODING 9523
SWIDTH 600 0
DWIDTH 8 0
BBX 10 11 -1 -6
BITMAP
8FFFFFFFFE
8FFFFFFFFE
0000DF4000
0000DF4000
0000DF4000
0000DF4000
0000DF4000
0000DF4000
0000DF4000
0000DF4000
00009B3000
ENDCHAR
STARTCHAR uni2534
ENCODING 9524
SWIDTH 600 0
DWIDTH 8 0
BBX 10 11 -1 4
BITMAP
0000130000
00005B0000
00005B0000
00005B0000
00005B0000
00005B0000
00005B0000
00005B0000
00005B0000
00005B0000
8FFFFFFFFE
ENDCHAR
STARTCHAR uni2535
ENCODING 9525
SWIDTH 600 0
DWIDTH 8 0
BBX 10 11 -1 3
BITMAP
0000480000
00005B0000
00005B0000
00005B0000
00005B0000
00005B0000
00005B0000
00005B0000
00005B0000
8FFFFFFFFE
8FFFFB0000
ENDCHAR
STARTCHAR uni2536
ENCODING 9526
SWIDTH 600 0
DWIDTH 8 0
BBX 10 11 -1 3
BITMAP
0000480000
00005B0000
00005B0000
00005B0000
00005B0000
00005B0000
00005B0000
00005B0000
00005B0000
8FFFFFFFFE
00005FFFFE
ENDCHAR
STARTCHAR uni2537
ENCODING 9527
SWIDTH 600 0
DWIDTH 8 0
BBX 10 11 -1 3
BITMAP
0000480000
00005B0000
00005B0000
00005B0000
00005B0000
00005B0000
00005B0000
00005B0000
00005B0000
8FFFFFFFFE
8FFFFFFFFE
ENDCHAR
STARTCHAR uni2538
ENCODING 9528
SWIDTH 600 0
DWIDTH 8 0
BBX 10 11 -1 4
BITMAP
0000341000
0000DF4000
0000DF4000
0000DF4000
0000DF4000
0000DF4000
0000DF4000
0000DF4000
0000DF4000
0000DF4000
8FFFFFFFFE
ENDCHAR
STARTCHAR uni2539
ENCODING 9529
SWIDTH 600 0
DWIDTH 8 0
BBX 10 11 -1 3
BITMAP
00009B3000
0000DF4000
0000DF4000
0000DF4000
0000DF4000
0000DF4000
0000DF4000
0000DF4000
0000DF4000
8FFFFFFFFE
8FFFFF4000
ENDCHAR
STARTCHAR uni253A
ENCODING 9530
SWIDTH 600 0
DWIDTH 8 0
BBX 10 11 -1 3
BITMAP
00009B3000
0000DF4000
0000DF4000
0000DF4000
0000DF4000
0000DF4000
0000DF4000
0000DF4000
0000DF4000
8FFFFFFFFE
0000DFFFFE
ENDCHAR
STARTCHAR uni253B
ENCODING 9531
SWIDTH 600 0
DWIDTH 8 0
BBX 10 11 -1 3
BITMAP
00009B3000
0000DF4000
0000DF4000
0000DF4000
0000DF4000
0000DF4000
0000DF4000
0000DF4000
0000DF4000
8FFFFFFFFE
8FFFFFFFFE
ENDCHAR
STARTCHAR uni253C
ENCODING 9532
SWIDTH 600 0
DWIDTH 8 0
BBX 10 21 -1 -6
BITMAP
0000130000
00005B0000
00005B0000
00005B0000
00005B0000
00005B0000
00005B0000
00005B0000
00005B0000
00005B0000
8FFFFFFFFE
00005B0000
00005B0000
00005B0000
00005B0000
00005B0000
00005B0000
00005B0000
00005B0000
00005B0000
0000130000
ENDCHAR
STARTCHAR uni253D
ENCODING 9533
SWIDTH 600 0
DWIDTH 8 0
BBX 10 20 -1 -6
BITMAP
0000480000
00005B0000
00005B0000
00005B0000
00005B0000
00005B0000
00005B0000
00005B0000
00005B0000
8FFFFFFFFE
8FFFFB0000
00005B0000
00005B0000
00005B0000
00005B0000
00005B0000
00005B0000
00005B0000
00005B0000
0000480000
ENDCHAR
STARTCHAR uni253E
ENCODING 9534
SWIDTH 600 0
DWIDTH 8 0
BBX 10 20 -1 -6
BITMAP
0000480000
00005B0000
00005B0000
00005B0000
00005B0000
00005B0000
00005B0000
00005B0000
00005B0000
8FFFFFFFFE
00005FFFFE
00005B0000
00005B0000
00005B0000
00005B0000
00005B0000
00005B0000
00005B0000
00005B0000
0000480000
ENDCHAR
STARTCHAR uni253F
ENCODING 9535
SWIDTH 600 0
DWIDTH 8 0
BBX 10 20 -1 -6
BITMAP
0000480000
00005B0000
00005B0000
00005B0000
00005B0000
00005B0000
00005B0000
00005B0000
00005B0000
8FFFFFFFFE
8FFFFFFFFE
00005B0000
00005B0000
00005B0000
00005B0000
00005B0000
00005B0000
00005B0000
00005B0000
0000480000
ENDCHAR
STARTCHAR uni2540
ENCODING 9536
SWIDTH 600 0
DWIDTH 8 0
BBX 10 21 -1 -6
BITMAP
0000341000
0000DF4000
0000DF4000
0000DF4000
0000DF4000
0000DF4000
0000DF4000
0000DF4000
0000DF4000
0000DF4000
8FFFFFFFFE
00005B0000
00005B0000
00005B0000
00005B0000
00005B0000
00005B0000
00005B0000
00005B0000
00005B0000
0000130000
ENDCHAR
STARTCHAR uni2541
ENCODING 9537
SWIDTH 600 0
DWIDTH 8 0
BBX 10 21 -1 -6
BITMAP
0000130000
00005B0000
00005B0000
00005B0000
00005B0000
00005B0000
00005B0000
00005B0000
00005B0000
00005B0000
8FFFFFFFFE
0000DF4000
0000DF4000
0000DF4000
0000DF4000
0000DF4000
0000DF4000
0000DF4000
0000DF4000
0000DF4000
0000341000
ENDCHAR
STARTCHAR uni2542
ENCODING 9538
SWIDTH 600 0
DWIDTH 8 0
BBX 10 21 -1 -6
BITMAP
0000341000
0000DF4000
0000DF4000
0000DF4000
0000DF4000
0000DF4000
0000DF4000
0000DF4000
0000DF4000
0000DF4000
8FFFFFFFFE
0000DF4000
0000DF4000
0000DF4000
0000DF4000
0000DF4000
0000DF4000
0000DF4000
0000DF4000
0000DF4000
0000341000
ENDCHAR
STARTCHAR uni2543
ENCODING 9539
SWIDTH 600 0
DWIDTH 8 0
BBX 10 20 -1 -6
BITMAP
00009B3000
0000DF4000
0000DF4000
0000DF4000
0000DF4000
0000DF4000
0000DF4000
0000DF4000
0000DF4000
8FFFFFFFFE
8FFFFF4000
00005B0000
00005B0000
00005B0000
00005B0000
00005B0000
00005B0000
00005B0000
00005B0000
0000480000
ENDCHAR
STARTCHAR uni2544
ENCODING 9540
SWIDTH 600 0
DWIDTH 8 0
BBX 10 20 -1 -6
BITMAP
00009B3000
0000DF4000
0000DF4000
0000DF4000
0000DF4000
0000DF4000
0000DF4000
0000DF4000
0000DF4000
8FFFFFFFFE
0000DFFFFE
00005B0000
00005B0000
00005B0000
00005B0000
00005B0000
00005B0000
00005B0000
00005B0000
0000480000
ENDCHAR
STARTCHAR uni2545
ENCODING 9541
SWIDTH 600 0
DWIDTH 8 0
BBX 10 20 -1 -6
BITMAP
0000480000
00005B0000
00005B0000
00005B0000
00005B0000
00005B0000
00005B0000
00005B0000
00005B0000
8FFFFFFFFE
8FFFFF4000
0000DF4000
0000DF4000
0000DF4000
0000DF4000
0000DF4000
0000DF4000
0000DF4000
0000DF4000
00009B3000
ENDCHAR
STARTCHAR uni2546
ENCODING 9542
SWIDTH 600 0
DWIDTH 8 0
BBX 10 20 -1 -6
BITMAP
0000480000
00005B0000
00005B0000
00005B0000
00005B0000
00005B0000
00005B0000
00005B0000
00005B0000
8FFFFFFFFE
0000DFFFFE
0000DF4000
0000DF4000
0000DF4000
0000DF4000
0000DF4000
0000DF4000
0000DF4000
0000DF4000
00009B3000
ENDCHAR
STARTCHAR uni2547
ENCODING 9543
SWIDTH 600 0
DWIDTH 8 0
BBX 10 20 -1 -6
BITMAP
00009B3000
0000DF4000
0000DF4000
0000DF4000
0000DF4000
0000DF4000
0000DF4000
0000DF4000
0000DF4000
8FFFFFFFFE
8FFFFFFFFE
00005B0000
00005B0000
00005B0000
00005B0000
00005B0000
00005B0000
00005B0000
00005B0000
0000480000
ENDCHAR
STARTCHAR uni2548
ENCODING 9544
SWIDTH 600 0
DWIDTH 8 0
BBX 10 20 -1 -6
BITMAP
0000480000
00005B0000
00005B0000
00005B0000
00005B0000
00005B0000
00005B0000
00005B0000
00005B0000
8FFFFFFFFE
8FFFFFFFFE
0000DF4000
0000DF4000
0000DF4000
0000DF4000
0000DF4000
0000DF4000
0000DF4000
0000DF4000
00009B3000
ENDCHAR
STARTCHAR uni2549
ENCODING 9545
SWIDTH 600 0
DWIDTH 8 0
BBX 10 20 -1 -6
BITMAP
00009B3000
0000DF4000
0000DF4000
0000DF4000
0000DF4000
0000DF4000
0000DF4000
0000DF4000
0000DF4000
8FFFFFFFFE
8FFFFF4000
0000DF4000
0000DF4000
0000DF4000
0000DF4000
0000DF4000
0000DF4000
0000DF4000
0000DF4000
00009B3000
ENDCHAR
STARTCHAR uni254A
ENCODING 9546
SWIDTH 600 0
DWIDTH 8 0
BBX 10 20 -1 -6
BITMAP
00009B3000
0000DF4000
0000DF4000
0000DF4000
0000DF4000
0000DF4000
0000DF4000
0000DF4000
0000DF4000
8FFFFFFFFE
0000DFFFFE
0000DF4000
0000DF4000
0000DF4000
0000DF4000
0000DF4000
0000DF4000
0000DF4000
0000DF4000
00009B3000
ENDCHAR
STARTCHAR uni254B
ENCODING 9547
SWIDTH 600 0
DWIDTH 8 0
BBX 10 20 -1 -6
BITMAP
00009B3000
0000DF4000
0000DF4000
0000DF4000
0000DF4000
0000DF4000
0000DF4000
0000DF4000
0000DF4000
8FFFFFFFFE
8FFFFFFFFE
0000DF4000
0000DF4000
0000DF4000
0000DF4000
0000DF4000
0000DF4000
0000DF4000
0000DF4000
00009B3000
ENDCHAR
STARTCHAR uni254C
ENCODING 9548
SWIDTH 600 0
DWIDTH 8 0
BBX 7 1 1 4
BITMAP
EF20BF50
ENDCHAR
STARTCHAR uni254D
ENCODING 9549
SWIDTH 600 0
DWIDTH 8 0
BBX 7 2 1 3
BITMAP
EF20BF50
EF20BF50
ENDCHAR
STARTCHAR uni254E
ENCODING 9550
SWIDTH 600 0
DWIDTH 8 0
BBX 2 13 3 -2
BITMAP
5B
5B
5B
5B
12
00
00
00
12
5B
5B
5B
5B
ENDCHAR
STARTCHAR uni254F
ENCODING 9551
SWIDTH 600 0
DWIDTH 8 0
BBX 3 13 3 -3
BITMAP
DF40
DF40
DF40
DF40
0000
0000
0000
1100
DF40
DF40
DF40
DF40
1100
ENDCHAR
STARTCHAR uni2550
ENCODING 9552
SWIDTH 600 0
DWIDTH 8 0
BBX 10 3 -1 3
BITMAP
8FFFFFFFFE
0000000000
8FFFFFFFFE
ENDCHAR
STARTCHAR uni2551
ENCODING 9553
SWIDTH 600 0
DWIDTH 8 0
BBX 4 20 2 -6
BITMAP
7A4D
7A4D
7A4D
7A4D
7A4D
7A4D
7A4D
7A4D
7A4D
7A4D
7A4D
7A4D
7A4D
7A4D
7A4D
7A4D
7A4D
7A4D
7A4D
7A4D
ENDCHAR
STARTCHAR uni2552
ENCODING 9554
SWIDTH 600 0
DWIDTH 8 0
BBX 6 12 3 -6
BITMAP
5FFFFE
5B0000
5FFFFE
5B0000
5B0000
5B0000
5B0000
5B0000
5B0000
5B0000
5B0000
120000
ENDCHAR
STARTCHAR uni2553
ENCODING 9555
SWIDTH 600 0
DWIDTH 8 0
BBX 7 11 2 -6
BITMAP
7FFFFFE0
7A4D0000
7A4D0000
7A4D0000
7A4D0000
7A4D0000
7A4D0000
7A4D0000
7A4D0000
7A4D0000
22130000
ENDCHAR
STARTCHAR uni2554
ENCODING 9556
SWIDTH 600 0
DWIDTH 8 0
BBX 7 12 2 -6
BITMAP
7FFFFFE0
7A000000
7A4FFFE0
7A4D0000
7A4D0000
7A4D0000
7A4D0000
7A4D0000
7A4D0000
7A4D0000
7A4D0000
23120000
ENDCHAR
STARTCHAR uni2555
ENCODING 9557
SWIDTH 600 0
DWIDTH 8 0
BBX 6 12 -1 -6
BITMAP
8FFFFB
00005B
8FFFFB
00005B
00005B
00005B
00005B
00005B
00005B
00005B
00005B
000012
ENDCHAR
STARTCHAR uni2556
ENCODING 9558
SWIDTH 600 0
DWIDTH 8 0
BBX 7 11 -1 -6
BITMAP
8FFFFFD0
0007A4D0
0007A4D0
0007A4D0
0007A4D0
0007A4D0
0007A4D0
0007A4D0
0007A4D0
0007A4D0
00022130
ENDCHAR
STARTCHAR uni2557
ENCODING 9559
SWIDTH 600 0
DWIDTH 8 0
BBX 7 12 -1 -6
BITMAP
8FFFFFD0
000004D0
8FFFA4D0
0007A4D0
0007A4D0
0007A4D0
0007A4D0
0007A4D0
0007A4D0
0007A4D0
0007A4D0
00012140
ENDCHAR
STARTCHAR uni2558
ENCODING 9560
SWIDTH 600 0
DWIDTH 8 0
BBX 6 12 3 3
BITMAP
120000
5B0000
5B0000
5B0000
5B0000
5B0000
5B0000
5B0000
5B0000
5FFFFE
5B0000
5FFFFE
ENDCHAR
STARTCHAR uni2559
ENCODING 9561
SWIDTH 600 0
DWIDTH 8 0
BBX 7 11 2 4
BITMAP
22130000
7A4D0000
7A4D0000
7A4D0000
7A4D0000
7A4D0000
7A4D0000
7A4D0000
7A4D0000
7A4D0000
7FFFFFE0
ENDCHAR
STARTCHAR uni255A
ENCODING 9562
SWIDTH 600 0
DWIDTH 8 0
BBX 7 12 2 3
BITMAP
23120000
7A4D0000
7A4D0000
7A4D0000
7A4D0000
7A4D0000
7A4D0000
7A4D0000
7A4D0000
7A4FFFE0
7A000000
7FFFFFE0
ENDCHAR
STARTCHAR uni255B
ENCODING 9563
SWIDTH 600 0
DWIDTH 8 0
BBX 6 12 -1 3
BITMAP
000012
00005B
00005B
00005B
00005B
00005B
00005B
00005B
00005B
8FFFFB
00005B
8FFFFB
ENDCHAR
STARTCHAR uni255C
ENCODING 9564
SWIDTH 600 0
DWIDTH 8 0
BBX 7 11 -1 4
BITMAP
00022130
0007A4D0
0007A4D0
0007A4D0
0007A4D0
0007A4D0
0007A4D0
0007A4D0
0007A4D0
0007A4D0
8FFFFFD0
ENDCHAR
STARTCHAR uni255D
ENCODING 9565
SWIDTH 600 0
DWIDTH 8 0
BBX 7 12 -1 3
BITMAP
00012140
0007A4D0
0007A4D0
0007A4D0
0007A4D0
0007A4D0
0007A4D0
0007A4D0
0007A4D0
8FFFA4D0
000004D0
8FFFFFD0
ENDCHAR
STARTCHAR uni255E
ENCODING 9566
SWIDTH 600 0
DWIDTH 8 0
BBX 6 21 3 -6
BITMAP
120000
5B0000
5B0000
5B0000
5B0000
5B0000
5B0000
5B0000
5B0000
5FFFFE
5B0000
5FFFFE
5B0000
5B0000
5B0000
5B0000
5B0000
5B0000
5B0000
5B0000
120000
ENDCHAR
STARTCHAR uni255F
ENCODING 9567
SWIDTH 600 0
DWIDTH 8 0
BBX 7 21 2 -6
BITMAP
00130000
7A4D0000
7A4D0000
7A4D0000
7A4D0000
7A4D0000
7A4D0000
7A4D0000
7A4D0000
7A4D0000
7A4FFFE0
7A4D0000
7A4D0000
7A4D0000
7A4D0000
7A4D0000
7A4D0000
7A4D0000
7A4D0000
7A4D0000
46130000
ENDCHAR
STARTCHAR uni2560
ENCODING 9568
SWIDTH 600 0
DWIDTH 8 0
BBX 7 21 2 -6
BITMAP
00120000
7A4D0000
7A4D0000
7A4D0000
7A4D0000
7A4D0000
7A4D0000
7A4D0000
7A4D0000
7A4FFFE0
7A000000
7A4FFFE0
7A4D0000
7A4D0000
7A4D0000
7A4D0000
7A4D0000
7A4D0000
7A4D0000
7A4D0000
46120000
ENDCHAR
STARTCHAR uni2561
ENCODING 9569
SWIDTH 600 0
DWIDTH 8 0
BBX 6 21 -1 -6
BITMAP
000012
00005B
00005B
00005B
00005B
00005B
00005B
00005B
00005B
8FFFFB
00005B
8FFFFB
00005B
00005B
00005B
00005B
00005B
00005B
00005B
00005B
000012
ENDCHAR
STARTCHAR uni2562
ENCODING 9570
SWIDTH 600 0
DWIDTH 8 0
BBX 7 21 -1 -6
BITMAP
00022000
0007A4D0
0007A4D0
0007A4D0
0007A4D0
0007A4D0
0007A4D0
0007A4D0
0007A4D0
0007A4D0
8FFFA4D0
0007A4D0
0007A4D0
0007A4D0
0007A4D0
0007A4D0
0007A4D0
0007A4D0
0007A4D0
0007A4D0
00022280
ENDCHAR
STARTCHAR uni2563
ENCODING 9571
SWIDTH 600 0
DWIDTH 8 0
BBX 7 21 -1 -6
BITMAP
00012000
0007A4D0
0007A4D0
0007A4D0
0007A4D0
0007A4D0
0007A4D0
0007A4D0
0007A4D0
8FFFA4D0
000004D0
8FFFA4D0
0007A4D0
0007A4D0
0007A4D0
0007A4D0
0007A4D0
0007A4D0
0007A4D0
0007A4D0
00012280
ENDCHAR
STARTCHAR uni2564
ENCODING 9572
SWIDTH 600 0
DWIDTH 8 0
BBX 10 12 -1 -6
BITMAP
8FFFFFFFFE
0000000000
8FFFFFFFFE
00005B0000
00005B0000
00005B0000
00005B0000
00005B0000
00005B0000
00005B0000
00005B0000
0000120000
ENDCHAR
STARTCHAR uni2565
ENCODING 9573
SWIDTH 600 0
DWIDTH 8 0
BBX 10 11 -1 -6
BITMAP
8FFFFFFFFE
0007A4D000
0007A4D000
0007A4D000
0007A4D000
0007A4D000
0007A4D000
0007A4D000
0007A4D000
0007A4D000
0002213000
ENDCHAR
STARTCHAR uni2566
ENCODING 9574
SWIDTH 600 0
DWIDTH 8 0
BBX 10 12 -1 -6
BITMAP
8FFFFFFFFE
0000000000
8FFFA4FFFE
0007A4D000
0007A4D000
0007A4D000
0007A4D000
0007A4D000
0007A4D000
0007A4D000
0007A4D000
0001212000
ENDCHAR
STARTCHAR uni2567
ENCODING 9575
SWIDTH 600 0
DWIDTH 8 0
BBX 10 12 -1 3
BITMAP
0000120000
00005B0000
00005B0000
00005B0000
00005B0000
00005B0000
00005B0000
00005B0000
00005B0000
8FFFFFFFFE
0000000000
8FFFFFFFFE
ENDCHAR
STARTCHAR uni2568
ENCODING 9576
SWIDTH 600 0
DWIDTH 8 0
BBX 10 11 -1 4
BITMAP
0002213000
0007A4D000
0007A4D000
0007A4D000
0007A4D000
0007A4D000
0007A4D000
0007A4D000
0007A4D000
0007A4D000
8FFFFFFFFE
ENDCHAR
STARTCHAR uni2569
ENCODING 9577
SWIDTH 600 0
DWIDTH 8 0
BBX 10 12 -1 3
BITMAP
0001212000
0007A4D000
0007A4D000
0007A4D000
0007A4D000
0007A4D000
0007A4D000
0007A4D000
0007A4D000
8FFFA4FFFE
0000000000
8FFFFFFFFE
ENDCHAR
STARTCHAR uni256A
ENCODING 9578
SWIDTH 600 0
DWIDTH 8 0
BBX 10 21 -1 -6
BITMAP
0000120000
00005B0000
00005B0000
00005B0000
00005B0000
00005B0000
00005B0000
00005B0000
00005B0000
8FFFFFFFFE
00005B0000
8FFFFFFFFE
00005B0000
00005B0000
00005B0000
00005B0000
00005B0000
00005B0000
00005B0000
00005B0000
0000120000
ENDCHAR
STARTCHAR uni256B
ENCODING 9579
SWIDTH 600 0
DWIDTH 8 0
BBX 10 21 -1 -6
BITMAP
0002213000
0007A4D000
0007A4D000
0007A4D000
0007A4D000
0007A4D000
0007A4D000
0007A4D000
0007A4D000
0007A4D000
8FFFFFFFFE
0007A4D000
0007A4D000
0007A4D000
0007A4D000
0007A4D000
0007A4D000
0007A4D000
0007A4D000
0007A4D000
0002213000
ENDCHAR
STARTCHAR uni256C
ENCODING 9580
SWIDTH 600 0
DWIDTH 8 0
BBX 10 21 -1 -6
BITMAP
0001212000
0007A4D000
0007A4D000
0007A4D000
0007A4D000
0007A4D000
0007A4D000
0007A4D000
0007A4D000
8FFFA4FFFE
0000000000
8FFFA4FFFE
0007A4D000
0007A4D000
0007A4D000
0007A4D000
0007A4D000
0007A4D000
0007A4D000
0007A4D000
0001212000
ENDCHAR
STARTCHAR uni256D
ENCODING 9581
SWIDTH 600 0
DWIDTH 8 0
BBX 6 11 3 -6
BITMAP
0029DE
03E920
0C8000
3E0000
5C0000
5B0000
5B0000
5B0000
5B0000
5B0000
130000
ENDCHAR
STARTCHAR uni256E
ENCODING 9582
SWIDTH 600 0
DWIDTH 8 0
BBX 6 11 -1 -6
BITMAP
8EB500
016E70
0003F3
000089
00005B
00005B
00005B
00005B
00005B
00005B
000013
ENDCHAR
STARTCHAR uni256F
ENCODING 9583
SWIDTH 600 0
DWIDTH 8 0
BBX 6 11 -1 4
BITMAP
000013
00005B
00005B
00005B
00005B
00005B
00005B
000089
0002E3
015E80
8EB500
ENDCHAR
STARTCHAR uni2570
ENCODING 9584
SWIDTH 600 0
DWIDTH 8 0
BBX 6 11 3 4
BITMAP
130000
5B0000
5B0000
5B0000
5B0000
5B0000
5C0000
3E0000
0C8000
03E920
0029EE
ENDCHAR
STARTCHAR uni2571
ENCODING 9585
SWIDTH 600 0
DWIDTH 8 0
BBX 9 17 0 -4
BITMAP
0000000760
0000001E40
0000007C00
000000E400
000006C000
00000D4000
00006C0000
0000D50000
0006C00000
000D500000
006C000000
00D5000000
06C0000000
0D50000000
6D00000000
D500000000
D000000000
ENDCHAR
STARTCHAR uni2572
ENCODING 9586
SWIDTH 600 0
DWIDTH 8 0
BBX 9 17 0 -4
BITMAP
D000000000
D500000000
6D00000000
0D50000000
06C0000000
00D5000000
006C000000
000D500000
0006C00000
0000D50000
00006C0000
00000D4000
000006C000
000000E400
0000007C00
0000001E40
0000000760
ENDCHAR
STARTCHAR uni2573
ENCODING 9587
SWIDTH 600 0
DWIDTH 8 0
BBX 9 17 0 -4
BITMAP
D000000760
D500001E40
6D00007C00
0D5001E400
06D007C000
00D51E4000
006D7C0000
000DF40000
0008E00000
000DF40000
006D7C0000
00D51E4000
06D007C000
0D5001E400
6D00007C00
D500001E40
D000000760
ENDCHAR
STARTCHAR uni2574
ENCODING 9588
SWIDTH 600 0
DWIDTH 8 0
BBX 6 1 -1 4
BITMAP
8FFFFB
ENDCHAR
STARTCHAR uni2575
ENCODING 9589
SWIDTH 600 0
DWIDTH 8 0
BBX 2 10 3 4
BITMAP
5B
5B
5B
5B
5B
5B
5B
5B
5B
5B
ENDCHAR
STARTCHAR uni2576
ENCODING 9590
SWIDTH 600 0
DWIDTH 8 0
BBX 6 1 3 4
BITMAP
5FFFFE
ENDCHAR
STARTCHAR uni2577
ENCODING 9591
SWIDTH 600 0
DWIDTH 8 0
BBX 2 10 3 -5
BITMAP
5B
5B
5B
5B
5B
5B
5B
5B
5B
5B
ENDCHAR
STARTCHAR uni2578
ENCODING 9592
SWIDTH 600 0
DWIDTH 8 0
BBX 6 2 -1 3
BITMAP
8FFFFB
8FFFFB
ENDCHAR
STARTCHAR uni2579
ENCODING 9593
SWIDTH 600 0
DWIDTH 8 0
BBX 3 10 3 4
BITMAP
DF40
DF40
DF40
DF40
DF40
DF40
DF40
DF40
DF40
DF40
ENDCHAR
STARTCHAR uni257A
ENCODING 9594
SWIDTH 600 0
DWIDTH 8 0
BBX 6 2 3 3
BITMAP
5FFFFE
5FFFFE
ENDCHAR
STARTCHAR uni257B
ENCODING 9595
SWIDTH 600 0
DWIDTH 8 0
BBX 3 10 3 -5
BITMAP
DF40
DF40
DF40
DF40
DF40
DF40
DF40
DF40
DF40
DF40
ENDCHAR
STARTCHAR uni257C
ENCODING 9596
SWIDTH 600 0
DWIDTH 8 0
BBX 10 3 -1 3
BITMAP
0000388888
8FFFFFFFFE
0000388888
ENDCHAR
STARTCHAR uni257D
ENCODING 9597
SWIDTH 600 0
DWIDTH 8 0
BBX 3 20 3 -6
BITMAP
5B00
5B00
5B00
5B00
5B00
5B00
5B00
5B00
5B00
AD20
DF40
DF40
DF40
DF40
DF40
DF40
DF40
DF40
DF40
DF40
ENDCHAR
STARTCHAR uni257E
ENCODING 9598
SWIDTH 600 0
DWIDTH 8 0
BBX 10 3 -1 3
BITMAP
4888860000
8FFFFFFFFE
4888860000
ENDCHAR
STARTCHAR uni257F
ENCODING 9599
SWIDTH 600 0
DWIDTH 8 0
BBX 3 20 3 -6
BITMAP
DF40
DF40
DF40
DF40
DF40
DF40
DF40
DF40
DF40
DF40
AD20
5B00
5B00
5B00
5B00
5B00
5B00
5B00
5B00
5B00
ENDCHAR
STARTCHAR uni2580
ENCODING 9600
SWIDTH 600 0
DWIDTH 8 0
BBX 9 10 0 4
BITMAP
FFFFFFFF60
FFFFFFFF60
FFFFFFFF60
FFFFFFFF60
FFFFFFFF60
FFFFFFFF60
FFFFFFFF60
FFFFFFFF60
FFFFFFFF60
FFFFFFFF60
ENDCHAR
STARTCHAR uni2581
ENCODING 9601
SWIDTH 600 0
DWIDTH 8 0
BBX 9 3 0 -6
BITMAP
FFFFFFFF60
FFFFFFFF60
FFFFFFFF60
ENDCHAR
STARTCHAR uni2582
ENCODING 9602
SWIDTH 600 0
DWIDTH 8 0
BBX 9 5 0 -6
BITMAP
FFFFFFFF60
FFFFFFFF60
FFFFFFFF60
FFFFFFFF60
FFFFFFFF60
ENDCHAR
STARTCHAR uni2583
ENCODING 9603
SWIDTH 600 0
DWIDTH 8 0
BBX 9 8 0 -6
BITMAP
FFFFFFFF60
FFFFFFFF60
FFFFFFFF60
FFFFFFFF60
FFFFFFFF60
FFFFFFFF60
FFFFFFFF60
FFFFFFFF60
ENDCHAR
STARTCHAR uni2584
ENCODING 9604
SWIDTH 600 0
DWIDTH 8 0
BBX 9 10 0 -6
BITMAP
FFFFFFFF60
FFFFFFFF60
FFFFFFFF60
FFFFFFFF60
FFFFFFFF60
FFFFFFFF60
FFFFFFFF60
FFFFFFFF60
FFFFFFFF60
FFFFFFFF60
ENDCHAR
STARTCHAR uni2585
ENCODING 9605
SWIDTH 600 0
DWIDTH 8 0
BBX 9 13 0 -6
BITMAP
FFFFFFFF60
FFFFFFFF60
FFFFFFFF60
FFFFFFFF60
FFFFFFFF60
FFFFFFFF60
FFFFFFFF60
FFFFFFFF60
FFFFFFFF60
FFFFFFFF60
FFFFFFFF60
FFFFFFFF60
FFFFFFFF60
ENDCHAR
STARTCHAR uni2586
ENCODING 9606
SWIDTH 600 0
DWIDTH 8 0
BBX 9 15 0 -6
BITMAP
FFFFFFFF60
FFFFFFFF60
FFFFFFFF60
FFFFFFFF60
FFFFFFFF60
FFFFFFFF60
FFFFFFFF60
FFFFFFFF60
FFFFFFFF60
FFFFFFFF60
FFFFFFFF60
FFFFFFFF60
FFFFFFFF60
FFFFFFFF60
FFFFFFFF60
ENDCHAR
STARTCHAR uni2587
ENCODING 9607
SWIDTH 600 0
DWIDTH 8 0
BBX 9 18 0 -6
BITMAP
FFFFFFFF60
FFFFFFFF60
FFFFFFFF60
FFFFFFFF60
FFFFFFFF60
FFFFFFFF60
FFFFFFFF60
FFFFFFFF60
FFFFFFFF60
FFFFFFFF60
FFFFFFFF60
FFFFFFFF60
FFFFFFFF60
FFFFFFFF60
FFFFFFFF60
FFFFFFFF60
FFFFFFFF60
FFFFFFFF60
ENDCHAR
STARTCHAR uni2588
ENCODING 9608
SWIDTH 600 0
DWIDTH 8 0
BBX 9 20 0 -6
BITMAP
FFFFFFFF60
FFFFFFFF60
FFFFFFFF60
FFFFFFFF60
FFFFFFFF60
FFFFFFFF60
FFFFFFFF60
FFFFFFFF60
FFFFFFFF60
FFFFFFFF60
FFFFFFFF60
FFFFFFFF60
FFFFFFFF60
FFFFFFFF60
FFFFFFFF60
FFFFFFFF60
FFFFFFFF60
FFFFFFFF60
FFFFFFFF60
FFFFFFFF60
ENDCHAR
STARTCHAR uni2589
ENCODING 9609
SWIDTH 600 0
DWIDTH 8 0
BBX 8 20 0 -6
BITMAP
FFFFFFF5
FFFFFFF5
FFFFFFF5
FFFFFFF5
FFFFFFF5
FFFFFFF5
FFFFFFF5
FFFFFFF5
FFFFFFF5
FFFFFFF5
FFFFFFF5
FFFFFFF5
FFFFFFF5
FFFFFFF5
FFFFFFF5
FFFFFFF5
FFFFFFF5
FFFFFFF5
FFFFFFF5
FFFFFFF5
ENDCHAR
STARTCHAR uni258A
ENCODING 9610
SWIDTH 600 0
DWIDTH 8 0
BBX 7 20 0 -6
BITMAP
FFFFFF40
FFFFFF40
FFFFFF40
FFFFFF40
FFFFFF40
FFFFFF40
FFFFFF40
FFFFFF40
FFFFFF40
FFFFFF40
FFFFFF40
FFFFFF40
FFFFFF40
FFFFFF40
FFFFFF40
FFFFFF40
FFFFFF40
FFFFFF40
FFFFFF40
FFFFFF40
ENDCHAR
STARTCHAR uni258B
ENCODING 9611
SWIDTH 600 0
DWIDTH 8 0
BBX 6 20 0 -6
BITMAP
FFFFF4
FFFFF4
FFFFF4
FFFFF4
FFFFF4
FFFFF4
FFFFF4
FFFFF4
FFFFF4
FFFFF4
FFFFF4
FFFFF4
FFFFF4
FFFFF4
FFFFF4
FFFFF4
FFFFF4
FFFFF4
FFFFF4
FFFFF4
ENDCHAR
STARTCHAR uni258C
ENCODING 9612
SWIDTH 600 0
DWIDTH 8 0
BBX 5 20 0 -6
BITMAP
FFFF30
FFFF30
FFFF30
FFFF30
FFFF30
FFFF30
FFFF30
FFFF30
FFFF30
FFFF30
FFFF30
FFFF30
FFFF30
FFFF30
FFFF30
FFFF30
FFFF30
FFFF30
FFFF30
FFFF30
ENDCHAR
STARTCHAR uni258D
ENCODING 9613
SWIDTH 600 0
DWIDTH 8 0
BBX 4 20 0 -6
BITMAP
FFF2
FFF2
FFF2
FFF2
FFF2
FFF2
FFF2
FFF2
FFF2
FFF2
FFF2
FFF2
FFF2
FFF2
FFF2
FFF2
FFF2
FFF2
FFF2
FFF2
ENDCHAR
STARTCHAR uni258E
ENCODING 9614
SWIDTH 600 0
DWIDTH 8 0
BBX 3 20 0 -6
BITMAP
FF10
FF10
FF10
FF10
FF10
FF10
FF10
FF10
FF10
FF10
FF10
FF10
FF10
FF10
FF10
FF10
FF10
FF10
FF10
FF10
ENDCHAR
STARTCHAR uni258F
ENCODING 9615
SWIDTH 600 0
DWIDTH 8 0
BBX 2 20 0 -6
BITMAP
F1
F1
F1
F1
F1
F1
F1
F1
F1
F1
F1
F1
F1
F1
F1
F1
F1
F1
F1
F1
ENDCHAR
STARTCHAR uni2590
ENCODING 9616
SWIDTH 600 0
DWIDTH 8 0
BBX 5 20 4 -6
BITMAP
CFFF60
CFFF60
CFFF60
CFFF60
CFFF60
CFFF60
CFFF60
CFFF60
CFFF60
CFFF60
CFFF60
CFFF60
CFFF60
CFFF60
CFFF60
CFFF60
CFFF60
CFFF60
CFFF60
CFFF60
ENDCHAR
STARTCHAR uni2591
ENCODING 9617
SWIDTH 600 0
DWIDTH 8 0
BBX 9 19 -1 -6
BITMAP
00A0380550
2204104000
0031121110
0080260440
2204105000
0050140330
0050140330
2204105000
0080260440
0031121110
2204104000
00A0380550
1102002000
1102002000
00A0380550
2204104000
0031121110
0080260440
2204105000
ENDCHAR
STARTCHAR uni2592
ENCODING 9618
SWIDTH 600 0
DWIDTH 8 0
BBX 9 19 -1 -6
BITMAP
03D16C0990
4566458430
1272363440
03D16B0880
550830A000
02A1480660
02A1480660
550830A000
03D16B0880
1272363440
4416218100
04F17D0AA0
3344235220
3344235220
04F17D0AA0
4416218100
1272363440
03D16B0880
550830B000
ENDCHAR
STARTCHAR uni2593
ENCODING 9619
SWIDTH 600 0
DWIDTH 8 0
BBX 10 20 -1 -6
BITMAP
07E4AE2CC0
09F6CF4EE1
893B73D520
4AD9BD9CB0
0AF7DF5FF1
AB5D95F730
2AF8CF7EE1
2AF8CF7EE1
AB5D95F730
0AF7DF5FF1
4AD9BD9CB0
8A7C97D850
0AF7DF5FF1
6AAAAABA80
6AABAABA80
0AF7DF5FF1
8A7C97D850
4AD9BD9CB0
4DFCFFBFF1
994C84D630
ENDCHAR
STARTCHAR uni2594
ENCODING 9620
SWIDTH 600 0
DWIDTH 8 0
BBX 9 2 0 12
BITMAP
FFFFFFFF60
FFFFFFFF60
ENDCHAR
STARTCHAR uni2595
ENCODING 9621
SWIDTH 600 0
DWIDTH 8 0
BBX 2 20 7 -6
BITMAP
A6
A6
A6
A6
A6
A6
A6
A6
A6
A6
A6
A6
A6
A6
A6
A6
A6
A6
A6
A6
ENDCHAR
STARTCHAR uni2596
ENCODING 9622
SWIDTH 600 0
DWIDTH 8 0
BBX 5 10 0 -6
BITMAP
FFFF30
FFFF30
FFFF30
FFFF30
FFFF30
FFFF30
FFFF30
FFFF30
FFFF30
FFFF30
ENDCHAR
STARTCHAR uni2597
ENCODING 9623
SWIDTH 600 0
DWIDTH 8 0
BBX 5 10 4 -6
BITMAP
CFFF60
CFFF60
CFFF60
CFFF60
CFFF60
CFFF60
CFFF60
CFFF60
CFFF60
CFFF60
ENDCHAR
STARTCHAR uni2598
ENCODING 9624
SWIDTH 600 0
DWIDTH 8 0
BBX 5 10 0 4
BITMAP
FFFF30
FFFF30
FFFF30
FFFF30
FFFF30
FFFF30
FFFF30
FFFF30
FFFF30
FFFF30
ENDCHAR
STARTCHAR uni2599
ENCODING 9625
SWIDTH 600 0
DWIDTH 8 0
BBX 9 20 0 -6
BITMAP
FFFF300000
FFFF300000
FFFF300000
FFFF300000
FFFF300000
FFFF300000
FFFF300000
FFFF300000
FFFF300000
FFFF300000
FFFFFFFF60
FFFFFFFF60
FFFFFFFF60
FFFFFFFF60
FFFFFFFF60
FFFFFFFF60
FFFFFFFF60
FFFFFFFF60
FFFFFFFF60
FFFFFFFF60
ENDCHAR
STARTCHAR uni259A
ENCODING 9626
SWIDTH 600 0
DWIDTH 8 0
BBX 9 20 0 -6
BITMAP
FFFF300000
FFFF300000
FFFF300000
FFFF300000
FFFF300000
FFFF300000
FFFF300000
FFFF300000
FFFF300000
FFFF300000
0000CFFF60
0000CFFF60
0000CFFF60
0000CFFF60
0000CFFF60
0000CFFF60
0000CFFF60
0000CFFF60
0000CFFF60
0000CFFF60
ENDCHAR
STARTCHAR uni259B
ENCODING 9627
SWIDTH 600 0
DWIDTH 8 0
BBX 9 20 0 -6
BITMAP
FFFFFFFF60
FFFFFFFF60
FFFFFFFF60
FFFFFFFF60
FFFFFFFF60
FFFFFFFF60
FFFFFFFF60
FFFFFFFF60
FFFFFFFF60
FFFFFFFF60
FFFF300000
FFFF300000
FFFF300000
FFFF300000
FFFF300000
FFFF300000
FFFF300000
FFFF300000
FFFF300000
FFFF300000
ENDCHAR
STARTCHAR uni259C
ENCODING 9628
SWIDTH 600 0
DWIDTH 8 0
BBX 9 20 0 -6
BITMAP
FFFFFFFF60
FFFFFFFF60
FFFFFFFF60
FFFFFFFF60
FFFFFFFF60
FFFFFFFF60
FFFFFFFF60
FFFFFFFF60
FFFFFFFF60
FFFFFFFF60
0000CFFF60
0000CFFF60
0000CFFF60
0000CFFF60
0000CFFF60
0000CFFF60
0000CFFF60
0000CFFF60
0000CFFF60
0000CFFF60
ENDCHAR
STARTCHAR uni259D
ENCODING 9629
SWIDTH 600 0
DWIDTH 8 0
BBX 5 10 4 4
BITMAP
CFFF60
CFFF60
CFFF60
CFFF60
CFFF60
CFFF60
CFFF60
CFFF60
CFFF60
CFFF60
ENDCHAR
STARTCHAR uni259E
ENCODING 9630
SWIDTH 600 0
DWIDTH 8 0
BBX 9 20 0 -6
BITMAP
0000CFFF60
0000CFFF60
0000CFFF60
0000CFFF60
0000CFFF60
0000CFFF60
0000CFFF60
0000CFFF60
0000CFFF60
0000CFFF60
FFFF300000
FFFF300000
FFFF300000
FFFF300000
FFFF300000
FFFF300000
FFFF300000
FFFF300000
FFFF300000
FFFF300000
ENDCHAR
STARTCHAR uni259F
ENCODING 9631
SWIDTH 600 0
DWIDTH 8 0
BBX 9 20 0 -6
BITMAP
0000CFFF60
0000CFFF60
0000CFFF60
0000CFFF60
0000CFFF60
0000CFFF60
0000CFFF60
0000CFFF60
0000CFFF60
0000CFFF60
FFFFFFFF60
FFFFFFFF60
FFFFFFFF60
FFFFFFFF60
FFFFFFFF60
FFFFFFFF60
FFFFFFFF60
FFFFFFFF60
FFFFFFFF60
FFFFFFFF60
ENDCHAR
STARTCHAR uni25A0
ENCODING 9632
SWIDTH 600 0
DWIDTH 8 0
BBX 7 6 1 2
BITMAP
BFFFFF20
BFFFFF20
BFFFFF20
BFFFFF20
BFFFFF20
BFFFFF20
ENDCHAR
STARTCHAR uni25A1
ENCODING 9633
SWIDTH 600 0
DWIDTH 8 0
BBX 7 7 1 1
BITMAP
FFFFFF50
B0000550
B0000550
B0000550
B0000550
B0000550
FFFFFF50
ENDCHAR
STARTCHAR uni25AA
ENCODING 9642
SWIDTH 600 0
DWIDTH 8 0
BBX 5 4 2 2
BITMAP
AFFF10
AFFF10
AFFF10
AFFF10
ENDCHAR
STARTCHAR uni25AB
ENCODING 9643
SWIDTH 600 0
DWIDTH 8 0
BBX 5 5 2 1
BITMAP
DFFF40
A00640
A00640
A00640
DFFF40
ENDCHAR
STARTCHAR filledrect
ENCODING 9644
SWIDTH 600 0
DWIDTH 8 0
BBX 9 1 0 3
BITMAP
FFFFFFFF60
ENDCHAR
STARTCHAR triagup
ENCODING 9650
SWIDTH 600 0
DWIDTH 8 0
BBX 7 7 1 1
BITMAP
00160000
008E0000
01EF6000
07FFD000
1EFFF500
7FFFFC00
DFFFFF50
ENDCHAR
STARTCHAR uni25B3
ENCODING 9651
SWIDTH 600 0
DWIDTH 8 0
BBX 7 7 1 1
BITMAP
00160000
00780000
01726000
06107000
17003500
62000800
DFFFFF50
ENDCHAR
STARTCHAR uni25B4
ENCODING 9652
SWIDTH 600 0
DWIDTH 8 0
BBX 5 4 2 2
BITMAP
027000
0AE100
3FF900
CFFF30
ENDCHAR
STARTCHAR uni25B5
ENCODING 9653
SWIDTH 600 0
DWIDTH 8 0
BBX 6 5 1 1
BITMAP
000300
005700
016250
061060
2EFFF7
ENDCHAR
STARTCHAR uni25B6
ENCODING 9654
SWIDTH 600 0
DWIDTH 8 0
BBX 8 7 0 1
BITMAP
2B400000
2FFB4000
2FFFFC50
2FFFFFE5
2FFFD710
2FD60000
15000000
ENDCHAR
STARTCHAR uni25B7
ENCODING 9655
SWIDTH 600 0
DWIDTH 8 0
BBX 8 7 0 1
BITMAP
2A400000
28584000
28004850
280016D5
2817C710
2DC60000
15000000
ENDCHAR
STARTCHAR uni25B8
ENCODING 9656
SWIDTH 600 0
DWIDTH 8 0
BBX 5 5 2 1
BITMAP
850000
AFB200
AFFE20
AFB200
850000
ENDCHAR
STARTCHAR uni25B9
ENCODING 9657
SWIDTH 600 0
DWIDTH 8 0
BBX 5 5 2 1
BITMAP
A40000
969300
901C50
969300
A40000
ENDCHAR
STARTCHAR triagrt
ENCODING 9658
SWIDTH 600 0
DWIDTH 8 0
BBX 9 7 0 1
BITMAP
9820000000
AFFB610000
AFFFFE9300
AFFFFFFD40
AFFFE93000
AFC6100000
5300000000
ENDCHAR
STARTCHAR triagdn
ENCODING 9660
SWIDTH 600 0
DWIDTH 8 0
BBX 7 7 1 1
BITMAP
DFFFFF40
6FFFFC00
0EFFF500
07FFD000
01EF6000
007D0000
00150000
ENDCHAR
STARTCHAR uni25BD
ENCODING 9661
SWIDTH 600 0
DWIDTH 8 0
BBX 7 7 1 1
BITMAP
DFFFFF40
62000800
07003500
06107000
01625000
00670000
00150000
ENDCHAR
STARTCHAR uni25BE
ENCODING 9662
SWIDTH 600 0
DWIDTH 8 0
BBX 5 4 2 1
BITMAP
CFFF30
3FF900
0AE100
027000
ENDCHAR
STARTCHAR uni25BF
ENCODING 9663
SWIDTH 600 0
DWIDTH 8 0
BBX 6 5 1 1
BITMAP
2EFFF7
060061
016250
005700
000300
ENDCHAR
STARTCHAR uni25C0
ENCODING 9664
SWIDTH 600 0
DWIDTH 8 0
BBX 8 7 0 1
BITMAP
00000187
00029EF8
029FFFF8
1CFFFFF8
004BFFF8
00003AF8
00000034
ENDCHAR
STARTCHAR uni25C1
ENCODING 9665
SWIDTH 600 0
DWIDTH 8 0
BBX 8 7 0 1
BITMAP
00000177
00027728
02761018
1C920018
004BA318
00003AC8
00000034
ENDCHAR
STARTCHAR uni25C2
ENCODING 9666
SWIDTH 600 0
DWIDTH 8 0
BBX 5 5 2 1
BITMAP
002A10
07EF10
AFFF10
07EF10
002A10
ENDCHAR
STARTCHAR uni25C3
ENCODING 9667
SWIDTH 600 0
DWIDTH 8 0
BBX 6 5 1 1
BITMAP
000293
017873
1C4053
018873
000293
ENDCHAR
STARTCHAR triaglf
ENCODING 9668
SWIDTH 600 0
DWIDTH 8 0
BBX 10 7 -1 1
BITMAP
00000016C1
000039EFF1
016CFFFFF1
1AFFFFFFF1
0017DFFFF1
000004AFF1
0000000161
ENDCHAR
STARTCHAR uni25C6
ENCODING 9670
SWIDTH 600 0
DWIDTH 8 0
BBX 8 7 0 1
BITMAP
0005A000
006FFB10
07FFFFC1
4FFFFFFA
07FFFFC1
006FFB10
0005A000
ENDCHAR
STARTCHAR uni25C9
ENCODING 9673
SWIDTH 600 0
DWIDTH 8 0
BBX 8 7 0 1
BITMAP
008DEB20
09BEFBC1
2AAFFF68
47AFFF2A
2A3EF848
0A8215C2
018DEB30
ENDCHAR
STARTCHAR lozenge
ENCODING 9674
SWIDTH 600 0
DWIDTH 8 0
BBX 6 9 1 0
BITMAP
008E10
02D870
0961D1
2C0078
77001D
2C0078
0961D1
02D870
008E10
ENDCHAR
STARTCHAR uni25CB
ENCODING 9675
SWIDTH 600 0
DWIDTH 8 0
BBX 8 7 0 1
BITMAP
007EFA20
07A216C0
0C000085
1B000047
0C000075
07A216C0
007EFA20
ENDCHAR
STARTCHAR uni25CC
ENCODING 9676
SWIDTH 600 0
DWIDTH 8 0
BBX 8 7 0 0
BITMAP
00B56B00
0B0000A0
00000000
56000065
00000000
0B0000A0
00B56B00
ENDCHAR
STARTCHAR uni25CF
ENCODING 9679
SWIDTH 600 0
DWIDTH 8 0
BBX 7 6 1 2
BITMAP
07DEA200
7FFFFD00
DFFFFF40
DFFFFF40
7FFFFD00
07DEB200
ENDCHAR
STARTCHAR invbullet
ENCODING 9688
SWIDTH 600 0
DWIDTH 8 0
BBX 5 5 2 1
BITMAP
DFFF40
921740
300030
921740
DFFF40
ENDCHAR
STARTCHAR invcircle
ENCODING 9689
SWIDTH 600 0
DWIDTH 8 0
BBX 7 6 1 2
BITMAP
F8215D60
75EFA260
3EFFF620
4FFFF820
8DFFF760
FADDBD60
ENDCHAR
STARTCHAR uni25E6
ENCODING 9702
SWIDTH 600 0
DWIDTH 8 0
BBX 6 5 1 1
BITMAP
02BE90
0B41A3
1A0074
1C13C1
07EC30
ENDCHAR
STARTCHAR uni2610
ENCODING 9744
SWIDTH 600 0
DWIDTH 8 0
BBX 10 9 -1 0
BITMAP
2EFFFFFFFB
540000004B
540000004B
540000004B
540000004B
540000004B
540000004B
540000004B
5FFFFFFFF7
ENDCHAR
STARTCHAR uni2611
ENCODING 9745
SWIDTH 600 0
DWIDTH 8 0
BBX 11 11 -1 0
BITMAP
000000000490
000000001C20
2EFFFFFFFB00
54000006DB00
5400002D5B00
543900C44B00
540B45A04B00
5403BB304B00
5400AB004B00
540000004B00
5FFFFFFFF700
ENDCHAR
STARTCHAR uni2615
ENCODING 9749
SWIDTH 600 0
DWIDTH 8 0
BBX 11 9 -1 0
BITMAP
02ADFD810000
1D6201590000
668DFD652000
69D16CB60400
559EFE956910
370000047D00
0B00002EC300
05B203C30000
006DFC400000
ENDCHAR
STARTCHAR smileface
ENCODING 9786
SWIDTH 600 0
DWIDTH 8 0
BBX 9 9 0 0
BITMAP
019EFB4000
0C7104D400
666D3F2B00
B000000920
B000000740
B0A3184920
764DE82B00
0C7214C400
019EFC3000
ENDCHAR
STARTCHAR invsmileface
ENCODING 9787
SWIDTH 600 0
DWIDTH 8 0
BBX 8 7 0 1
BITMAP
019EFC40
1D97D4F4
6FB6B5FC
8F97D4FE
6F5DE8BC
1DB216F4
019DEC40
ENDCHAR
STARTCHAR sun
ENCODING 9788
SWIDTH 600 0
DWIDTH 8 0
BBX 10 9 -1 0
BITMAP
0010390010
01D4CC3A60
004E31AA00
0067001C00
1FF4000EF7
0057001C00
004D31A800
01C25F9D20
0000390350
ENDCHAR
STARTCHAR female
ENCODING 9792
SWIDTH 600 0
DWIDTH 8 0
BBX 8 11 0 -1
BITMAP
007EFA20
07B216D0
0D100095
1C000067
0D100095
08A216D1
008EFB20
0004A000
03FFFF90
0004A000
00038000
ENDCHAR
STARTCHAR male
ENCODING 9794
SWIDTH 600 0
DWIDTH 8 0
BBX 10 10 -1 0
BITMAP
0000026674
00000156E8
0000002C78
007EEAD538
08A216D024
0D10009500
2C00006700
0D10009600
08A216D000
007EEA2000
ENDCHAR
STARTCHAR spade
ENCODING 9824
SWIDTH 600 0
DWIDTH 8 0
BBX 9 10 0 0
BITMAP
0005A00000
006FFB0000
05FFFFA000
2EFFFFF800
AFFFFFFF10
DFFFFFFF40
AFFCDFFE10
1558D36200
015EFA2000
08FFFFE000
ENDCHAR
STARTCHAR club
ENCODING 9827
SWIDTH 600 0
DWIDTH 8 0
BBX 9 10 0 0
BITMAP
004DE80000
00CFFF3000
00BFFF2000
047FFB5100
8FFFFFFD10
DFFFFFFF40
9FFDDFFE10
0558D36200
015EF92000
08FFFFE000
ENDCHAR
STARTCHAR heart
ENCODING 9829
SWIDTH 600 0
DWIDTH 8 0
BBX 9 10 0 0
BITMAP
2CE62CE600
AFFFCFFF10
DFFFFFFF40
CFFFFFFF30
9FFFFFFF10
4FFFFFF900
0AFFFFE200
01EFFF5000
003EF80000
0005A00000
ENDCHAR
STARTCHAR diamond
ENCODING 9830
SWIDTH 600 0
DWIDTH 8 0
BBX 9 10 0 0
BITMAP
0004900000
002EF70000
01DFFF4000
0BFFFFE200
8FFFFFFD10
8FFFFFFD10
0BFFFFE200
01DFFF4000
002EF70000
0004900000
ENDCHAR
STARTCHAR musicalnote
ENCODING 9834
SWIDTH 600 0
DWIDTH 8 0
BBX 7 10 1 0
BITMAP
000C3000
000DE400
000C5E10
000C0840
000C0640
000C0620
000C0000
3CED0000
CFFB0000
8EC20000
ENDCHAR
STARTCHAR musicalnotedbl
ENCODING 9835
SWIDTH 600 0
DWIDTH 8 0
BBX 9 11 0 0
BITMAP
000257AC40
000FFFFF40
000FFFFF40
000D863840
000B000740
000B000740
000B000740
000B000740
4DEC0AEE20
DFFA5FFC00
9FC23ED300
ENDCHAR
STARTCHAR uni2713
ENCODING 10003
SWIDTH 600 0
DWIDTH 8 0
BBX 9 11 0 -1
BITMAP
0000000830
0000007B00
000003C100
00000C3000
0000770000
7001C10000
A607600000
1C0C000000
0889000000
03F5000000
0010000000
ENDCHAR
STARTCHAR uni2752
ENCODING 10066
SWIDTH 600 0
DWIDTH 8 0
BBX 7 7 1 1
BITMAP
AFFFFF50
90000950
90000950
90000950
90000950
90000950
FFFFFE20
ENDCHAR
STARTCHAR uni2764
ENCODING 10084
SWIDTH 600 0
DWIDTH 8 0
BBX 11 9 -1 0
BITMAP
2AED52BED500
BFFFFAFFFF20
EFFFFFFFFF50
EFFFFFFFFF50
AFFFFFFFFE10
1DFFFFFFF500
01AFFFFD4000
0005EF910000
000049000000
ENDCHAR
STARTCHAR uni27E6
ENCODING 10214
SWIDTH 600 0
DWIDTH 8 0
BBX 7 12 1 -2
BITMAP
007CFFE0
00A66000
00B83000
01AA0000
047A0000
07680000
0A650000
0B820000
1A900000
47900000
76700000
ABFFA000
ENDCHAR
STARTCHAR uni27E7
ENCODING 10215
SWIDTH 600 0
DWIDTH 8 0
BBX 7 12 0 -2
BITMAP
007FFDD0
000046A0
00007670
0000A740
0000A910
00029B00
00056A00
00086700
000B7400
000B9100
0038B000
BFFBA000
ENDCHAR
STARTCHAR uni2E18
ENCODING 11800
SWIDTH 600 0
DWIDTH 8 0
BBX 5 10 1 -3
BITMAP
000AC0
000CA0
000000
001D00
009C00
09DA00
7C5800
C47600
B813B0
3CFC30
ENDCHAR
STARTCHAR uni2E22
ENCODING 11810
SWIDTH 600 0
DWIDTH 8 0
BBX 5 7 3 3
BITMAP
0DFFE0
1C0000
490000
760000
A30000
C00000
500000
ENDCHAR
STARTCHAR uni2E23
ENCODING 11811
SWIDTH 600 0
DWIDTH 8 0
BBX 5 7 2 3
BITMAP
7FFF50
000A20
000C00
001B00
004900
007600
003100
ENDCHAR
STARTCHAR uni2E24
ENCODING 11812
SWIDTH 600 0
DWIDTH 8 0
BBX 5 7 1 -2
BITMAP
005000
03A000
067000
084000
0B1000
0C0000
2FFFA0
ENDCHAR
STARTCHAR uni2E25
ENCODING 11813
SWIDTH 600 0
DWIDTH 8 0
BBX 6 7 0 -2
BITMAP
000041
0000C1
0000D0
0003A0
000670
000940
BFFF20
ENDCHAR
STARTCHAR uniE0A0
ENCODING 57504
SWIDTH 600 0
DWIDTH 8 0
BBX 8 19 1 -4
BITMAP
97000000
97000000
97001900
9700BF70
9706DFD3
97002E00
97002E00
97002E00
97003D00
96007B00
1004E500
008E6000
0BC20000
5E100000
89000000
97000000
97000000
97000000
97000000
ENDCHAR
STARTCHAR uniE0A1
ENCODING 57505
SWIDTH 600 0
DWIDTH 8 0
BBX 7 15 1 -2
BITMAP
C3000000
C3000000
C3000000
C3000000
C3000000
C3000000
CFFF5000
00000000
00000000
04F20C30
04C90C30
049A2B30
04B3AA30
04B0AB30
04B02F30
ENDCHAR
STARTCHAR uniE0A2
ENCODING 57506
SWIDTH 600 0
DWIDTH 8 0
BBX 8 13 0 -1
BITMAP
004DE900
00D41C50
02C00670
02C00580
02C00580
3FFFFFF9
5FFFFFFB
5FF41CFB
5FF42DFB
5FFB4FFB
5FF83FFB
5FFFFFFB
3FFFFFF9
ENDCHAR
STARTCHAR uniE0B0
ENCODING 57520
SWIDTH 600 0
DWIDTH 8 0
BBX 9 18 0 -4
BITMAP
7000000000
F600000000
FF50000000
FFF4000000
FFFE400000
FFFFE30000
FFFFFE2000
FFFFFFD200
FFFFFFFD10
FFFFFFFD10
FFFFFFD200
FFFFFE2000
FFFFE30000
FFFE400000
FFF4000000
FF50000000
F600000000
7000000000
ENDCHAR
STARTCHAR uniE0B1
ENCODING 57521
SWIDTH 600 0
DWIDTH 8 0
BBX 9 17 0 -3
BITMAP
B200000000
4D20000000
05C1000000
006C100000
0006B10000
00007B0000
000008A000
0000009900
0000000D50
0000009900
000008A000
00007B0000
0006B10000
006C100000
05C1000000
4D20000000
B200000000
ENDCHAR
STARTCHAR uniE0B2
ENCODING 57522
SWIDTH 600 0
DWIDTH 8 0
BBX 9 18 0 -4
BITMAP
0000000160
0000001C90
000001BF90
00000BFF90
0000AFFF90
000AFFFF90
009FFFFF90
09FFFFFF90
8FFFFFFF90
8FFFFFFF90
09FFFFFF90
009FFFFF90
000AFFFF90
0000AFFF90
00000BFF90
000001BF90
0000001C90
0000000160
ENDCHAR
STARTCHAR uniE0B3
ENCODING 57523
SWIDTH 600 0
DWIDTH 8 0
BBX 9 17 0 -3
BITMAP
0000000940
0000008A00
000008B000
00007B0000
0006C10000
005C100000
04C1000000
4D20000000
D400000000
4D20000000
04C1000000
005C100000
0006C10000
00007B0000
000008B000
0000009A00
0000000940
ENDCHAR
STARTCHAR f_i
ENCODING 64257
SWIDTH 600 0
DWIDTH 8 0
BBX 8 10 1 0
BITMAP
009EB5E1
04D116D1
08800000
9FFC0C40
0E100F10
3D003D00
5B006A00
88009700
B500C400
E200F100
ENDCHAR
STARTCHAR f_l
ENCODING 64258
SWIDTH 600 0
DWIDTH 8 0
BBX 7 10 1 0
BITMAP
009EB5C0
04D11890
08800B50
9FFC0E20
0E102E00
3D005B00
5B008800
8800B500
B500E300
E200C900
ENDCHAR
STARTCHAR uniFE0E
ENCODING 65038
SWIDTH 600 0
DWIDTH 8 0
BBX 8 9 0 0
BITMAP
68A7A899
C000000C
60000006
68A00699
00B10C00
00600600
00B10C00
00600600
0067A800
ENDCHAR
STARTCHAR uniFE0F
ENCODING 65039
SWIDTH 600 0
DWIDTH 8 0
BBX 9 9 0 0
BITMAP
0067990000
0510006000
0600001500
C1EFCF2C10
C175076A20
0060060000
5700601B00
0580066000
0007930000
ENDCHAR
STARTCHAR uniFEFF
ENCODING 65279
SWIDTH 600 0
DWIDTH 8 0
BBX 1 1 0 0
BITMAP
00
ENDCHAR
STARTCHAR u1F3B5
ENCODING 127925
SWIDTH 600 0
DWIDTH 8 0
BBX 7 11 1 0
BITMAP
00040000
000D8000
000CDA00
000C1C30
000C0650
000C0630
000C0100
000C0000
3CED0000
CFFA0000
8EB20000
ENDCHAR
STARTCHAR u1F3B6
ENCODING 127926
SWIDTH 600 0
DWIDTH 8 0
BBX 9 11 0 0
BITMAP
000257AC40
000FFFFF40
000FFFFF40
000D863840
000B000740
000B000740
000B000740
000B000740
4DEC0AEE20
DFFA5FFC00
9FC23ED300
ENDCHAR
STARTCHAR u1F4A9
ENCODING 128169
SWIDTH 600 0
DWIDTH 8 0
BBX 9 10 0 0
BITMAP
0000410000
008EFE2000
00EFFF6000
0AFFFFD200
3F66C1E900
3F778AB900
4EFFFFF900
EF5000EF50
EFC217FF50
4BEFFED800
ENDCHAR
STARTCHAR u1F512
ENCODING 128274
SWIDTH 600 0
DWIDTH 8 0
BBX 8 13 0 -1
BITMAP
004DE900
00D41C50
02C00670
02C00580
02C00580
3FFFFFF9
5FFFFFFB
5FF41CFB
5FF42DFB
5FFB4FFB
5FF83FFB
5FFFFFFB
3FFFFFF9
ENDCHAR
STARTCHAR u1F916
ENCODING 129302
SWIDTH 600 0
DWIDTH 8 0
BBX 10 9 -1 0
BITMAP
002AEEC600
02C5113B70
084AEFC4B0
3E699AA989
5D3CEFE87B
3F00000099
07603901B1
00C7214C40
0019EEB400
ENDCHAR
STARTCHAR .notdef
ENCODING -1
SWIDTH 600 0
DWIDTH 8 0
BBX 8 9 0 0
BITMAP
1FFFFFF7
1DB006C7
1C761C67
1C0CA467
1C08E067
1C1C7767
1C940C77
1E9004E7
1FFFFFF7
ENDCHAR
STARTCHAR uni00470303
ENCODING -1
SWIDTH 600 0
DWIDTH 8 0
BBX 9 13 0 0
BITMAP
0000110000
0003DD3940
000934EA00
0000000000
0006CFC300
009D404A00
05D1000000
0C60000000
1F206FF800
2F0000A500
0F3000D200
09C215E000
019DFB3000
ENDCHAR
STARTCHAR uni004C00B7004C
ENCODING -1
SWIDTH 600 0
DWIDTH 8 0
BBX 8 9 0 0
BITMAP
05B000F1
088003C0
0B500690
0E4D7960
2D4E6C30
5A001E00
87004C00
B4007900
EFF6AFFA
ENDCHAR
STARTCHAR uni01320301
ENCODING -1
SWIDTH 600 0
DWIDTH 8 0
BBX 10 14 0 -2
BITMAP
0003C10195
004A201B50
0000000000
00A6004C00
00D3007900
01F100B600
04C000E300
079002F000
0A6005C000
0D30089000
1F000B5000
4C000E2000
00015D0000
000CE40000
ENDCHAR
STARTCHAR uni00670303
ENCODING -1
SWIDTH 600 0
DWIDTH 8 0
BBX 8 14 0 -3
BITMAP
00002001
0008B92C
000B08E4
00000000
004CFC6A
04E514E7
0C5000C4
2F0000E1
3E0003D0
1E726DA0
04CD8970
00000C30
55118C00
3CFE9100
ENDCHAR
STARTCHAR uni006C00B7006C
ENCODING -1
SWIDTH 600 0
DWIDTH 8 0
BBX 8 10 0 0
BITMAP
EFE0AFF3
04A000E0
077003C0
0B400690
0E4D7950
2D4E6D20
59001E00
86004B00
98115C12
3DE51BE9
ENDCHAR
STARTCHAR uni01330301
ENCODING -1
SWIDTH 600 0
DWIDTH 8 0
BBX 8 14 1 -3
BITMAP
002B1058
02D705D3
08501B20
00000000
0C402E00
0F105B00
3D008800
6A00B500
9700E200
C402E000
F106B000
00098000
011D4000
06E90000
ENDCHAR
STARTCHAR uni014A.a
ENCODING -1
SWIDTH 600 0
DWIDTH 8 0
BBX 9 11 0 -2
BITMAP
00E7000E10
02DC002D00
059D206A00
0878609700
0B43B0C300
0E10D1E100
2D0087C000
5A003D9000
87000D6000
00012D2000
0008E70000
ENDCHAR
STARTCHAR a.a
ENCODING -1
SWIDTH 600 0
DWIDTH 8 0
BBX 8 7 0 0
BITMAP
005BEE80
02A303F2
000000D3
017ADEF0
1D8425C0
4D117D90
1BFD6760
ENDCHAR
STARTCHAR agrave.a
ENCODING -1
SWIDTH 600 0
DWIDTH 8 0
BBX 8 11 0 0
BITMAP
0002B100
0000A800
00001B10
00000000
005BEE80
02A303F2
000000D3
017ADEF0
1D8425C0
4D117D90
1BFD6760
ENDCHAR
STARTCHAR aacute.a
ENCODING -1
SWIDTH 600 0
DWIDTH 8 0
BBX 8 11 0 0
BITMAP
000002B0
00002D70
00008500
00000000
005BEE80
02A303F2
000000D3
017ADEF0
1D8425C0
4D117D90
1BFD6760
ENDCHAR
STARTCHAR acircumflex.a
ENCODING -1
SWIDTH 600 0
DWIDTH 8 0
BBX 8 10 0 0
BITMAP
0001BD50
000A31A1
00000000
005BEE80
02A303F2
000000D3
017ADEF0
1D8425C0
4D117D90
1BFD6760
ENDCHAR
STARTCHAR atilde.a
ENCODING -1
SWIDTH 600 0
DWIDTH 8 0
BBX 8 11 0 0
BITMAP
00002001
000AC74A
00290AD3
00000000
005BEE80
02A303F2
000000D3
017ADEF0
1D8425C0
4D117D90
1BFD6760
ENDCHAR
STARTCHAR adieresis.a
ENCODING -1
SWIDTH 600 0
DWIDTH 8 0
BBX 8 9 0 0
BITMAP
000961D1
00000000
005BEE80
02A303F2
000000D3
017ADEF0
1D8425C0
4D117D90
1BFD6760
ENDCHAR
STARTCHAR amacron.a
ENCODING -1
SWIDTH 600 0
DWIDTH 8 0
BBX 8 9 0 0
BITMAP
000AFFE0
00000000
005BEE80
02A303F2
000000D3
017ADEF0
1D8425C0
4D117D90
1BFD6760
ENDCHAR
STARTCHAR abreve.a
ENCODING -1
SWIDTH 600 0
DWIDTH 8 0
BBX 8 11 0 0
BITMAP
00010000
000B3196
0004EE80
00000000
005BEE80
02A303F2
000000D3
017ADEF0
1D8425C0
4D117D90
1BFD6760
ENDCHAR
STARTCHAR aring.a
ENCODING -1
SWIDTH 600 0
DWIDTH 8 0
BBX 8 12 0 0
BITMAP
00008E50
0002B3A0
00039490
0000CD20
00000000
005BEE80
02A303F2
000000D3
017ADEF0
1D8425C0
4D117D90
1BFD6760
ENDCHAR
STARTCHAR aringacute.a
ENCODING -1
SWIDTH 600 0
DWIDTH 8 0
BBX 8 13 0 0
BITMAP
00000020
00000870
0000BF60
0003A4A0
0001DD30
00000000
005BEE80
02A303F2
000000D3
017ADEF0
1D8423C0
4D115B90
1BFD6760
ENDCHAR
STARTCHAR uni01CE.a
ENCODING -1
SWIDTH 600 0
DWIDTH 8 0
BBX 8 10 0 0
BITMAP
00074184
0001CC40
00000000
005BEE80
02A303F2
000000D3
017ADEF0
1D8425C0
4D117D90
1BFD6760
ENDCHAR
STARTCHAR uni1EA1.a
ENCODING -1
SWIDTH 600 0
DWIDTH 8 0
BBX 8 11 0 -4
BITMAP
005BEE80
02A303F2
000000D3
017ADEF0
1D8425C0
4D117D90
1BFD6760
00000000
00000000
006D1000
007D0000
ENDCHAR
STARTCHAR uni1EA3.a
ENCODING -1
SWIDTH 600 0
DWIDTH 8 0
BBX 8 11 0 0
BITMAP
00007C20
00001C50
00006900
00000000
005BEE80
02A303F2
000000D3
017ADEF0
1D8425C0
4D117D90
1BFD6760
ENDCHAR
STARTCHAR uni1EA5.a
ENCODING -1
SWIDTH 600 0
DWIDTH 8 0
BBX 9 11 0 0
BITMAP
0000000750
0001AE6800
0008529000
0000000000
005BEE8000
02A303F200
000000D300
017ADEF000
1D8425C000
4D117D9000
1BFD676000
ENDCHAR
STARTCHAR uni1EA7.a
ENCODING -1
SWIDTH 600 0
DWIDTH 8 0
BBX 8 11 0 0
BITMAP
00A10000
0038AE30
00085290
00000000
005BEE80
02A303F2
000000D3
017ADEF0
1D8425C0
4D117D90
1BFD6760
ENDCHAR
STARTCHAR uni1EA9.a
ENCODING -1
SWIDTH 600 0
DWIDTH 8 0
BBX 9 12 0 0
BITMAP
0000005C10
0000000B30
0001AE6A00
0008529000
0000000000
005BEE8000
02A303F200
000000D300
017ADEF000
1D8425C000
4D117D9000
1BFD676000
ENDCHAR
STARTCHAR uni1EAB.a
ENCODING -1
SWIDTH 600 0
DWIDTH 8 0
BBX 8 12 0 0
BITMAP
0001B845
00065AD1
0000AE30
000762A0
00000000
005BEE80
02A303F2
000000D3
017ADEF0
1D8425C0
4D117D90
1BFD6760
ENDCHAR
STARTCHAR uni1EAD.a
ENCODING -1
SWIDTH 600 0
DWIDTH 8 0
BBX 8 14 0 -4
BITMAP
0001BD50
000A31A1
00000000
005BEE80
02A303F2
000000D3
017ADEF0
1D8425C0
4D117D90
1BFD6760
00000000
00000000
006D1000
007D0000
ENDCHAR
STARTCHAR uni1EAF.a
ENCODING -1
SWIDTH 600 0
DWIDTH 8 0
BBX 8 12 0 0
BITMAP
000003A0
00010A20
000B3186
0004EE80
00000000
005BEE80
02A303F2
000000D3
017ADEF0
1D8425C0
4D117D90
1BFD6760
ENDCHAR
STARTCHAR uni1EB1.a
ENCODING -1
SWIDTH 600 0
DWIDTH 8 0
BBX 8 12 0 0
BITMAP
00008400
00012A00
000B3186
0004EE80
00000000
005BEE80
02A303F2
000000D3
017ADEF0
1D8425C0
4D117D90
1BFD6760
ENDCHAR
STARTCHAR uni1EB3.a
ENCODING -1
SWIDTH 600 0
DWIDTH 8 0
BBX 8 13 0 0
BITMAP
00002E40
00000880
00011C20
000B3186
0004EE80
00000000
005BEE80
02A303F2
000000D3
017ADEF0
1D8425C0
4D117D90
1BFD6760
ENDCHAR
STARTCHAR uni1EB5.a
ENCODING -1
SWIDTH 600 0
DWIDTH 8 0
BBX 8 12 0 0
BITMAP
0001C846
00075AE2
000A31B2
0004DE60
00000000
005BEE80
02A303F2
000000D3
017ADEF0
1D8425C0
4D117D90
1BFD6760
ENDCHAR
STARTCHAR uni1EB7.a
ENCODING -1
SWIDTH 600 0
DWIDTH 8 0
BBX 8 15 0 -4
BITMAP
00010000
000B3196
0004EE80
00000000
005BEE80
02A303F2
000000D3
017ADEF0
1D8425C0
4D117D90
1BFD6760
00000000
00000000
006D1000
007D0000
ENDCHAR
STARTCHAR aogonek.a
ENCODING -1
SWIDTH 600 0
DWIDTH 8 0
BBX 8 10 0 -3
BITMAP
005BEE80
02A303F2
000000D3
017ADEF0
1D8425C0
4D117D90
1BFD6760
00005610
0001B100
0001DD20
ENDCHAR
STARTCHAR g.a
ENCODING -1
SWIDTH 600 0
DWIDTH 8 0
BBX 8 10 0 -3
BITMAP
004CFFFD
03E417A0
078004A0
05B12C50
05AED600
0D410000
0ADFD910
A4002B80
E4013C50
5CFEB500
ENDCHAR
STARTCHAR uni01F5.a
ENCODING -1
SWIDTH 600 0
DWIDTH 8 0
BBX 8 14 0 -3
BITMAP
000002B0
00002D70
00008500
00000000
004CFFFD
03E417A0
078004A0
05B12C50
05AED600
0D410000
0ADFD910
A4002B80
E4013C50
5CFEB500
ENDCHAR
STARTCHAR gcircumflex.a
ENCODING -1
SWIDTH 600 0
DWIDTH 8 0
BBX 8 13 0 -3
BITMAP
0001BD50
000A31A1
00000000
004CFFFD
03E417A0
078004A0
05B12C50
05AED600
0D410000
0ADFD910
A4002B80
E4013C50
5CFEB500
ENDCHAR
STARTCHAR gbreve.a
ENCODING -1
SWIDTH 600 0
DWIDTH 8 0
BBX 8 14 0 -3
BITMAP
00010000
000B3196
0004EE80
00000000
004CFFFD
03E417A0
078004A0
05B12C50
05AED600
0D410000
0ADFD910
A4002B80
E4013C50
5CFEB500
ENDCHAR
STARTCHAR gdotaccent.a
ENCODING -1
SWIDTH 600 0
DWIDTH 8 0
BBX 8 13 0 -3
BITMAP
00007D00
00007C00
00000000
004CFFFD
03E417A0
078004A0
05B12C50
05AED600
0D410000
0ADFD910
A4002B80
E4013C50
5CFEB500
ENDCHAR
STARTCHAR uni0123.a
ENCODING -1
SWIDTH 600 0
DWIDTH 8 0
BBX 8 13 0 -3
BITMAP
00001A60
0000A500
00006500
004CFFFD
03E417A0
078004A0
05B12C50
05AED600
0D410000
0ADFD910
A4002B80
E4013C50
5CFEB500
ENDCHAR
STARTCHAR gcaron.a
ENCODING -1
SWIDTH 600 0
DWIDTH 8 0
BBX 8 13 0 -3
BITMAP
00074184
0001CC40
00000000
004CFFFD
03E417A0
078004A0
05B12C50
05AED600
0D410000
0ADFD910
A4002B80
E4013C50
5CFEB500
ENDCHAR
STARTCHAR uni1E21.a
ENCODING -1
SWIDTH 600 0
DWIDTH 8 0
BBX 8 12 0 -3
BITMAP
000AFFE0
00000000
004CFFFD
03E417A0
078004A0
05B12C50
05AED600
0D410000
0ADFD910
A4002B80
E4013C50
5CFEB500
ENDCHAR
STARTCHAR uni00670303.a
ENCODING -1
SWIDTH 600 0
DWIDTH 8 0
BBX 8 14 0 -3
BITMAP
00002001
000AC74A
00290AD3
00000000
004CFFFD
03E417A0
078004A0
05B12C50
05AED600
0D410000
0ADFD910
A4002B80
E4013C50
5CFEB500
ENDCHAR
STARTCHAR iogonek.d
ENCODING -1
SWIDTH 600 0
DWIDTH 8 0
BBX 6 10 1 -3
BITMAP
7FFF10
002D00
006900
009600
00D300
00E512
007EE6
000720
005910
003DC1
ENDCHAR
STARTCHAR uni0268.d
ENCODING -1
SWIDTH 600 0
DWIDTH 8 0
BBX 6 7 1 0
BITMAP
7FFF10
002D00
006A00
BFFFFB
00C400
00E412
007EE6
ENDCHAR
STARTCHAR uni029D.d
ENCODING -1
SWIDTH 600 0
DWIDTH 8 0
BBX 7 11 0 -4
BITMAP
01FFFF20
00002E00
00005B00
00008800
0000B500
0000E200
0002E000
6EEBA000
E34EA000
8ED6E200
00008400
ENDCHAR
STARTCHAR zero.a
ENCODING -1
SWIDTH 600 0
DWIDTH 8 0
BBX 8 9 0 0
BITMAP
001AED60
01D713E3
06B70087
0C381079
1E018088
2D0082B4
1E001AD0
0B813D50
02BEC500
ENDCHAR
STARTCHAR one.a
ENCODING -1
SWIDTH 600 0
DWIDTH 8 0
BBX 7 10 0 0
BITMAP
00000100
00008D00
002CEA00
00759700
0000C400
0000F100
0003D000
0006A000
00097000
5FFFFFA0
ENDCHAR
STARTCHAR zero.onum
ENCODING -1
SWIDTH 600 0
DWIDTH 8 0
BBX 8 8 0 0
BITMAP
003CED50
03E514E2
0B6000A6
1F06C097
3D08B0B5
2E0002E1
0D713D70
03CED600
ENDCHAR
STARTCHAR one.onum
ENCODING -1
SWIDTH 600 0
DWIDTH 8 0
BBX 7 8 0 0
BITMAP
0028CB00
0025B800
0000C400
0000E100
0003D000
0006A000
00097000
5FFFFFA0
ENDCHAR
STARTCHAR two.onum
ENCODING -1
SWIDTH 600 0
DWIDTH 8 0
BBX 7 8 0 0
BITMAP
006DFC20
05A21A90
00000690
00000C40
0000A700
002B6000
05C30000
6FEFFF90
ENDCHAR
STARTCHAR three.onum
ENCODING -1
SWIDTH 600 0
DWIDTH 8 0
BBX 7 9 0 -1
BITMAP
005CFD50
03A206E0
000004C0
00269B30
005CD700
00001C50
10000980
8A214E30
07DEC400
ENDCHAR
STARTCHAR four.onum
ENCODING -1
SWIDTH 600 0
DWIDTH 8 0
BBX 8 9 0 -1
BITMAP
000009D0
00008BA0
00069870
005A0B50
04B00E20
3B101E00
DFFFFFF2
00007800
0000B500
ENDCHAR
STARTCHAR five.onum
ENCODING -1
SWIDTH 600 0
DWIDTH 8 0
BBX 8 9 0 -1
BITMAP
00AFFFF6
00E10000
03C00000
07DDEB10
02302B90
000005C0
100007A0
7A215E30
07DEC400
ENDCHAR
ENDFONT
